<svg width="20" height="12" viewBox="0 0 20 12" fill="none" xmlns="http://www.w3.org/2000/svg">
<path d="M17.5523 9.52605C16.6215 10.5154 15.3603 11.071 14.0455 11.071C12.7306 11.071 11.4694 10.5154 10.5387 9.52605C10.3036 9.27565 10.0852 9.059 9.92103 8.72247C9.75681 8.38595 10.1528 7.24673 10.1528 7.24673C10.4493 8.14617 11.0122 8.91854 11.7568 9.44738C12.5014 9.97622 13.3872 10.2329 14.2807 10.1786C15.1741 10.1243 16.0268 9.76214 16.7101 9.14658C17.3935 8.53103 17.8704 7.69551 18.069 6.76601C18.2677 5.8365 18.1772 4.8634 17.8113 3.99344C17.4454 3.12348 16.8239 2.40382 16.0405 1.94297C15.2571 1.48212 14.3543 1.30507 13.4682 1.43852C12.5821 1.57196 11.7608 2.00867 11.128 2.68278C10.4837 3.36915 10.0719 4.58295 9.96104 5.20983C9.8285 5.94325 9.83267 7.37903 9.59094 8.17284C9.04829 9.9416 7.07109 11.5088 4.95968 11.5088C3.64429 11.5088 2.38278 10.9522 1.45266 9.96138C0.522536 8.9706 0 7.6268 0 6.22562C0 4.82443 0.522536 3.48064 1.45266 2.48985C2.38278 1.49906 3.64429 0.942443 4.95968 0.942443C6.63597 0.942443 8.14805 1.76644 9.01828 3.19423C9.21167 3.51211 8.82823 4.69749 8.82823 4.69749C8.56616 3.94463 8.11548 3.28263 7.52514 2.78336C6.93479 2.28409 6.22733 1.96662 5.47955 1.86542C4.73178 1.76422 3.97227 1.88316 3.28347 2.20932C2.59468 2.53548 2.00292 3.05641 1.57244 3.71554C1.14196 4.37467 0.88921 5.14682 0.841629 5.94817C0.794047 6.74952 0.953451 7.54944 1.30254 8.2611C1.65162 8.97275 2.17705 9.56895 2.82178 9.98496C3.4665 10.401 4.20589 10.6209 4.95968 10.6209C7.23446 10.6209 8.88491 8.63989 9.0858 6.22562C9.19916 4.86797 9.27502 4.50836 9.43423 3.90546C9.67679 3.10632 10.0286 2.59754 10.5387 2.05413C10.9986 1.56027 11.5455 1.16802 12.1481 0.899878C12.7506 0.63174 13.397 0.492998 14.05 0.491613C14.703 0.49023 15.3499 0.62623 15.9534 0.891811C16.557 1.15739 17.1054 1.54733 17.5671 2.03923C18.0288 2.53114 18.3948 3.11533 18.6441 3.75829C18.8933 4.40124 19.0209 5.0903 19.0195 5.78592C19.0181 6.48153 18.8878 7.17001 18.636 7.81184C18.3842 8.45367 18.0159 9.03622 17.5523 9.52605Z" fill="#7CB928"/>
</svg>
