<svg width="19" height="14" viewBox="0 0 19 14" fill="none" xmlns="http://www.w3.org/2000/svg">
<path d="M11.8241 12.6929H7.17579C6.98189 12.6929 6.82471 12.8677 6.82471 13.0833V13.5491C6.82471 13.7647 6.98189 13.9395 7.17579 13.9395H11.8241C12.018 13.9395 12.1751 13.7647 12.1751 13.5491V13.0833C12.1751 12.8677 12.018 12.6929 11.8241 12.6929Z" fill="#7CB928"/>
<path d="M2.63611 13.9989C2.57087 14.0028 2.50566 13.9904 2.44529 13.9626C2.38491 13.9348 2.3309 13.8924 2.28722 13.8383C2.19748 13.7021 2.15408 13.5349 2.16472 13.3664V9.76515C2.15386 9.59704 2.1973 9.43014 2.28722 9.29446C2.3308 9.24021 2.38476 9.19751 2.44514 9.16952C2.50552 9.14152 2.57078 9.12894 2.63611 9.1327C2.70151 9.12832 2.76694 9.14061 2.82741 9.16864C2.88788 9.19668 2.94178 9.23972 2.98501 9.29446C3.07493 9.43014 3.11836 9.59704 3.1075 9.76515V13.3664C3.1183 13.5345 3.07573 13.7015 2.98719 13.8383C2.94363 13.8932 2.88933 13.9362 2.82846 13.964C2.76759 13.9919 2.70178 14.0038 2.63611 13.9989Z" fill="#7CB928"/>
<path d="M4.23607 13.9987C4.17083 14.0026 4.10562 13.9902 4.04525 13.9624C3.98487 13.9346 3.93086 13.8921 3.88718 13.8381C3.79868 13.7058 3.75493 13.543 3.76359 13.3784V9.81844C3.75366 9.65252 3.7975 9.48813 3.88718 9.35506C3.93123 9.30014 3.9859 9.25705 4.0471 9.22903C4.10829 9.20101 4.1744 9.18879 4.24045 9.1933H5.50259C5.9131 9.1933 6.22991 9.33114 6.45303 9.60682C6.67614 9.8825 6.78807 10.2628 6.7888 10.7476C6.7888 11.2341 6.67687 11.6144 6.45303 11.8885C6.22918 12.1625 5.91237 12.3008 5.50259 12.3032H4.70309V13.3784C4.7127 13.5441 4.67017 13.7083 4.58278 13.843C4.53892 13.8958 4.48508 13.9372 4.42514 13.9641C4.36519 13.991 4.30062 14.0028 4.23607 13.9987ZM4.70309 11.3533H5.33416C5.70238 11.3533 5.88685 11.1506 5.88758 10.7452C5.88831 10.3398 5.70383 10.1371 5.33416 10.1371H4.70309V11.3533Z" fill="#7CB928"/>
<path d="M16.9033 11.6759H7.00851V10.4597H16.9033C17.1693 10.459 17.4243 10.3411 17.6123 10.1318C17.8002 9.92257 17.906 9.63895 17.9063 9.34314V2.33153C17.9057 2.03593 17.7998 1.75263 17.6119 1.54361C17.4239 1.33459 17.1691 1.21688 16.9033 1.21624H2.09665C1.83083 1.21688 1.57606 1.33459 1.3881 1.54361C1.20014 1.75263 1.09429 2.03593 1.09371 2.33153V9.34193C1.09307 9.56581 1.15331 9.78468 1.26651 9.96982C1.37972 10.155 1.5406 10.2977 1.72807 10.3794L1.74994 11.5093C0.757943 11.5032 0 10.304 0 9.34193V2.33153C0.00057905 1.71337 0.221661 1.12071 0.614733 0.6836C1.00781 0.246493 1.54076 0.00064392 2.09665 0L16.9033 0C17.4592 0.00064392 17.9922 0.246493 18.3852 0.6836C18.7783 1.12071 18.9994 1.71337 19 2.33153V9.34193C19 9.96051 18.7791 10.5538 18.386 10.9914C17.9929 11.4291 17.4596 11.6752 16.9033 11.6759Z" fill="#7CB928"/>
</svg>
