<svg width="19" height="18" viewBox="0 0 19 18" fill="none" xmlns="http://www.w3.org/2000/svg">
<path d="M16.7328 18H2.26723C1.66652 17.9994 1.09057 17.7652 0.665581 17.3487C0.240597 16.9323 0.0012518 16.3675 0 15.7783L0 2.22404C0.000626161 1.63438 0.239695 1.06904 0.664747 0.652085C1.0898 0.235129 1.66611 0.000614234 2.26723 0L16.7328 0C17.3339 0.000614234 17.9102 0.235129 18.3353 0.652085C18.7603 1.06904 18.9994 1.63438 19 2.22404V15.7783C18.9987 16.3675 18.7594 16.9323 18.3344 17.3487C17.9094 17.7652 17.3335 17.9994 16.7328 18ZM2.26723 1.16017C1.97969 1.16047 1.70401 1.27266 1.50069 1.47211C1.29737 1.67156 1.18301 1.94198 1.1827 2.22404V15.7783C1.1827 16.0605 1.29692 16.3313 1.50028 16.531C1.70363 16.7307 1.97948 16.843 2.26723 16.8433H16.7328C17.0204 16.8427 17.2961 16.7303 17.4994 16.5306C17.7027 16.331 17.817 16.0604 17.8173 15.7783V2.22404C17.8167 1.94207 17.7022 1.67183 17.499 1.47245C17.2957 1.27306 17.0202 1.16078 16.7328 1.16017H2.26723Z" fill="#7CB928"/>
<path d="M4.74638 15.9812H4.08525C3.49971 15.9806 2.93832 15.7522 2.52417 15.3461C2.11002 14.9401 1.87692 14.3895 1.87598 13.8151V4.18575C1.87629 3.61107 2.10915 3.06001 2.5234 2.65365C2.93766 2.24729 3.49941 2.01886 4.08525 2.01855H4.74638C5.33181 2.01917 5.89308 2.24757 6.30704 2.65365C6.72101 3.05973 6.95384 3.61031 6.95447 4.18459V13.814C6.95384 14.3884 6.72104 14.9391 6.30712 15.3453C5.89319 15.7516 5.33192 15.9803 4.74638 15.9812ZM4.08525 3.06271C3.78192 3.06301 3.49108 3.18127 3.27648 3.39157C3.06188 3.60186 2.94103 3.88703 2.9404 4.18459V13.814C2.94103 14.1115 3.06188 14.3967 3.27648 14.607C3.49108 14.8173 3.78192 14.9356 4.08525 14.9359H4.74638C5.0496 14.9356 5.34032 14.8173 5.55473 14.6069C5.76914 14.3966 5.88973 14.1114 5.89004 13.814V4.18459C5.88973 3.88714 5.76914 3.60196 5.55473 3.39164C5.34032 3.18131 5.0496 3.06301 4.74638 3.06271H4.08525Z" fill="#7CB928"/>
<path d="M16.0561 5.74037H8.72344C8.56523 5.74068 8.40851 5.71039 8.26224 5.65125C8.11597 5.5921 7.98302 5.50526 7.87098 5.39568C7.75895 5.2861 7.67003 5.15594 7.6093 5.01263C7.54858 4.86932 7.51724 4.71568 7.51709 4.56048V3.19844C7.5174 2.88561 7.64423 2.58568 7.86973 2.36448C8.09523 2.14327 8.40098 2.01886 8.71989 2.01855H16.0526C16.3715 2.01886 16.6773 2.14327 16.9028 2.36448C17.1283 2.58568 17.2551 2.88561 17.2554 3.19844V4.56048C17.2551 4.87271 17.1287 5.17212 16.904 5.39322C16.6793 5.61433 16.3744 5.73915 16.0561 5.74037ZM8.72344 3.06271C8.68674 3.06271 8.65154 3.07701 8.62559 3.10246C8.59964 3.12792 8.58506 3.16244 8.58506 3.19844V4.56048C8.58506 4.59648 8.59964 4.63101 8.62559 4.65646C8.65154 4.68192 8.68674 4.69622 8.72344 4.69622H16.0561C16.0928 4.69622 16.128 4.68192 16.154 4.65646C16.1799 4.63101 16.1945 4.59648 16.1945 4.56048V3.19844C16.1945 3.16244 16.1799 3.12792 16.154 3.10246C16.128 3.07701 16.0928 3.06271 16.0561 3.06271H8.72344Z" fill="#7CB928"/>
<path d="M8.68679 8.59685C9.03886 8.59685 9.32426 8.31688 9.32426 7.97152C9.32426 7.62616 9.03886 7.34619 8.68679 7.34619C8.33472 7.34619 8.04932 7.62616 8.04932 7.97152C8.04932 8.31688 8.33472 8.59685 8.68679 8.59685Z" fill="#7CB928"/>
<path d="M11.2405 8.59685C11.5926 8.59685 11.878 8.31688 11.878 7.97152C11.878 7.62616 11.5926 7.34619 11.2405 7.34619C10.8884 7.34619 10.603 7.62616 10.603 7.97152C10.603 8.31688 10.8884 8.59685 11.2405 8.59685Z" fill="#7CB928"/>
<path d="M13.7937 8.59685C14.1458 8.59685 14.4312 8.31688 14.4312 7.97152C14.4312 7.62616 14.1458 7.34619 13.7937 7.34619C13.4417 7.34619 13.1562 7.62616 13.1562 7.97152C13.1562 8.31688 13.4417 8.59685 13.7937 8.59685Z" fill="#7CB928"/>
<path d="M16.3474 8.59685C16.6995 8.59685 16.9849 8.31688 16.9849 7.97152C16.9849 7.62616 16.6995 7.34619 16.3474 7.34619C15.9954 7.34619 15.71 7.62616 15.71 7.97152C15.71 8.31688 15.9954 8.59685 16.3474 8.59685Z" fill="#7CB928"/>
<path d="M8.68679 10.8454C9.03886 10.8454 9.32426 10.5654 9.32426 10.2201C9.32426 9.8747 9.03886 9.59473 8.68679 9.59473C8.33472 9.59473 8.04932 9.8747 8.04932 10.2201C8.04932 10.5654 8.33472 10.8454 8.68679 10.8454Z" fill="#7CB928"/>
<path d="M11.2405 10.8454C11.5926 10.8454 11.878 10.5654 11.878 10.2201C11.878 9.8747 11.5926 9.59473 11.2405 9.59473C10.8884 9.59473 10.603 9.8747 10.603 10.2201C10.603 10.5654 10.8884 10.8454 11.2405 10.8454Z" fill="#7CB928"/>
<path d="M13.7937 10.8454C14.1458 10.8454 14.4312 10.5654 14.4312 10.2201C14.4312 9.8747 14.1458 9.59473 13.7937 9.59473C13.4417 9.59473 13.1562 9.8747 13.1562 10.2201C13.1562 10.5654 13.4417 10.8454 13.7937 10.8454Z" fill="#7CB928"/>
<path d="M16.3474 10.8454C16.6995 10.8454 16.9849 10.5654 16.9849 10.2201C16.9849 9.8747 16.6995 9.59473 16.3474 9.59473C15.9954 9.59473 15.71 9.8747 15.71 10.2201C15.71 10.5654 15.9954 10.8454 16.3474 10.8454Z" fill="#7CB928"/>
<path d="M8.68679 13.0925C9.03886 13.0925 9.32426 12.8125 9.32426 12.4671C9.32426 12.1218 9.03886 11.8418 8.68679 11.8418C8.33472 11.8418 8.04932 12.1218 8.04932 12.4671C8.04932 12.8125 8.33472 13.0925 8.68679 13.0925Z" fill="#7CB928"/>
<path d="M11.2405 13.0925C11.5926 13.0925 11.878 12.8125 11.878 12.4671C11.878 12.1218 11.5926 11.8418 11.2405 11.8418C10.8884 11.8418 10.603 12.1218 10.603 12.4671C10.603 12.8125 10.8884 13.0925 11.2405 13.0925Z" fill="#7CB928"/>
<path d="M13.7937 13.0925C14.1458 13.0925 14.4312 12.8125 14.4312 12.4671C14.4312 12.1218 14.1458 11.8418 13.7937 11.8418C13.4417 11.8418 13.1562 12.1218 13.1562 12.4671C13.1562 12.8125 13.4417 13.0925 13.7937 13.0925Z" fill="#7CB928"/>
<path d="M16.3474 13.0925C16.6995 13.0925 16.9849 12.8125 16.9849 12.4671C16.9849 12.1218 16.6995 11.8418 16.3474 11.8418C15.9954 11.8418 15.71 12.1218 15.71 12.4671C15.71 12.8125 15.9954 13.0925 16.3474 13.0925Z" fill="#7CB928"/>
<path d="M8.68679 15.1008C9.03886 15.1008 9.32426 14.8208 9.32426 14.4754C9.32426 14.1301 9.03886 13.8501 8.68679 13.8501C8.33472 13.8501 8.04932 14.1301 8.04932 14.4754C8.04932 14.8208 8.33472 15.1008 8.68679 15.1008Z" fill="#7CB928"/>
<path d="M11.2405 15.1008C11.5926 15.1008 11.878 14.8208 11.878 14.4754C11.878 14.1301 11.5926 13.8501 11.2405 13.8501C10.8884 13.8501 10.603 14.1301 10.603 14.4754C10.603 14.8208 10.8884 15.1008 11.2405 15.1008Z" fill="#7CB928"/>
<path d="M16.3119 13.8154H13.3185C12.9468 13.8154 12.6455 14.111 12.6455 14.4756C12.6455 14.8401 12.9468 15.1357 13.3185 15.1357H16.3119C16.6835 15.1357 16.9848 14.8401 16.9848 14.4756C16.9848 14.111 16.6835 13.8154 16.3119 13.8154Z" fill="#7CB928"/>
</svg>
