<svg width="19" height="16" viewBox="0 0 19 16" fill="none" xmlns="http://www.w3.org/2000/svg">
<path d="M15.4886 11.8383C15.2457 12.1247 15.0032 12.4106 14.7611 12.6961C14.7304 12.7295 14.6934 12.7547 14.6528 12.7699C14.6122 12.7851 14.5691 12.7898 14.5266 12.7838C14.4841 12.7777 14.4434 12.7611 14.4075 12.735C14.3716 12.709 14.3414 12.6742 14.3192 12.6333C13.7449 11.4186 12.8175 10.4585 11.6897 9.9107C10.5618 9.36293 9.30061 9.26016 8.11352 9.61931C7.37819 9.84771 6.69361 10.2449 6.10349 10.7855C5.51337 11.3261 5.03069 11.9982 4.68628 12.7589C4.66569 12.811 4.63066 12.8544 4.58633 12.8827C4.542 12.9109 4.49072 12.9226 4.44004 12.9158C4.40248 12.9154 4.36548 12.9057 4.33166 12.8875C4.29784 12.8693 4.26804 12.8429 4.24439 12.8103C3.99776 12.529 3.75114 12.2473 3.50452 11.9652C3.46214 11.9159 3.43493 11.8528 3.42684 11.785C3.41875 11.7173 3.43021 11.6484 3.45954 11.5884C3.98773 10.5664 4.71241 9.68795 5.58132 9.01652C6.36856 8.41271 7.25835 7.99573 8.19566 7.79139C9.13297 7.58704 10.0979 7.59968 11.0306 7.82851C11.9634 8.05735 12.8442 8.49751 13.6185 9.12178C14.3928 9.74604 15.0443 10.5411 15.5324 11.4578C15.5627 11.5181 15.5748 11.5877 15.5669 11.6562C15.559 11.7247 15.5315 11.7886 15.4886 11.8383Z" fill="#7CB928"/>
<path d="M17.3204 8.80787L16.6109 9.64421C16.5803 9.67753 16.5433 9.70267 16.5027 9.71776C16.4622 9.73285 16.4191 9.73748 16.3767 9.73132C16.3343 9.72516 16.2937 9.70836 16.2579 9.68218C16.2221 9.65601 16.1921 9.62113 16.1702 9.58016C15.2489 8.09263 13.9477 6.94957 12.4362 6.29998C10.9247 5.65039 9.2731 5.52441 7.69658 5.93844C5.70761 6.47359 3.9721 7.82582 2.83574 9.72583C2.80879 9.77512 2.76978 9.81478 2.7233 9.8401C2.67278 9.87808 2.61173 9.89453 2.55126 9.88647C2.4908 9.8784 2.43493 9.84635 2.39385 9.79615C2.15472 9.52156 1.91447 9.24696 1.6731 8.97237C1.6301 8.92345 1.60255 8.8602 1.59464 8.79221C1.58673 8.72423 1.59888 8.65522 1.62924 8.59564C2.38398 7.3815 3.35042 6.35001 4.47064 5.56297C6.54372 4.1227 9.02981 3.61726 11.4244 4.14922C13.8189 4.68119 15.9426 6.2107 17.3643 8.42737C17.3949 8.48752 17.4072 8.55717 17.3993 8.6258C17.3914 8.69444 17.3637 8.75834 17.3204 8.80787Z" fill="#7CB928"/>
<path d="M19 5.82768C19 6.06878 18.7751 6.25589 18.6402 6.41662L18.2511 6.87622C18.114 7.03821 17.9138 6.96664 17.8092 6.81218C16.6075 5.05327 14.9792 3.71631 13.1175 2.95998C11.2558 2.20364 9.23884 2.05967 7.30605 2.54516C4.87146 3.1667 2.71713 4.74259 1.23419 6.98673C1.20334 7.03568 1.16248 7.07571 1.11501 7.10351C1.09851 7.11368 1.08119 7.12209 1.06328 7.12863H1.05204C1.00822 7.1418 0.962055 7.1418 0.918232 7.12863L0.896868 7.12109H0.887873L0.858638 7.10477L0.84627 7.09598C0.840622 7.09296 0.835334 7.08916 0.830528 7.08468C0.822855 7.07782 0.815709 7.07026 0.809164 7.06207C0.561792 6.78162 0.318917 6.50536 0.0805407 6.23328C0.0377048 6.18425 0.0102723 6.12102 0.00236477 6.05309C-0.00554278 5.98516 0.00650162 5.91619 0.0366884 5.85656C0.160374 5.67322 0.287434 5.49239 0.417866 5.31659C1.47171 3.89611 2.77891 2.73631 4.2562 1.91107C5.73348 1.08583 7.34847 0.613248 8.9983 0.523415C10.6059 0.421221 12.2166 0.654153 13.7478 1.21031C15.1583 1.73682 16.4464 2.60665 17.5191 3.75696C17.7934 4.05256 18.0528 4.36488 18.2961 4.69248C18.4228 4.85992 18.5461 5.03447 18.666 5.21613C18.7751 5.37938 18.9921 5.61546 19 5.82768Z" fill="#7CB928"/>
<path d="M1.05618 7.13281C1.01261 7.14792 0.965934 7.14792 0.922363 7.13281C0.966188 7.14594 1.01235 7.14594 1.05618 7.13281Z" fill="#7CB928"/>
<path d="M9.4965 15.4998C10.3616 15.4998 11.0628 14.7165 11.0628 13.7504C11.0628 12.7842 10.3616 12.001 9.4965 12.001C8.63144 12.001 7.93018 12.7842 7.93018 13.7504C7.93018 14.7165 8.63144 15.4998 9.4965 15.4998Z" fill="#7CB928"/>
</svg>
