<svg width="15" height="22" viewBox="0 0 15 22" fill="none" xmlns="http://www.w3.org/2000/svg">
<path d="M12.8652 22H2.13804C1.57108 21.9991 1.02759 21.7576 0.626788 21.3286C0.225982 20.8995 0.000574945 20.3179 0 19.7113L0 2.28757C0.000862461 1.68115 0.226397 1.09984 0.627171 0.671034C1.02795 0.24223 1.57126 0.000922779 2.13804 0L12.8652 0C13.4315 0.00153831 13.9742 0.243155 14.3743 0.671924C14.7744 1.10069 14.9994 1.68166 15 2.28757V19.7113C14.9994 20.3173 14.7745 20.8984 14.3744 21.3273C13.9743 21.7563 13.4316 21.9982 12.8652 22ZM2.13804 1.27927C1.88819 1.27958 1.64866 1.38591 1.47199 1.57494C1.29532 1.76396 1.19594 2.02025 1.19565 2.28757V19.7113C1.19565 19.9788 1.2949 20.2354 1.47161 20.4247C1.64831 20.6139 1.88801 20.7204 2.13804 20.7207H12.8652C13.1153 20.7204 13.355 20.6139 13.5317 20.4247C13.7084 20.2354 13.8076 19.9788 13.8076 19.7113V2.28757C13.8073 2.02025 13.7079 1.76396 13.5313 1.57494C13.3546 1.38591 13.1151 1.27958 12.8652 1.27927H2.13804Z" fill="#7CB928"/>
<path d="M11.4185 8.95461H3.58702C3.19783 8.954 2.82477 8.78823 2.54967 8.49368C2.27457 8.19912 2.11992 7.79984 2.11963 7.38344V4.03291C2.11992 3.61661 2.27461 3.21745 2.54974 2.92308C2.82486 2.62871 3.19793 2.4632 3.58702 2.46289H11.4207C11.8099 2.4632 12.1831 2.62867 12.4584 2.92301C12.7337 3.21734 12.8886 3.6165 12.8892 4.03291V7.38809C12.8878 7.80429 12.7321 8.20291 12.4565 8.49655C12.1808 8.7902 11.8075 8.95492 11.4185 8.95461ZM3.58702 3.62586C3.48612 3.62586 3.38936 3.66875 3.31801 3.74508C3.24667 3.82142 3.20659 3.92495 3.20659 4.03291V7.38809C3.20773 7.49534 3.24828 7.5978 3.31947 7.67332C3.39066 7.74884 3.48677 7.79134 3.58702 7.79164H11.4207C11.4708 7.79164 11.5204 7.78108 11.5667 7.76057C11.613 7.74005 11.6551 7.70998 11.6905 7.67208C11.7259 7.63417 11.754 7.58917 11.7732 7.53965C11.7924 7.49012 11.8022 7.43704 11.8022 7.38344V4.03291C11.8019 3.92485 11.7616 3.82132 11.6901 3.74501C11.6186 3.66871 11.5217 3.62586 11.4207 3.62586H3.58702Z" fill="#7CB928"/>
<path d="M7.50187 19.8437C8.44135 19.8437 9.20296 19.0289 9.20296 18.0237C9.20296 17.0185 8.44135 16.2036 7.50187 16.2036C6.56238 16.2036 5.80078 17.0185 5.80078 18.0237C5.80078 19.0289 6.56238 19.8437 7.50187 19.8437Z" fill="#7CB928"/>
<path d="M12.5415 10.9992V11.733C12.5404 11.8097 12.5114 11.883 12.4607 11.9373C12.41 11.9915 12.3415 12.0225 12.2698 12.0237C12.264 12.0231 12.2582 12.0231 12.2524 12.0237C11.8676 12.04 11.4806 12.0237 11.0958 12.0237H2.73389C2.6992 12.0252 2.66462 12.0188 2.63241 12.005C2.60019 11.9911 2.57106 11.9702 2.54693 11.9435H2.5415C2.51655 11.9177 2.49697 11.8865 2.48405 11.852C2.47112 11.8176 2.46514 11.7806 2.4665 11.7435V10.9992C2.46762 10.9224 2.49661 10.8492 2.54733 10.7949C2.59805 10.7406 2.66652 10.7096 2.73824 10.7084H2.75563C3.13932 10.6921 3.52737 10.7084 3.91106 10.7084H12.2741C12.3451 10.7108 12.4124 10.7423 12.4622 10.7965C12.512 10.8506 12.5404 10.9232 12.5415 10.9992Z" fill="#7CB928"/>
<path d="M12.5415 13.6066V14.3404C12.5404 14.4172 12.5114 14.4904 12.4607 14.5447C12.41 14.5989 12.3415 14.63 12.2698 14.6312H12.2524C11.8676 14.6474 11.4806 14.6312 11.0958 14.6312H2.73389C2.6992 14.6326 2.66462 14.6262 2.63241 14.6124C2.60019 14.5986 2.57106 14.5776 2.54693 14.5509H2.5415C2.51655 14.5251 2.49697 14.4939 2.48405 14.4595C2.47112 14.425 2.46514 14.388 2.4665 14.3509V13.6066C2.46762 13.5298 2.49661 13.4566 2.54733 13.4023C2.59805 13.348 2.66652 13.317 2.73824 13.3158H2.75563C3.13932 13.2995 3.52737 13.3158 3.91106 13.3158H12.2741C12.3451 13.3182 12.4124 13.3498 12.4622 13.4039C12.512 13.458 12.5404 13.5306 12.5415 13.6066Z" fill="#7CB928"/>
</svg>
