<svg width="15" height="18" viewBox="0 0 15 18" fill="none" xmlns="http://www.w3.org/2000/svg">
<path d="M0.000593185 10.6596V0H14.9876L14.9994 10.6596C15.0119 11.6192 14.8271 12.5716 14.4558 13.4617C14.0846 14.3517 13.5342 15.1616 12.8365 15.8444C12.1389 16.5273 11.308 17.0694 10.3919 17.4394C9.47581 17.8095 8.49285 18 7.5 18C6.50715 18 5.52419 17.8095 4.60811 17.4394C3.69204 17.0694 2.86109 16.5273 2.16347 15.8444C1.46585 15.1616 0.915434 14.3517 0.544152 13.4617C0.172871 12.5716 -0.0118876 11.6192 0.000593185 10.6596ZM7.49467 16.6659C9.14076 16.6635 10.7185 16.0295 11.8813 14.9033C13.044 13.777 13.6966 12.2507 13.6957 10.6596L13.6838 1.26587H1.30432V10.6596C1.30261 11.4469 1.46138 12.2268 1.77158 12.9548C2.08178 13.6828 2.53731 14.3445 3.11217 14.9023C3.68703 15.4601 4.36994 15.9029 5.12191 16.2055C5.87387 16.5081 6.68014 16.6646 7.49467 16.6659Z" fill="#7CB928"/>
<path d="M7.49938 15.597C8.40473 15.597 9.28975 15.3375 10.0425 14.8513C10.7953 14.3651 11.3819 13.6741 11.7283 12.8656C12.0748 12.0571 12.1653 11.1675 11.9886 10.3092C11.8119 9.45098 11.3758 8.66266 10.7356 8.04396C10.0953 7.42527 9.27962 7.00399 8.39164 6.83341C7.50366 6.66283 6.58328 6.75061 5.74692 7.08564C4.91055 7.42068 4.19576 7.98792 3.69294 8.71563C3.19013 9.44334 2.92188 10.2988 2.92211 11.1739C2.92368 12.3467 3.40647 13.471 4.26457 14.3002C5.12267 15.1294 6.28601 15.5958 7.49938 15.597ZM7.49938 7.89526C8.17027 7.89526 8.82609 8.08755 9.38391 8.44782C9.94174 8.80808 10.3765 9.32014 10.6332 9.91923C10.89 10.5183 10.9572 11.1776 10.8263 11.8135C10.6954 12.4495 10.3723 13.0337 9.89794 13.4923C9.42355 13.9508 8.81914 14.2631 8.16114 14.3896C7.50315 14.5161 6.82112 14.4512 6.2013 14.203C5.58148 13.9548 5.05171 13.5346 4.67898 12.9954C4.30626 12.4563 4.10732 11.8224 4.10732 11.1739C4.10795 10.3046 4.46553 9.47096 5.10153 8.85623C5.73752 8.24149 6.59995 7.89587 7.49938 7.89526Z" fill="#7CB928"/>
<path d="M7.4996 12.9027C6.51185 12.9027 5.71112 12.1287 5.71112 11.174C5.71112 10.2193 6.51185 9.44531 7.4996 9.44531C8.48735 9.44531 9.28809 10.2193 9.28809 11.174C9.28809 12.1287 8.48735 12.9027 7.4996 12.9027Z" fill="#7CB928"/>
</svg>
