<svg width="21" height="12" viewBox="0 0 21 12" fill="none" xmlns="http://www.w3.org/2000/svg">
<path d="M17.3223 5.27546C17.0163 4.42782 16.4904 3.70179 15.8122 3.19066C15.1341 2.67953 14.3346 2.40666 13.5166 2.4071C12.7377 2.40522 11.9748 2.65418 11.3192 3.12419C10.7794 2.12112 9.97162 1.33251 9.00959 0.869453C8.04755 0.406392 6.97975 0.292207 5.95658 0.542981C4.9334 0.793755 4.00642 1.39685 3.30617 2.26733C2.60593 3.1378 2.16772 4.23179 2.05326 5.39522C1.39694 5.60322 0.830197 6.06969 0.457805 6.70839C0.0854137 7.34708 -0.0674488 8.11482 0.027475 8.86969C0.122399 9.62455 0.45869 10.3155 0.974185 10.8148C1.48968 11.3141 2.14952 11.588 2.83173 11.5859H17.1946C17.9435 11.6049 18.6685 11.2907 19.2101 10.7124C19.7517 10.1342 20.0656 9.33918 20.0826 8.50237C20.0996 7.66556 19.8184 6.85547 19.3009 6.25031C18.7834 5.64514 18.0719 5.29448 17.323 5.27546H17.3223ZM17.194 10.7971H2.83173C2.30101 10.8011 1.78828 10.5823 1.39503 10.1841C1.00179 9.78586 0.756692 9.23715 0.708271 8.64661C0.65985 8.05607 0.811631 7.46674 1.13357 6.99528C1.4555 6.52382 1.92413 6.20461 2.44667 6.10083L2.77718 5.2726C2.91627 4.26315 3.33963 3.32949 3.98583 2.60713C4.63202 1.88477 5.46743 1.41129 6.37079 1.25543C7.27415 1.09956 8.19846 1.26941 9.00956 1.74033C9.82067 2.21124 10.4764 2.95872 10.8815 3.87427L11.4161 4.0098C11.8447 3.63359 12.3479 3.37796 12.8833 3.26444C13.4188 3.15092 13.9708 3.18284 14.493 3.35751C15.0151 3.53217 15.492 3.84447 15.8835 4.26811C16.2751 4.69174 16.5698 5.2143 16.7428 5.79177L16.9174 5.91869L17.0772 6.06211H17.1972C17.7589 6.06211 18.2975 6.31143 18.6947 6.75521C19.0919 7.199 19.315 7.8009 19.315 8.42851C19.315 9.05612 19.0919 9.65802 18.6947 10.1018C18.2975 10.5456 17.7589 10.7949 17.1972 10.7949L17.194 10.7971Z" fill="#7CB928"/>
</svg>
