<svg width="27" height="26" viewBox="0 0 27 26" fill="none" xmlns="http://www.w3.org/2000/svg">
<path d="M22.9362 26H3.89843C3.15711 25.9989 2.44652 25.7037 1.9226 25.1792C1.39868 24.6548 1.10422 23.9439 1.10385 23.2026V15.2706C0.531369 14.8295 0.149567 14.1859 0.0368751 13.472C-0.0363399 13.0294 -0.00017619 12.5756 0.142214 12.1501C0.284603 11.7247 0.528897 11.3405 0.853796 11.0312L11.4766 0.787688C11.9964 0.282572 12.6926 0 13.4173 0C14.1421 0 14.8383 0.282572 15.3581 0.787688L25.9766 11.0312C26.3026 11.3399 26.5479 11.7238 26.691 12.1494C26.8342 12.5749 26.8708 13.029 26.7978 13.472C26.6856 14.1857 26.3043 14.8293 25.7322 15.2706V23.2026C25.7319 23.9441 25.4372 24.6552 24.913 25.1797C24.3887 25.7042 23.6778 25.9992 22.9362 26ZM13.4173 1.56341C13.099 1.5642 12.7934 1.68847 12.5649 1.91007L1.94492 12.1564C1.8005 12.2904 1.69155 12.4582 1.62784 12.6446C1.56412 12.8311 1.54761 13.0304 1.57979 13.2248C1.61116 13.4224 1.68893 13.6098 1.80673 13.7716C1.92453 13.9333 2.07901 14.0648 2.25748 14.1554L2.79167 14.4125L2.68796 14.9964C2.67431 15.0681 2.66717 15.1409 2.66665 15.2138V23.2026C2.66646 23.3646 2.69822 23.5252 2.76011 23.6749C2.822 23.8247 2.91281 23.9608 3.02734 24.0755C3.14187 24.1902 3.27788 24.2811 3.42759 24.3432C3.5773 24.4053 3.73778 24.4372 3.89985 24.4372H22.9377C23.2645 24.4372 23.5779 24.3075 23.8092 24.0765C24.0404 23.8455 24.1705 23.5322 24.1709 23.2054V15.2138C24.1703 15.1409 24.1632 15.0681 24.1495 14.9964L24.0458 14.4125L24.58 14.1554C24.7585 14.0651 24.9129 13.9336 25.0305 13.7717C25.1481 13.6099 25.2255 13.4224 25.2563 13.2248C25.2892 13.0305 25.2731 12.8311 25.2096 12.6446C25.1461 12.458 25.0372 12.2903 24.8926 12.1564L14.2755 1.91291C14.0459 1.68904 13.738 1.56363 13.4173 1.56341Z" fill="#7CB928"/>
<path d="M12.624 15.9115V22.1272C12.624 22.565 12.9786 22.9199 13.4161 22.9199C13.8535 22.9199 14.2081 22.565 14.2081 22.1272V15.9115C14.2081 15.4736 13.8535 15.1187 13.4161 15.1187C12.9786 15.1187 12.624 15.4736 12.624 15.9115Z" fill="#7CB928"/>
<path d="M15.9181 18.4102H13.6023C13.1645 18.4102 12.8096 18.7648 12.8096 19.2022C12.8096 19.6397 13.1645 19.9943 13.6023 19.9943H15.9181C16.356 19.9943 16.7109 19.6397 16.7109 19.2022C16.7109 18.7648 16.356 18.4102 15.9181 18.4102Z" fill="#7CB928"/>
<path d="M15.9181 20.625H13.6023C13.1645 20.625 12.8096 20.9796 12.8096 21.4171C12.8096 21.8545 13.1645 22.2091 13.6023 22.2091H15.9181C16.356 22.2091 16.7109 21.8545 16.7109 21.4171C16.7109 20.9796 16.356 20.625 15.9181 20.625Z" fill="#7CB928"/>
<path d="M13.4174 16.0836C12.5109 16.0834 11.6249 15.8142 10.8715 15.3103C10.118 14.8063 9.53096 14.0902 9.1846 13.2526C8.83824 12.4149 8.74812 11.4933 8.92565 10.6044C9.10318 9.71553 9.54038 8.89926 10.1819 8.25891C10.8235 7.61855 11.6406 7.18287 12.5298 7.007C13.419 6.83112 14.3404 6.92295 15.1774 7.27088C16.0144 7.6188 16.7295 8.20717 17.232 8.96156C17.7345 9.71594 18.002 10.6024 18.0006 11.5089C17.9972 12.7226 17.513 13.8856 16.654 14.743C15.7949 15.6005 14.6311 16.0825 13.4174 16.0836ZM13.4174 8.48273C12.8206 8.48301 12.2373 8.66014 11.7412 8.99173C11.245 9.32333 10.8583 9.79452 10.6298 10.3458C10.4013 10.8971 10.3413 11.5037 10.4574 12.089C10.5735 12.6744 10.8604 13.2122 11.282 13.6346C11.7035 14.0569 12.2408 14.3449 12.826 14.4621C13.4111 14.5792 14.0178 14.5204 14.5695 14.2929C15.1212 14.0655 15.5931 13.6796 15.9257 13.1841C16.2582 12.6886 16.4364 12.1056 16.4378 11.5089C16.4382 11.1119 16.3604 10.7186 16.2088 10.3517C16.0572 9.98475 15.8348 9.65125 15.5543 9.37025C15.2738 9.08924 14.9408 8.86623 14.5741 8.71395C14.2074 8.56167 13.8144 8.4831 13.4174 8.48273Z" fill="#7CB928"/>
</svg>
