<svg width="20" height="25" viewBox="0 0 20 25" fill="none" xmlns="http://www.w3.org/2000/svg">
<g clip-path="url(#clip0_461_1291)">
<path d="M19.9998 14.8661V0H0.0156177L-0.000186299 14.8661C-0.0168286 16.2044 0.229535 17.5326 0.724616 18.7739C1.2197 20.0151 1.95364 21.1446 2.88388 22.0969C3.81412 23.0492 4.92213 23.8053 6.14366 24.3213C7.36519 24.8374 8.67591 25.1031 9.99981 25.1031C11.3237 25.1031 12.6344 24.8374 13.856 24.3213C15.0775 23.8053 16.1855 23.0492 17.1157 22.0969C18.046 21.1446 18.7799 20.0151 19.275 18.7739C19.7701 17.5326 20.0165 16.2044 19.9998 14.8661ZM10.0069 23.2426C7.81195 23.2392 5.7081 22.355 4.15765 20.7844C2.6072 19.2137 1.737 17.085 1.73826 14.8661L1.75406 1.7654H18.2614V14.8661C18.2637 15.9641 18.0519 17.0518 17.6383 18.067C17.2247 19.0822 16.6172 20.0052 15.8507 20.783C15.0842 21.5609 14.1735 22.1785 13.1709 22.6005C12.1682 23.0225 11.093 23.2407 10.0069 23.2426Z" fill="#7CB928"/>
<path d="M10.001 21.7523C8.79375 21.7523 7.61364 21.3904 6.60988 20.7124C5.60613 20.0343 4.82383 19.0706 4.36191 17.9431C3.9 16.8155 3.77922 15.5748 4.01486 14.3779C4.25049 13.181 4.83195 12.0816 5.6857 11.2187C6.53945 10.3559 7.62714 9.76837 8.81121 9.53047C9.99528 9.29258 11.2225 9.415 12.3378 9.88224C13.453 10.3495 14.4062 11.1406 15.0766 12.1555C15.7471 13.1703 16.1048 14.3634 16.1045 15.5838C16.1024 17.2194 15.4586 18.7874 14.3144 19.9439C13.1702 21.1003 11.6189 21.7507 10.001 21.7523ZM10.001 11.0114C9.10639 11.0114 8.23189 11.2795 7.48807 11.782C6.74425 12.2844 6.16451 12.9985 5.82217 13.834C5.47982 14.6695 5.39025 15.5889 5.56478 16.4759C5.7393 17.3628 6.17009 18.1776 6.80265 18.8171C7.43522 19.4565 8.24116 19.892 9.11856 20.0684C9.99596 20.2449 10.9054 20.1543 11.7319 19.8082C12.5584 19.4622 13.2648 18.8761 13.7618 18.1242C14.2588 17.3722 14.5241 16.4882 14.5241 15.5838C14.5233 14.3714 14.0464 13.2089 13.1984 12.3515C12.3503 11.4942 11.2003 11.0122 10.001 11.0114Z" fill="#7CB928"/>
<path d="M10.001 17.9946C11.3181 17.9946 12.3859 16.9152 12.3859 15.5837C12.3859 14.2522 11.3181 13.1729 10.001 13.1729C8.68394 13.1729 7.61621 14.2522 7.61621 15.5837C7.61621 16.9152 8.68394 17.9946 10.001 17.9946Z" fill="#7CB928"/>
</g>
<defs>
<clipPath id="clip0_461_1291">
<rect width="20" height="25" fill="white"/>
</clipPath>
</defs>
</svg>
