<svg width="31" height="26" viewBox="0 0 31 26" fill="none" xmlns="http://www.w3.org/2000/svg">
<path d="M11.3061 6.93071C11.1113 6.44817 10.7767 6.03487 10.3453 5.74388C9.91389 5.4529 9.40535 5.29752 8.88498 5.29769C8.38996 5.29656 7.90506 5.43775 7.48802 5.70443C7.1455 5.13082 6.63128 4.67945 6.01811 4.41418C5.40495 4.1489 4.72389 4.08316 4.0713 4.22626C3.41872 4.36936 2.82766 4.71405 2.38176 5.21156C1.93586 5.70907 1.65769 6.3342 1.58663 6.9985C1.16929 7.11758 0.809125 7.38363 0.572617 7.74751C0.336109 8.1114 0.239229 8.54857 0.299861 8.97831C0.360493 9.40804 0.574545 9.80134 0.902499 10.0856C1.23045 10.3698 1.65017 10.5258 2.08416 10.5248H11.2262C11.6987 10.529 12.154 10.3469 12.4933 10.0179C12.8326 9.68899 13.0287 9.23965 13.0392 8.76718C13.0498 8.2947 12.8738 7.83709 12.5494 7.49338C12.225 7.14968 11.7784 6.94754 11.3061 6.93071ZM11.2262 10.0781H2.08416C1.74743 10.0783 1.42282 9.95247 1.17416 9.72541C0.925505 9.49835 0.770789 9.18648 0.74044 8.85112C0.710091 8.51576 0.806304 8.18118 1.01016 7.91317C1.21402 7.64516 1.51076 7.46311 1.84205 7.40282L2.05269 6.93192C2.14046 6.35645 2.4095 5.82398 2.8207 5.41193C3.23189 4.99988 3.7638 4.72972 4.33909 4.64075C4.91437 4.55178 5.50304 4.64862 6.0195 4.91721C6.53596 5.18579 6.95329 5.61211 7.2108 6.13418L7.55096 6.21165C7.82374 5.99743 8.144 5.85189 8.48477 5.78731C8.82554 5.72272 9.17685 5.74097 9.50909 5.84053C9.84133 5.94008 10.1448 6.11802 10.3939 6.35936C10.643 6.6007 10.8305 6.89837 10.9405 7.22729L11.0518 7.29993L11.1535 7.37982H11.2298C11.5806 7.39033 11.9135 7.53708 12.158 7.78895C12.4024 8.04082 12.5391 8.37799 12.5391 8.72897C12.5391 9.07995 12.4024 9.41712 12.158 9.66899C11.9135 9.92086 11.5806 10.0676 11.2298 10.0781H11.2262Z" fill="#7CB928"/>
<path d="M11.2266 10.827H2.08457C1.59834 10.8234 1.12843 10.6512 0.755026 10.3397C0.381618 10.0283 0.12784 9.59692 0.0369897 9.11924C-0.053861 8.64156 0.0238442 8.14715 0.256848 7.72037C0.489853 7.29359 0.863719 6.96088 1.31466 6.779C1.42669 6.09908 1.73761 5.46759 2.20821 4.96422C2.6788 4.46086 3.28796 4.10818 3.9588 3.9507C4.62965 3.79322 5.33211 3.83799 5.97753 4.07938C6.62295 4.32076 7.1824 4.74794 7.58527 5.30698C7.93102 5.13461 8.30757 5.03264 8.69306 5.00697C9.07854 4.9813 9.46529 5.03245 9.83085 5.15746C10.1964 5.28247 10.5335 5.47883 10.8225 5.73517C11.1116 5.9915 11.3469 6.30269 11.5147 6.65068C12.0407 6.72482 12.5192 6.99544 12.8538 7.4081C13.1883 7.82075 13.3542 8.34481 13.318 8.87483C13.2818 9.40484 13.0462 9.90148 12.6586 10.2648C12.271 10.6281 11.7602 10.8312 11.229 10.8331L11.2266 10.827ZM4.75381 4.9075C4.17274 4.90998 3.61154 5.1193 3.17078 5.49795C2.73002 5.8766 2.4385 6.39984 2.34847 6.9739L2.34241 7.01384L2.05067 7.66875L1.8933 7.6978C1.63611 7.74466 1.4058 7.88614 1.24773 8.09436C1.08966 8.30258 1.0153 8.56245 1.03929 8.82277C1.06329 9.08309 1.18391 9.32499 1.37738 9.50081C1.57085 9.67662 1.82315 9.77361 2.08457 9.77267H11.2266C11.498 9.76343 11.7552 9.64913 11.9439 9.45388C12.1326 9.25863 12.2381 8.9977 12.2381 8.72615C12.2381 8.4546 12.1326 8.19367 11.9439 7.99842C11.7552 7.80317 11.498 7.68887 11.2266 7.67964H11.045L10.8779 7.54285L10.6903 7.4218L10.6564 7.32132C10.5321 6.95027 10.2939 6.62789 9.97566 6.40011C9.65746 6.17233 9.2755 6.05074 8.88418 6.05267C8.46595 6.04928 8.05905 6.18848 7.73053 6.44731L7.62158 6.53689L7.00421 6.39526L6.94005 6.26573C6.7402 5.85669 6.42907 5.51228 6.04236 5.27204C5.65566 5.03179 5.20906 4.90545 4.75381 4.9075Z" fill="#7CB928"/>
<path d="M18.1925 9.74244C17.2291 9.74244 16.2873 9.45674 15.4862 8.92149C14.6851 8.38623 14.0608 7.62545 13.6921 6.73535C13.3234 5.84525 13.2269 4.86582 13.4149 3.92089C13.6028 2.97597 14.0668 2.108 14.748 1.42675C15.4293 0.745497 16.2973 0.281558 17.2422 0.0936012C18.1871 -0.0943557 19.1665 0.00211064 20.0566 0.370801C20.9467 0.739492 21.7075 1.36385 22.2428 2.16492C22.778 2.96598 23.0637 3.90778 23.0637 4.87122C23.0624 6.16275 22.5488 7.40102 21.6356 8.31427C20.7223 9.22753 19.484 9.74115 18.1925 9.74244ZM18.1925 1.3316C17.4924 1.3316 16.8081 1.53919 16.226 1.92813C15.6439 2.31707 15.1902 2.86988 14.9223 3.51666C14.6544 4.16345 14.5843 4.87515 14.7209 5.56177C14.8575 6.24838 15.1946 6.87908 15.6896 7.37411C16.1846 7.86913 16.8153 8.20625 17.502 8.34283C18.1886 8.4794 18.9003 8.40931 19.5471 8.1414C20.1938 7.8735 20.7467 7.41982 21.1356 6.83773C21.5245 6.25564 21.7321 5.57129 21.7321 4.87122C21.7308 3.93285 21.3575 3.03327 20.694 2.36974C20.0305 1.70621 19.1309 1.33288 18.1925 1.3316Z" fill="#7CB928"/>
<path d="M18.2197 26.0003C14.8302 26.0003 11.4335 25.2437 9.92149 23.7318C8.98211 22.7936 9.31622 20.7611 9.5898 19.1317C9.65154 18.7613 9.70359 18.4417 9.73022 18.1984C9.97233 15.9117 10.9117 13.8102 12.3753 12.2825C13.1287 11.4903 14.0353 10.8596 15.04 10.4286C16.0447 9.99763 17.1265 9.77539 18.2197 9.77539C19.313 9.77539 20.3948 9.99763 21.3995 10.4286C22.4042 10.8596 23.3108 11.4903 24.0642 12.2825C25.5266 13.8102 26.466 15.9141 26.7093 18.1984C26.7347 18.4405 26.788 18.7613 26.8497 19.1317C27.1196 20.766 27.455 22.7985 26.518 23.7318C25.006 25.2437 21.6117 26.0003 18.2197 26.0003ZM18.2197 11.1022C14.4525 11.1022 11.5061 14.0765 11.0546 18.3352C11.0243 18.616 10.9686 18.9538 10.9032 19.3448C10.7422 20.3132 10.4081 22.336 10.8633 22.79C12.0048 23.9327 14.8932 24.6712 18.2197 24.6712C21.5463 24.6712 24.4347 23.9327 25.5762 22.79C26.0314 22.336 25.6973 20.3156 25.5363 19.3448C25.4709 18.9538 25.4152 18.6185 25.3849 18.3352C24.9334 14.0765 21.9869 11.1022 18.2197 11.1022Z" fill="#7CB928"/>
<path d="M28.5068 8.35547H25.2929C25.109 8.35547 24.96 8.50451 24.96 8.68837V8.85905C24.96 9.04291 25.109 9.19195 25.2929 9.19195H28.5068C28.6907 9.19195 28.8397 9.04291 28.8397 8.85905V8.68837C28.8397 8.50451 28.6907 8.35547 28.5068 8.35547Z" fill="#7CB928"/>
<path d="M26.2715 10.2354C25.9237 10.2354 25.7502 10.0566 25.751 9.6991V4.97799C25.751 4.62532 25.9269 4.44939 26.2788 4.4502H28.2362C28.8633 4.4502 29.3475 4.60717 29.6889 4.9211C30.0302 5.23503 30.2009 5.67325 30.2009 6.23575C30.2009 6.80066 30.0302 7.24049 29.6889 7.55524C29.3475 7.86998 28.8633 8.02815 28.2362 8.02977H26.7908V9.6991C26.7908 10.0558 26.6177 10.2346 26.2715 10.2354ZM26.7908 7.20902H28.068C28.8153 7.20902 29.1889 6.88419 29.1889 6.23454C29.1889 5.58488 28.8153 5.26207 28.068 5.2661H26.7908V7.20902Z" fill="#7CB928"/>
</svg>
