<svg width="27" height="33" viewBox="0 0 27 33" fill="none" xmlns="http://www.w3.org/2000/svg">
<path d="M21.5774 11.5342H9.8326C9.59659 11.5342 9.40527 11.7255 9.40527 11.9615C9.40527 12.1975 9.59659 12.3888 9.8326 12.3888H21.5774C21.8134 12.3888 22.0047 12.1975 22.0047 11.9615C22.0047 11.7255 21.8134 11.5342 21.5774 11.5342Z" fill="#7CB928"/>
<path d="M21.5774 14.5654H9.8326C9.59659 14.5654 9.40527 14.7567 9.40527 14.9928C9.40527 15.2288 9.59659 15.4201 9.8326 15.4201H21.5774C21.8134 15.4201 22.0047 15.2288 22.0047 14.9928C22.0047 14.7567 21.8134 14.5654 21.5774 14.5654Z" fill="#7CB928"/>
<path d="M21.5774 17.5977H9.8326C9.59659 17.5977 9.40527 17.789 9.40527 18.025C9.40527 18.261 9.59659 18.4523 9.8326 18.4523H21.5774C21.8134 18.4523 22.0047 18.261 22.0047 18.025C22.0047 17.789 21.8134 17.5977 21.5774 17.5977Z" fill="#7CB928"/>
<path d="M15.8516 20.6299H9.8326C9.59659 20.6299 9.40527 20.8212 9.40527 21.0572C9.40527 21.2932 9.59659 21.4845 9.8326 21.4845H15.8516C16.0876 21.4845 16.2789 21.2932 16.2789 21.0572C16.2789 20.8212 16.0876 20.6299 15.8516 20.6299Z" fill="#7CB928"/>
<path d="M12.8474 32.5498C12.0933 32.5498 11.4102 32.2739 10.1895 31.6607C8.36827 30.7426 6.74715 29.4726 5.41995 27.9239L5.41133 27.9144L3.13864 25.1358C1.88124 23.5344 0.953779 21.6997 0.409882 19.7377C-0.104635 17.8674 -0.164997 17.1881 0.402217 15.9684C0.771097 15.1741 2.81287 13.5012 3.65986 13.2962C4.89681 12.9982 6.17017 14.7774 6.44802 15.1942C6.83128 15.6733 7.95995 17.2063 7.57191 18.2257C7.37166 18.7508 6.89068 19.0756 6.42215 19.3899C6.0389 19.6505 5.63649 19.9207 5.62786 20.1861C5.61158 20.6441 6.74121 22.3428 7.80569 23.6411C8.87018 24.9394 10.315 26.3804 10.7663 26.4551C11.0279 26.4982 11.3719 26.1591 11.7034 25.8314C12.1029 25.4376 12.5159 25.0304 13.0697 24.9365C14.1418 24.7554 15.4276 26.1639 15.8224 26.6333C16.1759 26.9869 17.6716 28.5831 17.136 29.7396C16.769 30.5329 14.7282 32.2058 13.8783 32.4118C13.5414 32.4988 13.1953 32.5451 12.8474 32.5498ZM6.22286 27.2417C7.45835 28.6832 8.96746 29.8654 10.6628 30.7198C12.2763 31.5303 12.6653 31.6175 13.633 31.3828C14.1821 31.2496 15.9469 29.8038 16.1836 29.2912C16.3331 28.9702 15.717 28.0054 15.0664 27.3586L15.0329 27.3222C14.458 26.6391 13.5765 25.9167 13.2488 25.9703C13.0237 26.0086 12.7305 26.298 12.4478 26.5768C11.9774 27.0415 11.3939 27.6202 10.5996 27.4899C9.53704 27.3146 7.56999 25.0074 6.99512 24.3051C6.42024 23.6028 4.54422 21.2247 4.58063 20.1458C4.60841 19.3439 5.2906 18.8821 5.83865 18.517C6.16825 18.2938 6.50934 18.0638 6.59078 17.8463C6.70863 17.5359 6.17304 16.527 5.61445 15.8342L5.58571 15.795C5.07885 15.0285 4.25486 14.238 3.90898 14.3204C3.36093 14.4526 1.59701 15.8984 1.35843 16.412C0.937812 17.3174 0.947393 17.716 1.42646 19.4569C1.93167 21.2869 2.79465 22.9985 3.96551 24.4929L6.22286 27.2417Z" fill="#7CB928"/>
<path d="M25.1151 27.1793H17.521V26.1254H25.1151C25.3354 26.1251 25.5465 26.0375 25.7022 25.8818C25.858 25.726 25.9456 25.5149 25.9458 25.2947V8.61072L21.0594 7.82601C20.6674 7.76384 20.3052 7.57929 20.0245 7.29878C19.7438 7.01826 19.5591 6.65615 19.4967 6.26426L18.6957 1.27336C18.6838 1.20072 18.6761 1.12746 18.6727 1.05394H6.74009C6.51969 1.05394 6.3083 1.14143 6.15236 1.29719C5.99642 1.45295 5.90869 1.66424 5.90844 1.88464V12.3886H4.85449V1.88464C4.85525 1.38487 5.05419 0.905803 5.40767 0.552501C5.76115 0.199199 6.24032 0.000506803 6.74009 0L20.0102 0L19.7707 0.698478C19.727 0.829941 19.7165 0.970136 19.74 1.10664L20.541 6.09659C20.5685 6.26939 20.65 6.42906 20.7737 6.55279C20.8974 6.67652 21.0571 6.75796 21.2299 6.78548L26.2208 7.58648C26.2908 7.59823 26.3619 7.60145 26.4326 7.59606L26.9998 7.55295V25.2947C26.9993 25.7943 26.8005 26.2734 26.4472 26.6267C26.0939 26.9801 25.6148 27.1788 25.1151 27.1793Z" fill="#7CB928"/>
<path d="M26.9996 9.44334L18.0459 0H20.0685L26.9996 7.33162V9.44334Z" fill="#7CB928"/>
</svg>
