<svg width="30" height="26" viewBox="0 0 30 26" fill="none" xmlns="http://www.w3.org/2000/svg">
<path d="M14.9098 26C7.99252 26 2.36426 20.1681 2.36426 13.0004C2.36426 5.83259 7.99322 0 14.9098 0C21.8263 0 27.4553 5.83189 27.4553 13.0004C27.4553 20.1688 21.8277 26 14.9098 26ZM14.9098 0.769748C8.41658 0.769748 3.13401 6.25596 3.13401 13.0004C3.13401 19.7447 8.41658 25.2303 14.9098 25.2303C21.4029 25.2303 26.6855 19.744 26.6855 13.0004C26.6855 6.25665 21.4029 0.769748 14.9098 0.769748Z" fill="#7CB928"/>
<path d="M20.0309 15.9375H9.18442C8.96877 15.9375 8.79395 16.1123 8.79395 16.328V16.7772C8.79395 16.9929 8.96877 17.1677 9.18442 17.1677H20.0309C20.2465 17.1677 20.4213 16.9929 20.4213 16.7772V16.328C20.4213 16.1123 20.2465 15.9375 20.0309 15.9375Z" fill="#7CB928"/>
<path d="M11.7202 21.2413C11.1138 21.2413 10.8105 20.9231 10.8105 20.2868V6.36764C10.8105 5.74625 11.1212 5.43555 11.7426 5.43555H17.0028C18.6902 5.43555 19.9813 5.84235 20.8761 6.65595C21.7708 7.46955 22.2185 8.63303 22.2189 10.1464C22.2189 11.6393 21.7713 12.7971 20.8761 13.6201C19.9808 14.443 18.6897 14.8535 17.0028 14.8517H12.6307V20.2896C12.6307 20.9245 12.3272 21.2417 11.7202 21.2413ZM12.63 13.3178H16.7803C19.2062 13.3178 20.4191 12.2597 20.4191 10.1436C20.4191 8.01257 19.2062 6.94705 16.7803 6.94705H12.6307L12.63 13.3178Z" fill="#7CB928"/>
<path d="M29.4992 3.51229L29.4988 3.5117C29.3209 3.23827 28.9551 3.16077 28.6817 3.33861L0.494983 21.6712C0.22155 21.8491 0.144054 22.2149 0.321897 22.4884L0.322279 22.4889C0.500122 22.7624 0.865958 22.8399 1.13939 22.662L29.3261 4.3294C29.5995 4.15156 29.677 3.78573 29.4992 3.51229Z" fill="#7CB928"/>
</svg>
