<svg width="28" height="31" viewBox="0 0 28 31" fill="none" xmlns="http://www.w3.org/2000/svg">
<path d="M23.3639 18.8128L22.5855 18.171C23.8266 16.662 24.6218 14.8365 24.8816 12.9001C25.1415 10.9637 24.8556 8.99313 24.0562 7.21036C23.2567 5.4276 21.9755 3.90339 20.3568 2.80933C18.738 1.71527 16.846 1.09481 14.8937 1.0178C12.9414 0.940787 11.0064 1.41028 9.30653 2.37343C7.60663 3.33658 6.20933 4.75513 5.27197 6.46938C4.3346 8.18364 3.89438 10.1255 4.00086 12.0764C4.10734 14.0273 4.7563 15.9097 5.87468 17.5118L5.04954 18.0894C3.82337 16.3335 3.11172 14.2702 2.99472 12.1317C2.87772 9.99327 3.36003 7.86462 4.38732 5.98544C5.41462 4.10626 6.94612 2.55118 8.80938 1.49528C10.6726 0.439387 12.7937 -0.0753873 14.9337 0.00891821C17.0737 0.0932237 19.1476 0.773261 20.922 1.97246C22.6965 3.17166 24.1009 4.84241 24.9772 6.79658C25.8534 8.75075 26.1668 10.9107 25.8819 13.0334C25.5971 15.156 24.7253 17.1569 23.3648 18.8109L23.3639 18.8128Z" fill="#7CB928"/>
<path d="M8.90137 30.9997L6.3132 25.265L0 25.0624L5.45231 16.9092L5.87496 17.5115C6.80239 18.8394 8.02455 19.9346 9.44578 20.7114C10.867 21.4883 12.4487 21.9256 14.0672 21.9893C15.6856 22.0529 17.2968 21.7412 18.7746 21.0784C20.2525 20.4156 21.5569 19.4198 22.5858 18.1689L23.0167 17.6454L27.9757 25.0606L21.6616 25.2632L19.0698 30.9997L13.9842 23.7679L8.90137 30.9997ZM14.6847 23.006L18.8864 28.9717L21.0061 24.2749L26.1293 24.1126L22.9204 19.3186C21.8686 20.4586 20.5964 21.3732 19.1807 22.007C17.7651 22.6408 16.2355 22.9807 14.6847 23.006ZM1.8483 24.1126L6.97422 24.2767L9.0939 28.9717L13.3305 22.9483C11.8041 22.7937 10.324 22.3359 8.9768 21.6018C7.62965 20.8677 6.44262 19.872 5.48531 18.6731L1.8483 24.1126Z" fill="#7CB928"/>
<path d="M12.8763 16.3101L7.93555 12.3953L8.56265 11.6041L12.7837 14.9505L19.3637 8.0918L20.0916 8.78949L12.8763 16.3101Z" fill="#7CB928"/>
</svg>
