<svg width="17" height="16" viewBox="0 0 17 16" fill="none" xmlns="http://www.w3.org/2000/svg">
<path d="M10.5323 14.1587H6.14337C6.05879 14.1587 5.99023 14.2522 5.99023 14.3675V15.2912C5.99023 15.4065 6.05879 15.5 6.14337 15.5H10.5323C10.6169 15.5 10.6854 15.4065 10.6854 15.2912V14.3675C10.6854 14.2522 10.6169 14.1587 10.5323 14.1587Z" fill="#7CB928"/>
<path d="M14.8336 0.5H1.84001C1.35212 0.500861 0.884402 0.765575 0.539456 1.23607C0.19451 1.70657 0.000504916 2.34443 0 3.00973L0 10.5558C0 11.5908 0.665019 13.076 1.53088 13.0831L14.8336 13.0649C15.3215 13.0642 15.7893 12.7997 16.1343 12.3293C16.4794 11.8589 16.6735 11.2211 16.6741 10.5558V3.00973C16.6735 2.34437 16.4794 1.70651 16.1344 1.23603C15.7893 0.765554 15.3216 0.500861 14.8336 0.5V0.5ZM15.7143 10.5539C15.7139 10.8721 15.621 11.1772 15.4559 11.4022C15.2908 11.6272 15.067 11.7538 14.8336 11.7541L1.51704 11.6689C1.35246 11.5815 1.21113 11.4282 1.11167 11.2292C1.01221 11.0302 0.959274 10.7947 0.959841 10.5539V3.00778C0.960471 2.68984 1.05344 2.3852 1.21839 2.1605C1.38335 1.93581 1.60686 1.80937 1.84001 1.80886H14.8336C15.0671 1.8092 15.291 1.93583 15.4561 2.16096C15.6212 2.3861 15.714 2.69134 15.7143 3.00973V10.5539Z" fill="#7CB928"/>
</svg>
