<svg width="12" height="14" viewBox="0 0 12 14" fill="none" xmlns="http://www.w3.org/2000/svg">
<path d="M12 8.58805V0.649414H0.00946004L3.00107e-07 8.58805C-0.000502816 10.0219 0.6316 11.3972 1.75745 12.412C2.88329 13.4267 4.41081 13.9979 6.00442 14C9.32163 14 12 11.5726 12 8.58805ZM6.00442 13.0615C4.6874 13.0595 3.42511 12.5873 2.49484 11.7485C1.56458 10.9097 1.04242 9.77299 1.04309 8.58805L1.05255 1.58791H10.9569V8.58805C10.9583 9.17439 10.8313 9.75523 10.5832 10.2974C10.335 10.8396 9.97059 11.3324 9.51068 11.7479C9.05078 12.1633 8.50441 12.4931 7.9028 12.7185C7.30118 12.9439 6.6561 13.0605 6.00442 13.0615Z" fill="#7CB928"/>
<path d="M6.00008 12.2659C5.27577 12.2659 4.56772 12.0726 3.96548 11.7106C3.36323 11.3486 2.89384 10.834 2.61666 10.2319C2.33948 9.62989 2.26695 8.96742 2.40826 8.32829C2.54957 7.68916 2.89836 7.10208 3.41052 6.6413C3.92269 6.18051 4.57523 5.86671 5.28562 5.73958C5.99602 5.61245 6.73236 5.6777 7.40154 5.92707C8.07072 6.17645 8.64267 6.59875 9.04508 7.14058C9.44748 7.6824 9.66227 8.31942 9.66227 8.97107C9.6611 9.84458 9.27489 10.682 8.58835 11.2997C7.90181 11.9174 6.97099 12.2648 6.00008 12.2659ZM6.00008 6.52905C5.46374 6.52905 4.93944 6.67214 4.49349 6.94022C4.04753 7.20831 3.69996 7.58934 3.49471 8.03515C3.28946 8.48095 3.23575 8.97151 3.34039 9.44477C3.44502 9.91804 3.7033 10.3528 4.08255 10.694C4.4618 11.0352 4.945 11.2675 5.47103 11.3617C5.99707 11.4558 6.54232 11.4075 7.03784 11.2228C7.53336 11.0382 7.95688 10.7255 8.25486 10.3243C8.55283 9.92304 8.71188 9.45134 8.71188 8.9688C8.71054 8.32211 8.42441 7.70224 7.91614 7.24496C7.40787 6.78768 6.71888 6.53025 6.00008 6.52905Z" fill="#7CB928"/>
<path d="M5.9993 10.2585C6.78958 10.2585 7.43024 9.68212 7.43024 8.97107C7.43024 8.26002 6.78958 7.68359 5.9993 7.68359C5.20901 7.68359 4.56836 8.26002 4.56836 8.97107C4.56836 9.68212 5.20901 10.2585 5.9993 10.2585Z" fill="#7CB928"/>
</svg>
