<svg width="17" height="16" viewBox="0 0 17 16" fill="none" xmlns="http://www.w3.org/2000/svg">
<path d="M8.49979 5.10059C7.84313 5.10059 7.20123 5.27061 6.65524 5.58916C6.10925 5.90771 5.68371 6.36048 5.43242 6.89022C5.18113 7.41995 5.11538 8.00285 5.24348 8.56521C5.37159 9.12757 5.6878 9.64413 6.15212 10.0496C6.61645 10.455 7.20803 10.7311 7.85207 10.843C8.4961 10.9548 9.16367 10.8974 9.77033 10.678C10.377 10.4586 10.8955 10.087 11.2603 9.61026C11.6252 9.13351 11.8199 8.57301 11.8199 7.99963C11.8199 7.23076 11.4701 6.49337 10.8475 5.9497C10.2248 5.40602 9.38033 5.10059 8.49979 5.10059ZM8.49979 10.2033C8.00064 10.2033 7.5127 10.0741 7.09767 9.83193C6.68265 9.58978 6.35917 9.24562 6.16816 8.84295C5.97714 8.44027 5.92716 7.99719 6.02454 7.56972C6.12192 7.14224 6.36228 6.74959 6.71524 6.4414C7.06819 6.13321 7.51787 5.92333 8.00743 5.8383C8.49699 5.75327 9.00443 5.79691 9.46558 5.9637C9.92673 6.13049 10.3209 6.41294 10.5982 6.77533C10.8755 7.13773 11.0235 7.56379 11.0235 7.99963C11.0235 8.28902 10.9582 8.57558 10.8314 8.84295C10.7046 9.11031 10.5187 9.35324 10.2843 9.55787C10.05 9.7625 9.77177 9.92482 9.46558 10.0356C9.15939 10.1463 8.83121 10.2033 8.49979 10.2033Z" fill="#7CB928"/>
<path d="M16.0699 6.14395H14.8838C14.8563 6.14384 14.8296 6.13629 14.8072 6.12234C14.7849 6.1084 14.768 6.08874 14.759 6.06609C14.6815 5.8746 14.5922 5.68693 14.4914 5.5039C14.4791 5.48228 14.4747 5.45783 14.479 5.43396C14.4834 5.41009 14.4961 5.38799 14.5155 5.37075L15.3538 4.63726C15.4401 4.56191 15.5086 4.47245 15.5553 4.37398C15.6021 4.27551 15.6261 4.16997 15.6261 4.06339C15.6261 3.9568 15.6021 3.85126 15.5553 3.75279C15.5086 3.65433 15.4401 3.56486 15.3538 3.48952L13.6594 2.01474C13.5731 1.93936 13.4706 1.87955 13.3579 1.83875C13.2451 1.79795 13.1242 1.77695 13.0022 1.77695C12.8801 1.77695 12.7592 1.79795 12.6464 1.83875C12.5337 1.87955 12.4312 1.93936 12.3449 2.01474L11.5066 2.7459C11.487 2.76294 11.4616 2.77414 11.4343 2.77791C11.4069 2.78169 11.3789 2.77784 11.3541 2.76693C11.144 2.67941 10.9288 2.60144 10.7094 2.53333C10.6834 2.52544 10.6609 2.51072 10.645 2.4912C10.629 2.47167 10.6203 2.44831 10.6202 2.42432V1.38948C10.62 1.17503 10.5226 0.969367 10.3494 0.817364C10.1761 0.66536 9.94103 0.579359 9.69543 0.578125L7.30457 0.578125C7.05804 0.578125 6.82159 0.663582 6.64719 0.815719C6.47278 0.967856 6.37468 1.17423 6.37444 1.38948V2.4251C6.37458 2.44914 6.36603 2.47261 6.35003 2.49218C6.33402 2.51175 6.31136 2.52642 6.28526 2.53411C6.06611 2.60208 5.85119 2.68006 5.6414 2.7677C5.6167 2.77874 5.58863 2.78265 5.56123 2.77887C5.53383 2.77509 5.50851 2.76382 5.4889 2.74668L4.64885 2.01552C4.56255 1.94014 4.46009 1.88033 4.34732 1.83953C4.23455 1.79873 4.11368 1.77773 3.99161 1.77773C3.86954 1.77773 3.74866 1.79873 3.63589 1.83953C3.52312 1.88033 3.42066 1.94014 3.33436 2.01552L1.64533 3.49497C1.55899 3.57031 1.4905 3.65978 1.44377 3.75824C1.39705 3.85671 1.37299 3.96225 1.37299 4.06884C1.37299 4.17542 1.39705 4.28096 1.44377 4.37943C1.4905 4.4779 1.55899 4.56736 1.64533 4.64271L2.48272 5.37464C2.50235 5.39176 2.51526 5.41387 2.51958 5.43779C2.52391 5.46172 2.51943 5.48623 2.50679 5.50779C2.40641 5.69097 2.31711 5.87863 2.23926 6.06998C2.23045 6.09277 2.21365 6.11255 2.19124 6.12653C2.16883 6.1405 2.14195 6.14796 2.11441 6.14785H0.929235C0.683475 6.14805 0.447795 6.23317 0.273683 6.38461C0.0995707 6.53605 0.00117803 6.74151 0 6.95609L0 9.04366C0.000236105 9.25879 0.0982132 9.46504 0.272427 9.61716C0.446641 9.76927 0.682859 9.85482 0.929235 9.85502H2.1153C2.14278 9.85514 2.16954 9.86269 2.1919 9.87663C2.21426 9.89058 2.23112 9.91023 2.24015 9.93289C2.31816 10.1244 2.40746 10.3124 2.50769 10.4959C2.52019 10.5174 2.52459 10.5419 2.52027 10.5658C2.51595 10.5897 2.50312 10.6118 2.48361 10.629L1.64623 11.3617C1.55989 11.4371 1.4914 11.5265 1.44467 11.625C1.39794 11.7235 1.37389 11.829 1.37389 11.9356C1.37389 12.0422 1.39794 12.1477 1.44467 12.2462C1.4914 12.3446 1.55989 12.4341 1.64623 12.5095L3.34061 13.985C3.42684 14.0605 3.52928 14.1204 3.64206 14.1612C3.75484 14.2021 3.87575 14.2231 3.99785 14.2231C4.11995 14.2231 4.24086 14.2021 4.35364 14.1612C4.46642 14.1204 4.56886 14.0605 4.65509 13.985L5.49336 13.2539C5.51296 13.2367 5.53829 13.2254 5.56569 13.2217C5.59309 13.2179 5.62116 13.2218 5.64586 13.2328C5.85565 13.3205 6.07057 13.3985 6.28972 13.4664C6.31582 13.4741 6.33848 13.4888 6.35449 13.5084C6.37049 13.5279 6.37904 13.5514 6.3789 13.5754V14.6095C6.3789 14.7161 6.40296 14.8218 6.4497 14.9203C6.49645 15.0188 6.56496 15.1083 6.65133 15.1838C6.7377 15.2592 6.84024 15.319 6.95308 15.3598C7.06593 15.4006 7.18688 15.4216 7.30903 15.4216H9.69989C9.94642 15.4214 10.1828 15.3358 10.357 15.1835C10.5313 15.0312 10.6291 14.8247 10.6291 14.6095V13.5739C10.6295 13.5499 10.6383 13.5267 10.6542 13.5072C10.6701 13.4877 10.6925 13.473 10.7183 13.4649C10.9378 13.3971 11.1531 13.3191 11.3631 13.2313C11.3878 13.2205 11.4158 13.2167 11.4432 13.2205C11.4705 13.2242 11.4958 13.2354 11.5156 13.2523L12.3547 13.9842C12.441 14.0596 12.5435 14.1194 12.6562 14.1602C12.769 14.201 12.8899 14.222 13.012 14.222C13.134 14.222 13.2549 14.201 13.3677 14.1602C13.4804 14.1194 13.5829 14.0596 13.6692 13.9842L15.3591 12.5048C15.4456 12.4295 15.5142 12.34 15.561 12.2416C15.6077 12.1431 15.6318 12.0375 15.6318 11.9309C15.6318 11.8243 15.6077 11.7187 15.561 11.6203C15.5142 11.5218 15.4456 11.4323 15.3591 11.357L14.5217 10.6251C14.5022 10.6079 14.4894 10.5858 14.4851 10.5619C14.4808 10.538 14.4852 10.5136 14.4977 10.492C14.5979 10.3085 14.6872 10.1206 14.7652 9.929C14.7742 9.90634 14.7911 9.88668 14.8135 9.87274C14.8358 9.8588 14.8626 9.85124 14.89 9.85113H16.0699C16.3164 9.85113 16.5529 9.76567 16.7273 9.61354C16.9017 9.4614 16.9998 9.25503 17 9.03977V6.95609C17 6.84944 16.9759 6.74383 16.9292 6.6453C16.8825 6.54677 16.8139 6.45724 16.7276 6.38182C16.6412 6.30641 16.5387 6.24659 16.4258 6.20577C16.313 6.16496 16.192 6.14395 16.0699 6.14395ZM16.2027 9.04366C16.2027 9.07444 16.1887 9.10395 16.1638 9.1257C16.1389 9.14746 16.1051 9.15968 16.0699 9.15968H14.8838C14.6909 9.15978 14.5029 9.21231 14.3458 9.30999C14.1887 9.40767 14.0704 9.54564 14.0072 9.70474C13.9397 9.8729 13.8617 10.0377 13.7735 10.1984C13.6894 10.3502 13.6613 10.521 13.6932 10.6873C13.7252 10.8536 13.8156 11.0071 13.9519 11.1266L14.7902 11.8585C14.8025 11.8692 14.8123 11.882 14.819 11.896C14.8257 11.91 14.8291 11.9251 14.8291 11.9403C14.8291 11.9555 14.8257 11.9705 14.819 11.9845C14.8123 11.9986 14.8025 12.0113 14.7902 12.022L13.1011 13.4952C13.0889 13.506 13.0743 13.5146 13.0582 13.5204C13.0421 13.5263 13.0249 13.5293 13.0075 13.5293C12.9901 13.5293 12.9729 13.5263 12.9568 13.5204C12.9407 13.5146 12.9261 13.506 12.9139 13.4952L12.0756 12.7641C11.9389 12.6449 11.7631 12.5658 11.5726 12.5379C11.3821 12.51 11.1863 12.5346 11.0126 12.6083C10.828 12.6849 10.639 12.753 10.4463 12.8124C10.264 12.8674 10.1059 12.9707 9.99404 13.1079C9.88215 13.2451 9.82204 13.4094 9.82206 13.5778V14.6095C9.82206 14.6403 9.80806 14.6698 9.78315 14.6915C9.75823 14.7133 9.72443 14.7255 9.68919 14.7255H7.30457C7.26933 14.7255 7.23553 14.7133 7.21061 14.6915C7.18569 14.6698 7.17169 14.6403 7.17169 14.6095V13.5739C7.17146 13.4055 7.11124 13.2414 6.99939 13.1042C6.88754 12.9671 6.72959 12.8637 6.54745 12.8085C6.35463 12.7494 6.16559 12.6813 5.98117 12.6045C5.80753 12.5309 5.61197 12.5064 5.42164 12.5343C5.23131 12.5622 5.05565 12.6411 4.91906 12.7602L4.08078 13.4921C4.06852 13.5029 4.05393 13.5115 4.03786 13.5173C4.02179 13.5231 4.00455 13.5261 3.98715 13.5261C3.96974 13.5261 3.95251 13.5231 3.93644 13.5173C3.92037 13.5115 3.90578 13.5029 3.89351 13.4921L2.20716 12.0181C2.19481 12.0074 2.18501 11.9947 2.17832 11.9806C2.17163 11.9666 2.16819 11.9516 2.16819 11.9364C2.16819 11.9212 2.17163 11.9061 2.17832 11.8921C2.18501 11.8781 2.19481 11.8653 2.20716 11.8546L3.04543 11.1227C3.18173 11.0032 3.27212 10.8497 3.30408 10.6834C3.33603 10.5171 3.30797 10.3463 3.22378 10.1945C3.13578 10.0335 3.05778 9.86843 2.99014 9.70007C2.92589 9.54209 2.80723 9.40535 2.65044 9.30859C2.49365 9.21184 2.30641 9.15983 2.11441 9.15968H0.929235C0.894149 9.15948 0.86058 9.14717 0.835854 9.12543C0.811127 9.10369 0.79725 9.0743 0.797251 9.04366V6.95609C0.79725 6.92545 0.811127 6.89606 0.835854 6.87433C0.86058 6.85259 0.894149 6.84028 0.929235 6.84007H2.1153C2.30813 6.83986 2.49611 6.78729 2.65318 6.68962C2.81025 6.59196 2.92863 6.45405 2.99192 6.29501C3.06089 6.12682 3.13877 5.96201 3.22557 5.80057C3.30995 5.64898 3.33812 5.4782 3.30615 5.31199C3.27418 5.14577 3.18367 4.99239 3.04721 4.87319L2.20983 4.14125C2.19748 4.13054 2.18768 4.1178 2.18099 4.10377C2.1743 4.08974 2.17086 4.07469 2.17086 4.05949C2.17086 4.04429 2.1743 4.02925 2.18099 4.01521C2.18768 4.00118 2.19748 3.98844 2.20983 3.97773L3.89797 2.5053C3.91024 2.49451 3.92483 2.48596 3.9409 2.48012C3.95697 2.47428 3.9742 2.47127 3.99161 2.47127C4.00901 2.47127 4.02625 2.47428 4.04232 2.48012C4.05839 2.48596 4.07298 2.49451 4.08524 2.5053L4.92352 3.23723C5.06011 3.35628 5.23577 3.43524 5.4261 3.46315C5.61643 3.49106 5.81199 3.46653 5.98563 3.39296C6.17035 3.31612 6.35968 3.24802 6.5528 3.18896C6.73373 3.13286 6.89034 3.02925 7.00115 2.89235C7.11196 2.75545 7.17153 2.59196 7.17169 2.42432V1.38948C7.17193 1.35885 7.18603 1.32954 7.21093 1.30795C7.23582 1.28636 7.26948 1.27424 7.30457 1.27424H9.69543C9.73052 1.27424 9.76418 1.28636 9.78907 1.30795C9.81397 1.32954 9.82807 1.35885 9.82831 1.38948V2.4251C9.82841 2.59349 9.88858 2.75767 10.0004 2.89484C10.1123 3.03201 10.2703 3.13535 10.4526 3.19051C10.6448 3.25011 10.8336 3.3182 11.0179 3.39452C11.1917 3.46826 11.3874 3.49289 11.5779 3.46498C11.7685 3.43707 11.9443 3.35801 12.0809 3.23879L12.9192 2.50763C12.9315 2.49685 12.9461 2.48829 12.9621 2.48245C12.9782 2.47661 12.9954 2.47361 13.0129 2.47361C13.0303 2.47361 13.0475 2.47661 13.0636 2.48245C13.0796 2.48829 13.0942 2.49685 13.1065 2.50763L14.8009 3.98708C14.8132 3.99779 14.823 4.01053 14.8297 4.02456C14.8364 4.03859 14.8398 4.05364 14.8398 4.06884C14.8398 4.08403 14.8364 4.09908 14.8297 4.11311C14.823 4.12715 14.8132 4.13988 14.8009 4.1506L13.9635 4.88253C13.827 5.00186 13.7364 5.15537 13.7044 5.32172C13.6725 5.48807 13.7007 5.65899 13.7851 5.81069C13.8729 5.97207 13.9509 6.13737 14.0188 6.30591C14.082 6.46502 14.2003 6.60299 14.3574 6.70067C14.5145 6.79835 14.7025 6.85088 14.8954 6.85097H16.0699C16.1044 6.85095 16.1375 6.86264 16.1623 6.88356C16.1871 6.90449 16.2016 6.93301 16.2027 6.9631V9.04366Z" fill="#7CB928"/>
</svg>
