<svg width="14" height="16" viewBox="0 0 14 16" fill="none" xmlns="http://www.w3.org/2000/svg">
<path d="M4.70109 8.80213C4.68908 8.77836 4.66915 8.7583 4.6439 8.74456C3.67085 8.18183 2.98457 7.31224 2.72864 6.31767C2.4727 5.3231 2.66693 4.28061 3.2707 3.40826C3.60186 2.92903 4.04466 2.51597 4.57036 2.19587C4.59094 2.18504 4.60845 2.17029 4.62159 2.15272C4.63473 2.13515 4.64316 2.11521 4.64625 2.0944C4.64934 2.07359 4.64701 2.05243 4.63943 2.03252C4.63186 2.0126 4.61923 1.99443 4.6025 1.97937C4.46251 1.8628 4.32198 1.74717 4.18199 1.63108C4.15679 1.61016 4.12461 1.5968 4.09013 1.59295C4.05565 1.5891 4.02066 1.59495 3.99025 1.60966C2.87538 2.30768 2.10608 3.34992 1.83834 4.52507C1.5706 5.70022 1.82445 6.92034 2.54842 7.93805C2.94313 8.48761 3.46054 8.96209 4.06978 9.33315C4.10002 9.34839 4.13515 9.35455 4.16978 9.35068C4.20441 9.34681 4.23664 9.33313 4.26152 9.31174C4.39987 9.19405 4.53805 9.07684 4.67604 8.96011C4.70085 8.94061 4.7171 8.91416 4.72198 8.88532C4.72685 8.85648 4.72004 8.82706 4.70273 8.80213H4.70109Z" fill="#7CB928"/>
<path d="M9.00209 8.80213C9.01411 8.77836 9.03404 8.7583 9.05928 8.74456C10.0323 8.18183 10.7186 7.31224 10.9745 6.31767C11.2304 5.3231 11.0362 4.28061 10.4325 3.40826C10.1013 2.92903 9.65851 2.51597 9.13282 2.19587C9.11224 2.18504 9.09473 2.17029 9.08159 2.15272C9.06846 2.13515 9.06003 2.11521 9.05694 2.0944C9.05385 2.07359 9.05618 2.05243 9.06375 2.03252C9.07133 2.0126 9.08395 1.99443 9.10068 1.97937C9.24067 1.8628 9.3812 1.74717 9.52119 1.63108C9.54638 1.61016 9.57856 1.5968 9.61304 1.59295C9.64752 1.5891 9.68251 1.59495 9.71292 1.60966C10.8278 2.30768 11.5971 3.34992 11.8648 4.52507C12.1325 5.70022 11.8787 6.92034 11.1547 7.93805C10.76 8.48761 10.2426 8.96209 9.63339 9.33315C9.60315 9.34839 9.56803 9.35455 9.53339 9.35068C9.49876 9.34681 9.46654 9.33313 9.44166 9.31174C9.30331 9.19405 9.16514 9.07684 9.02715 8.96011C9.00233 8.94061 8.98608 8.91416 8.98121 8.88532C8.97634 8.85648 8.98315 8.82706 9.00046 8.80213H9.00209Z" fill="#7CB928"/>
<path d="M3.33605 9.61105C3.33277 9.60233 3.32857 9.59389 3.32352 9.58584C3.30977 9.56237 3.28955 9.54226 3.26469 9.52731C2.11346 8.79097 1.31277 7.71025 1.01531 6.49126C0.717846 5.27226 0.944419 4.00027 1.65182 2.91785C2.03922 2.32677 2.55773 1.80913 3.17699 1.39527C3.25489 1.3434 3.29084 1.24586 3.20913 1.1783L2.97763 0.987974C2.89701 0.918506 2.80278 0.808594 2.68131 0.808594C2.57237 0.808594 2.4558 0.915175 2.37355 0.969893C2.2913 1.02461 2.19598 1.0898 2.10992 1.15213C1.9452 1.2714 1.78809 1.39848 1.63929 1.53277C1.06005 2.05952 0.622246 2.69225 0.357605 3.3851C0.0777376 4.13678 -0.0395546 4.92739 0.0117179 5.71656C0.0569507 6.52647 0.294598 7.3193 0.709553 8.04466C1.12451 8.77001 1.70769 9.41201 2.42203 9.92985C2.51082 9.9936 2.60179 10.0559 2.69438 10.1168C2.72463 10.1321 2.75975 10.1382 2.79439 10.1344C2.82902 10.1305 2.86124 10.1168 2.88612 10.0954L3.29628 9.7438C3.30038 9.74056 3.3042 9.73706 3.30772 9.73334C3.30984 9.7308 3.31166 9.72809 3.31317 9.72525C3.31317 9.72525 3.31317 9.72144 3.31807 9.71906C3.32297 9.71668 3.31807 9.71906 3.31807 9.71906C3.31807 9.71906 3.32352 9.70955 3.32624 9.70479C3.32896 9.70003 3.32624 9.70479 3.32624 9.70479C3.32624 9.69955 3.33005 9.69527 3.33223 9.69099C3.33986 9.66961 3.33986 9.64671 3.33223 9.62533L3.33605 9.61105Z" fill="#7CB928"/>
<path d="M7.00132 4.70408C6.80786 4.70445 6.61993 4.76049 6.46659 4.86353C6.31324 4.96656 6.20303 5.11086 6.153 5.2741C6.10296 5.43734 6.11588 5.61044 6.18977 5.76662C6.26366 5.9228 6.39439 6.05337 6.56175 6.13814V15.1917H7.44088V6.13814C7.60879 6.05358 7.74005 5.92298 7.8143 5.76661C7.88856 5.61023 7.90165 5.43682 7.85156 5.27327C7.80146 5.10973 7.69098 4.9652 7.53724 4.86211C7.38351 4.75903 7.19513 4.70314 7.00132 4.70312V4.70408Z" fill="#7CB928"/>
<path d="M13.6446 3.38463C13.3114 2.51154 12.704 1.73781 11.8918 1.15165C11.8057 1.08821 11.7178 1.02762 11.6281 0.969893C11.5459 0.915175 11.4271 0.808594 11.3204 0.808594C11.1989 0.808594 11.1025 0.91803 11.0241 0.985119L10.7926 1.17544C10.7114 1.24253 10.7474 1.34055 10.8247 1.39241C11.7092 1.98208 12.3817 2.78091 12.7623 3.69422C13.143 4.60753 13.2159 5.59703 12.9724 6.54543C12.66 7.7401 11.8676 8.79737 10.7392 9.52543C10.7148 9.54087 10.6947 9.56087 10.6804 9.58396C10.6754 9.59221 10.6712 9.60081 10.6678 9.60965V9.61489C10.6602 9.63627 10.6602 9.65917 10.6678 9.68055C10.6692 9.68528 10.671 9.6899 10.6733 9.69435C10.6733 9.69958 10.6787 9.70386 10.6814 9.70862C10.6842 9.71338 10.6814 9.70862 10.6814 9.711L10.6858 9.71718C10.6873 9.71997 10.6894 9.72254 10.6918 9.7248C10.6918 9.7248 10.6918 9.7248 10.6918 9.72718C10.6953 9.7309 10.6991 9.7344 10.7032 9.73764L11.1134 10.0893C11.1382 10.1107 11.1704 10.1245 11.205 10.1285C11.2397 10.1324 11.2748 10.1263 11.3051 10.1112C11.3972 10.0503 11.4881 9.98792 11.5775 9.92369C12.2921 9.40617 12.8755 8.76431 13.2905 8.03898C13.7054 7.31366 13.9429 6.52078 13.9878 5.71086C14.0389 4.92359 13.9226 4.13485 13.6446 3.38463Z" fill="#7CB928"/>
</svg>
