<svg width="15" height="14" viewBox="0 0 15 14" fill="none" xmlns="http://www.w3.org/2000/svg">
<path d="M12.7663 13.1118H1.72981C1.27119 13.1114 0.831482 12.9521 0.507183 12.669C0.182885 12.3858 0.000482174 12.0019 0 11.6014L0 2.39861C0.000321438 1.99807 0.182653 1.61401 0.506969 1.33073C0.831285 1.04745 1.27108 0.888117 1.72981 0.887695L12.7663 0.887695C13.225 0.888116 13.6649 1.04744 13.9893 1.3307C14.3137 1.61396 14.4962 1.99802 14.4967 2.39861V11.6014C14.4962 12.002 14.3137 12.386 13.9893 12.6692C13.6648 12.9523 13.225 13.1115 12.7663 13.1118ZM1.72981 1.67549C1.51032 1.67577 1.29992 1.75207 1.14478 1.88763C0.98963 2.0232 0.902408 2.20696 0.902247 2.39861V11.6014C0.902569 11.793 0.989861 11.9766 1.14499 12.1121C1.30012 12.2475 1.51043 12.3237 1.72981 12.324H12.7663C12.9857 12.3239 13.1962 12.2477 13.3515 12.1123C13.5067 11.9768 13.5941 11.7931 13.5944 11.6014V2.39861C13.5941 2.20692 13.5067 2.02315 13.3515 1.8876C13.1963 1.75205 12.9858 1.67577 12.7663 1.67549H1.72981Z" fill="#7CB928"/>
<path d="M3.62107 11.7415H3.11652C2.67007 11.7409 2.24207 11.5859 1.92627 11.3103C1.61047 11.0348 1.4326 10.6612 1.43164 10.2714V3.72994C1.43212 3.33989 1.60979 2.96595 1.92566 2.69014C2.24153 2.41434 2.66981 2.25921 3.11652 2.25879H3.62107C4.06778 2.25921 4.49606 2.41434 4.81193 2.69014C5.1278 2.96595 5.30547 3.33989 5.30595 3.72994V10.2714C5.30499 10.6612 5.12713 11.0348 4.81133 11.3103C4.49552 11.5859 4.06752 11.7409 3.62107 11.7415ZM3.11652 2.96759C2.88559 2.96857 2.66447 3.04929 2.50146 3.19212C2.33845 3.33495 2.24677 3.52829 2.24645 3.72994V10.2714C2.24678 10.4735 2.33887 10.6672 2.50254 10.8101C2.6662 10.953 2.88809 11.0334 3.11956 11.0337H3.62411C3.85488 11.0326 4.07578 10.9518 4.23856 10.809C4.40135 10.6661 4.4928 10.4729 4.49296 10.2714V3.72994C4.4928 3.52798 4.40093 3.33431 4.23749 3.19141C4.07405 3.0485 3.85238 2.96801 3.62107 2.96759H3.11652Z" fill="#7CB928"/>
<path d="M12.2498 4.78662H6.6518C6.40858 4.78634 6.17542 4.70185 6.00344 4.55166C5.83146 4.40148 5.7347 4.19787 5.73438 3.98549V3.06188C5.7347 2.84949 5.83146 2.64588 6.00344 2.4957C6.17542 2.34552 6.40858 2.26102 6.6518 2.26074H12.2498C12.4932 2.26088 12.7265 2.34532 12.8986 2.49551C13.0707 2.64571 13.1676 2.8494 13.1679 3.06188V3.98549C13.1676 4.19797 13.0707 4.40166 12.8986 4.55185C12.7265 4.70205 12.4932 4.78648 12.2498 4.78662ZM6.6518 2.96803C6.6378 2.96803 6.62394 2.97047 6.61103 2.97521C6.59813 2.97995 6.58644 2.9869 6.57665 2.99564C6.56687 3.00438 6.55918 3.01475 6.55405 3.02612C6.54891 3.0375 6.54644 3.04965 6.54676 3.06188V3.98549C6.54668 3.99758 6.54934 4.00956 6.55458 4.02075C6.55982 4.03194 6.56755 4.04212 6.57731 4.05069C6.58707 4.05926 6.59868 4.06607 6.61146 4.07071C6.62425 4.07535 6.63795 4.07774 6.6518 4.07774H12.2498C12.2779 4.07774 12.3047 4.06802 12.3245 4.05072C12.3444 4.03342 12.3555 4.00995 12.3555 3.98549V3.06188C12.3555 3.03741 12.3444 3.01394 12.3245 2.99664C12.3047 2.97934 12.2779 2.96962 12.2498 2.96962L6.6518 2.96803Z" fill="#7CB928"/>
<path d="M6.62697 6.72607C6.89557 6.72607 7.11331 6.53599 7.11331 6.30151C7.11331 6.06704 6.89557 5.87695 6.62697 5.87695C6.35837 5.87695 6.14062 6.06704 6.14062 6.30151C6.14062 6.53599 6.35837 6.72607 6.62697 6.72607Z" fill="#7CB928"/>
<path d="M8.57619 6.72607C8.84479 6.72607 9.06253 6.53599 9.06253 6.30151C9.06253 6.06704 8.84479 5.87695 8.57619 5.87695C8.30759 5.87695 8.08984 6.06704 8.08984 6.30151C8.08984 6.53599 8.30759 6.72607 8.57619 6.72607Z" fill="#7CB928"/>
<path d="M10.5254 6.72607C10.794 6.72607 11.0117 6.53599 11.0117 6.30151C11.0117 6.06704 10.794 5.87695 10.5254 5.87695C10.2568 5.87695 10.0391 6.06704 10.0391 6.30151C10.0391 6.53599 10.2568 6.72607 10.5254 6.72607Z" fill="#7CB928"/>
<path d="M12.4727 6.72607C12.7413 6.72607 12.959 6.53599 12.959 6.30151C12.959 6.06704 12.7413 5.87695 12.4727 5.87695C12.2041 5.87695 11.9863 6.06704 11.9863 6.30151C11.9863 6.53599 12.2041 6.72607 12.4727 6.72607Z" fill="#7CB928"/>
<path d="M6.62697 8.25269C6.89557 8.25269 7.11331 8.06255 7.11331 7.828C7.11331 7.59346 6.89557 7.40332 6.62697 7.40332C6.35837 7.40332 6.14062 7.59346 6.14062 7.828C6.14062 8.06255 6.35837 8.25269 6.62697 8.25269Z" fill="#7CB928"/>
<path d="M8.57619 8.25269C8.84479 8.25269 9.06253 8.06255 9.06253 7.828C9.06253 7.59346 8.84479 7.40332 8.57619 7.40332C8.30759 7.40332 8.08984 7.59346 8.08984 7.828C8.08984 8.06255 8.30759 8.25269 8.57619 8.25269Z" fill="#7CB928"/>
<path d="M10.5254 8.25269C10.794 8.25269 11.0117 8.06255 11.0117 7.828C11.0117 7.59346 10.794 7.40332 10.5254 7.40332C10.2568 7.40332 10.0391 7.59346 10.0391 7.828C10.0391 8.06255 10.2568 8.25269 10.5254 8.25269Z" fill="#7CB928"/>
<path d="M12.4727 8.25269C12.7413 8.25269 12.959 8.06255 12.959 7.828C12.959 7.59346 12.7413 7.40332 12.4727 7.40332C12.2041 7.40332 11.9863 7.59346 11.9863 7.828C11.9863 8.06255 12.2041 8.25269 12.4727 8.25269Z" fill="#7CB928"/>
<path d="M6.62697 9.78003C6.89557 9.78003 7.11331 9.58989 7.11331 9.35535C7.11331 9.1208 6.89557 8.93066 6.62697 8.93066C6.35837 8.93066 6.14062 9.1208 6.14062 9.35535C6.14062 9.58989 6.35837 9.78003 6.62697 9.78003Z" fill="#7CB928"/>
<path d="M8.57619 9.78003C8.84479 9.78003 9.06253 9.58989 9.06253 9.35535C9.06253 9.1208 8.84479 8.93066 8.57619 8.93066C8.30759 8.93066 8.08984 9.1208 8.08984 9.35535C8.08984 9.58989 8.30759 9.78003 8.57619 9.78003Z" fill="#7CB928"/>
<path d="M10.5254 9.78003C10.794 9.78003 11.0117 9.58989 11.0117 9.35535C11.0117 9.1208 10.794 8.93066 10.5254 8.93066C10.2568 8.93066 10.0391 9.1208 10.0391 9.35535C10.0391 9.58989 10.2568 9.78003 10.5254 9.78003Z" fill="#7CB928"/>
<path d="M12.4727 9.78003C12.7413 9.78003 12.959 9.58989 12.959 9.35535C12.959 9.1208 12.7413 8.93066 12.4727 8.93066C12.2041 8.93066 11.9863 9.1208 11.9863 9.35535C11.9863 9.58989 12.2041 9.78003 12.4727 9.78003Z" fill="#7CB928"/>
<path d="M6.62695 11.1436C6.89555 11.1436 7.11328 10.9535 7.11328 10.719C7.11328 10.4845 6.89555 10.2944 6.62695 10.2944C6.35836 10.2944 6.14062 10.4845 6.14062 10.719C6.14062 10.9535 6.35836 11.1436 6.62695 11.1436Z" fill="#7CB928"/>
<path d="M8.57619 11.1436C8.84479 11.1436 9.06253 10.9535 9.06253 10.719C9.06253 10.4845 8.84479 10.2944 8.57619 10.2944C8.30759 10.2944 8.08984 10.4845 8.08984 10.719C8.08984 10.9535 8.30759 11.1436 8.57619 11.1436Z" fill="#7CB928"/>
<path d="M12.6138 10.2705H9.99392C9.80311 10.2705 9.64844 10.4056 9.64844 10.5722V10.8655C9.64844 11.0321 9.80311 11.1672 9.99392 11.1672H12.6138C12.8046 11.1672 12.9593 11.0321 12.9593 10.8655V10.5722C12.9593 10.4056 12.8046 10.2705 12.6138 10.2705Z" fill="#7CB928"/>
</svg>
