<svg width="15" height="14" viewBox="0 0 15 14" fill="none" xmlns="http://www.w3.org/2000/svg">
<path d="M12.2308 10.107C12.0389 10.3392 11.8471 10.5708 11.6552 10.8018C11.631 10.8289 11.6018 10.8494 11.5697 10.8617C11.5376 10.874 11.5035 10.8779 11.4699 10.873C11.4364 10.8681 11.4042 10.8545 11.3758 10.8334C11.3475 10.8122 11.3237 10.784 11.3062 10.7508C10.8532 9.76655 10.1212 8.98825 9.23066 8.54401C8.34015 8.09978 7.34415 8.01608 6.40658 8.30668C5.82641 8.49126 5.28614 8.81222 4.82017 9.24913C4.35421 9.68603 3.97276 10.2293 3.70012 10.8444C3.68393 10.8869 3.65617 10.9222 3.62098 10.9451C3.5858 10.968 3.54508 10.9773 3.50493 10.9715C3.47608 10.9723 3.44741 10.9659 3.42093 10.9528C3.39444 10.9396 3.37079 10.92 3.35161 10.8953C3.15694 10.6675 2.9621 10.4393 2.76709 10.2107C2.73324 10.1706 2.71151 10.1192 2.7051 10.0639C2.6987 10.0087 2.70795 9.95253 2.7315 9.90375C3.14851 9.07648 3.72041 8.3654 4.40604 7.82169C5.02769 7.33273 5.73031 6.99511 6.47043 6.82971C7.21054 6.66431 7.97241 6.67465 8.7089 6.86009C9.44538 7.04552 10.1408 7.40211 10.7522 7.9078C11.3636 8.41349 11.8779 9.05751 12.2633 9.80003C12.2872 9.84844 12.297 9.90438 12.2912 9.95962C12.2853 10.0149 12.2642 10.0665 12.2308 10.107Z" fill="#7CB928"/>
<path d="M13.6771 7.65283C13.4908 7.87906 13.3041 8.10489 13.1172 8.33032C13.0125 8.45743 12.8471 8.40826 12.7692 8.27816C12.0413 7.0738 11.0137 6.14849 9.82032 5.62278C8.62691 5.09706 7.32297 4.99531 6.07837 5.33076C4.50833 5.76374 3.13815 6.85819 2.24055 8.39627C2.21851 8.43719 2.18624 8.46956 2.14793 8.4892H2.14531C2.10534 8.51722 2.05806 8.5283 2.01169 8.52053C1.96533 8.51275 1.9228 8.4866 1.89152 8.44663C1.70278 8.2236 1.51318 8.00117 1.3227 7.77933C1.28816 7.73948 1.26602 7.68773 1.25969 7.63204C1.25335 7.57635 1.26317 7.51982 1.28764 7.47116C1.88443 6.49103 2.64759 5.65886 3.53151 5.02439C5.18816 3.85034 7.17365 3.44564 9.08206 3.89304C10.9429 4.33071 12.597 5.59097 13.7121 7.34466C13.7697 7.43639 13.7394 7.57728 13.6771 7.65283Z" fill="#7CB928"/>
<path d="M15 5.23881C15 5.43426 14.8242 5.58534 14.7158 5.71844L14.4087 6.09075C14.3003 6.22145 14.1433 6.16389 14.0596 6.03859C13.1115 4.61475 11.8269 3.53217 10.3582 2.91916C8.88947 2.30616 7.29813 2.18841 5.77278 2.57989C3.85122 3.08364 2.15095 4.3599 0.980474 6.17708C0.955811 6.21649 0.923588 6.2489 0.886282 6.27181C0.873119 6.27971 0.859479 6.28652 0.845465 6.29219H0.836569C0.802246 6.30234 0.766234 6.30234 0.731911 6.29219C0.724449 6.28942 0.717113 6.28622 0.709933 6.2826H0.706793H0.704177L0.680105 6.27121C0.680105 6.27121 0.677489 6.27121 0.676442 6.27121C0.673601 6.26833 0.670432 6.26591 0.667023 6.26401C0.662637 6.26173 0.658579 6.2587 0.654987 6.25502C0.654987 6.25502 0.654987 6.25502 0.651324 6.25502C0.645357 6.2493 0.63976 6.24308 0.634579 6.23643C0.445671 6.017 0.257286 5.79578 0.0689006 5.57695C0.00296589 5.49301 -0.027385 5.34733 0.0312236 5.2592C0.129254 5.11051 0.229551 4.96523 0.332116 4.82334C1.16438 3.673 2.19659 2.73381 3.36303 2.06556C4.52947 1.39732 5.80458 1.01466 7.10717 0.941964C8.36307 0.87122 9.66293 1.03669 10.8571 1.49833C11.9711 1.92579 12.9883 2.63145 13.8351 3.56432C14.0516 3.80376 14.2564 4.05675 14.4484 4.32213C14.5489 4.46042 14.6462 4.60191 14.7404 4.7466C14.8283 4.8755 14.9979 5.06675 15 5.23881Z" fill="#7CB928"/>
<path d="M7.50073 13.0735C8.18394 13.0735 8.73779 12.439 8.73779 11.6564C8.73779 10.8737 8.18394 10.2393 7.50073 10.2393C6.81752 10.2393 6.26367 10.8737 6.26367 11.6564C6.26367 12.439 6.81752 13.0735 7.50073 13.0735Z" fill="#7CB928"/>
</svg>
