<svg width="23" height="18" viewBox="0 0 23 18" fill="none" xmlns="http://www.w3.org/2000/svg">
<path d="M10.261 5.23728L6.76953 1.82275L6.48077 2.04788L9.97222 5.4624L10.261 5.23728Z" fill="#7CB928"/>
<path d="M15.0609 5.86268L19.4297 3.05859L19.2004 2.78626L14.8317 5.59034L15.0609 5.86268Z" fill="#7CB928"/>
<path d="M3.92489 11.3003L9.72656 8.89062L9.56027 8.58541L3.75861 10.995L3.92489 11.3003Z" fill="#7CB928"/>
<path d="M14.5926 8.81376L18.5723 12.0293L18.8352 11.7812L14.8555 8.56567L14.5926 8.81376Z" fill="#7CB928"/>
<path d="M12.0038 9.97802L12.1484 14.4448L12.5138 14.4358L12.3692 9.96899L12.0038 9.97802Z" fill="#7CB928"/>
<path d="M12.2642 10.0767C11.6132 10.0767 10.9768 9.9081 10.4355 9.5923C9.89422 9.2765 9.47234 8.82764 9.22321 8.30248C8.97408 7.77732 8.9089 7.19945 9.0359 6.64194C9.16291 6.08444 9.47639 5.57234 9.93672 5.1704C10.397 4.76846 10.9835 4.49473 11.622 4.38384C12.2605 4.27294 12.9223 4.32986 13.5238 4.54739C14.1252 4.76491 14.6393 5.13329 15.0009 5.60592C15.3626 6.07855 15.5557 6.63421 15.5557 7.20264C15.5546 7.96458 15.2074 8.69503 14.5904 9.2338C13.9733 9.77258 13.1368 10.0757 12.2642 10.0767ZM12.2642 4.66203C11.6887 4.66194 11.1261 4.81087 10.6475 5.08998C10.1689 5.36909 9.79592 5.76585 9.57562 6.23007C9.35531 6.6943 9.29762 7.20514 9.40983 7.698C9.52204 8.19086 9.79911 8.6436 10.206 8.99895C10.6129 9.35431 11.1314 9.59632 11.6958 9.69439C12.2602 9.79246 12.8453 9.74217 13.377 9.54989C13.9087 9.35761 14.3631 9.03198 14.6829 8.61417C15.0026 8.19636 15.1733 7.70514 15.1733 7.20264C15.1725 6.52913 14.8657 5.88341 14.3203 5.40713C13.775 4.93084 13.0355 4.66289 12.2642 4.66203Z" fill="#7CB928"/>
<path d="M20.901 3.74683C20.4896 3.74683 20.0873 3.64031 19.7452 3.44074C19.4031 3.24117 19.1364 2.95751 18.9788 2.62562C18.8213 2.29373 18.78 1.92851 18.8602 1.57613C18.9403 1.22374 19.1383 0.900024 19.4292 0.645889C19.72 0.391754 20.0906 0.218615 20.4941 0.148359C20.8977 0.0781029 21.316 0.113885 21.6962 0.251181C22.0764 0.388476 22.4015 0.621122 22.6303 0.919708C22.8591 1.21829 22.9814 1.56941 22.9818 1.92868C22.9816 2.4106 22.7624 2.87278 22.3723 3.21368C21.9821 3.55458 21.453 3.74634 20.901 3.74683ZM20.901 0.447153C20.5649 0.447153 20.2364 0.534197 19.957 0.697272C19.6776 0.860348 19.4598 1.09213 19.3313 1.36328C19.2028 1.63444 19.1692 1.93279 19.235 2.22058C19.3007 2.50837 19.4627 2.77268 19.7005 2.98006C19.9383 3.18744 20.2412 3.32857 20.5709 3.3856C20.9006 3.44262 21.2422 3.41299 21.5526 3.30043C21.863 3.18788 22.1282 2.99747 22.3146 2.75329C22.501 2.50911 22.6003 2.22214 22.5999 1.92868C22.5989 1.5357 22.4196 1.15908 22.1011 0.881372C21.7827 0.603664 21.3511 0.447517 20.901 0.447153Z" fill="#7CB928"/>
<path d="M12.2648 17.8384C11.8533 17.8385 11.451 17.732 11.1087 17.5324C10.7665 17.3329 10.4997 17.0492 10.3421 16.7173C10.1846 16.3853 10.1433 16.02 10.2235 15.6676C10.3037 15.3152 10.5019 14.9914 10.7928 14.7373C11.0838 14.4832 11.4546 14.3102 11.8582 14.24C12.2618 14.1699 12.6802 14.2058 13.0604 14.3433C13.4407 14.4808 13.7657 14.7136 13.9943 15.0124C14.223 15.3112 14.345 15.6624 14.345 16.0217C14.3445 16.5033 14.1252 16.965 13.7352 17.3056C13.3452 17.6462 12.8164 17.8378 12.2648 17.8384ZM12.2648 14.5389C11.9288 14.5388 11.6003 14.6258 11.3208 14.7887C11.0413 14.9517 10.8235 15.1833 10.6949 15.4544C10.5662 15.7254 10.5325 16.0237 10.5981 16.3114C10.6636 16.5992 10.8254 16.8635 11.063 17.071C11.3007 17.2785 11.6034 17.4198 11.933 17.477C12.2626 17.5342 12.6042 17.5048 12.9147 17.3925C13.2251 17.2801 13.4905 17.0899 13.6771 16.846C13.8637 16.602 13.9633 16.3151 13.9632 16.0217C13.9626 15.6286 13.7835 15.2517 13.4651 14.9738C13.1468 14.6958 12.7151 14.5394 12.2648 14.5389Z" fill="#7CB928"/>
<path d="M2.08125 13.4353C1.66967 13.4354 1.26732 13.3289 0.925062 13.1293C0.582809 12.9297 0.316037 12.646 0.158487 12.314C0.000937 11.982 -0.0403125 11.6167 0.0399557 11.2642C0.120224 10.9117 0.318404 10.588 0.609429 10.3339C0.900455 10.0798 1.27125 9.90673 1.67492 9.83665C2.07859 9.76656 2.497 9.80258 2.87722 9.94014C3.25744 10.0777 3.5824 10.3106 3.81099 10.6095C4.03959 10.9083 4.16154 11.2596 4.16144 11.619C4.16074 12.1005 3.94136 12.5622 3.55139 12.9026C3.16143 13.2431 2.63273 13.4347 2.08125 13.4353ZM2.08125 10.1356C1.74522 10.1355 1.41671 10.2225 1.13726 10.3854C0.857815 10.5483 0.639985 10.78 0.511321 11.051C0.382657 11.3221 0.348939 11.6203 0.414431 11.9081C0.479923 12.1959 0.641683 12.4602 0.879253 12.6677C1.11682 12.8752 1.41953 13.0165 1.74909 13.0738C2.07866 13.1311 2.42027 13.1017 2.73073 12.9895C3.04118 12.8772 3.30654 12.6871 3.49324 12.4431C3.67994 12.1992 3.77959 11.9124 3.77959 11.619C3.77903 11.2258 3.59994 10.8489 3.28157 10.5708C2.96321 10.2927 2.53155 10.1362 2.08125 10.1356Z" fill="#7CB928"/>
<path d="M5.98297 2.45337C5.70512 2.45337 5.43351 2.38143 5.20248 2.24664C4.97146 2.11185 4.79139 1.92026 4.68506 1.69612C4.57873 1.47197 4.55091 1.22532 4.60512 0.987371C4.65933 0.749417 4.79312 0.530843 4.9896 0.359288C5.18607 0.187733 5.43639 0.0709028 5.7089 0.0235709C5.98141 -0.0237609 6.26388 0.000531506 6.52058 0.0933763C6.77728 0.186221 6.99669 0.343448 7.15106 0.545176C7.30542 0.746903 7.38782 0.98407 7.38782 1.22668C7.38726 1.55187 7.23907 1.8636 6.97573 2.09354C6.71239 2.32349 6.35539 2.45288 5.98297 2.45337ZM5.98297 0.333424C5.78064 0.333424 5.58286 0.385812 5.41462 0.483965C5.24639 0.582118 5.11527 0.721626 5.03785 0.884849C4.96042 1.04807 4.94016 1.22768 4.97963 1.40095C5.0191 1.57423 5.11653 1.73339 5.2596 1.85832C5.40267 1.98324 5.58495 2.06832 5.78339 2.10278C5.98184 2.13725 6.18753 2.11956 6.37446 2.05195C6.56138 1.98434 6.72115 1.86985 6.83356 1.72295C6.94597 1.57606 7.00597 1.40336 7.00597 1.22668C7.00569 0.989852 6.89782 0.762789 6.70603 0.595322C6.51424 0.427856 6.2542 0.333667 5.98297 0.333424Z" fill="#7CB928"/>
<path d="M19.3811 13.6731C19.1152 13.6735 18.8552 13.6049 18.6339 13.4762C18.4127 13.3475 18.2401 13.1644 18.1381 12.95C18.036 12.7356 18.0091 12.4996 18.0607 12.2718C18.1123 12.0441 18.2402 11.8348 18.428 11.6705C18.6159 11.5062 18.8553 11.3943 19.1161 11.3489C19.3768 11.3034 19.6471 11.3266 19.8928 11.4153C20.1385 11.5041 20.3485 11.6545 20.4962 11.8475C20.644 12.0405 20.7228 12.2675 20.7228 12.4996C20.7224 12.8104 20.581 13.1084 20.3295 13.3283C20.078 13.5483 19.737 13.6722 19.3811 13.6731ZM19.3811 11.6596C19.1908 11.6595 19.0048 11.7087 18.8465 11.801C18.6882 11.8932 18.5649 12.0244 18.492 12.1779C18.4191 12.3313 18.3999 12.5003 18.437 12.6632C18.4741 12.8262 18.5656 12.9759 18.7002 13.0935C18.8347 13.211 19.0061 13.291 19.1927 13.3235C19.3793 13.3559 19.5728 13.3393 19.7486 13.2758C19.9244 13.2122 20.0747 13.1045 20.1804 12.9664C20.2861 12.8282 20.3426 12.6658 20.3426 12.4996C20.3423 12.277 20.2409 12.0635 20.0607 11.9061C19.8805 11.7486 19.6361 11.66 19.3811 11.6596Z" fill="#7CB928"/>
</svg>
