<svg width="23" height="20" viewBox="0 0 23 20" fill="none" xmlns="http://www.w3.org/2000/svg">
<path d="M5.3899 16.261C5.63937 16.4157 5.84387 16.6193 5.98703 16.8554C5.99487 16.8668 6.00555 16.8765 6.01828 16.8837C6.03101 16.891 6.04545 16.8956 6.06053 16.8973C6.07561 16.899 6.09093 16.8977 6.10535 16.8935C6.11976 16.8893 6.1329 16.8823 6.14378 16.873L6.40278 16.6338C6.41814 16.6201 6.42797 16.6023 6.4308 16.5833C6.43363 16.5643 6.42929 16.5449 6.41846 16.5282C6.24472 16.273 6.01285 16.0517 5.73721 15.8779C5.46157 15.7041 5.14802 15.5816 4.81596 15.5179C4.4839 15.4541 4.14039 15.4506 3.8067 15.5075C3.47302 15.5643 3.15624 15.6804 2.87598 15.8484C2.56651 16.0356 2.30852 16.2805 2.1206 16.5654C2.10977 16.5821 2.10544 16.6014 2.10826 16.6204C2.11109 16.6395 2.12092 16.6572 2.13628 16.671L2.39976 16.9062C2.40846 16.9147 2.41918 16.9215 2.43117 16.926C2.44316 16.9305 2.45613 16.9327 2.46918 16.9323C2.48728 16.9342 2.50561 16.931 2.52147 16.9232C2.53733 16.9153 2.54987 16.9032 2.55726 16.8886C2.68109 16.6723 2.85686 16.4818 3.0726 16.3302C3.28835 16.1785 3.53899 16.0693 3.80746 16.0098C4.07592 15.9504 4.35591 15.9422 4.62834 15.9857C4.90077 16.0293 5.15925 16.1236 5.38617 16.2623L5.3899 16.261Z" fill="#7CB928"/>
<path d="M3.49608 14.047C4.18382 13.9128 4.9012 13.9533 5.56337 14.1639C6.22553 14.3745 6.80479 14.7463 7.23263 15.2354C7.24052 15.2468 7.25128 15.2566 7.2641 15.2638C7.27693 15.2711 7.29148 15.2757 7.30665 15.2774C7.32183 15.279 7.33723 15.2776 7.35169 15.2733C7.36616 15.2689 7.3793 15.2618 7.39013 15.2524L7.52896 15.122C7.57748 15.077 7.65809 15.0248 7.65734 14.9577C7.6566 14.8906 7.5827 14.8332 7.54016 14.7876C7.49761 14.7419 7.45357 14.6891 7.40804 14.6422C6.98364 14.1922 6.42248 13.856 5.78907 13.6722C5.24399 13.5174 4.67067 13.4526 4.09844 13.4812C3.51125 13.5067 2.93658 13.6387 2.411 13.8688C1.88541 14.0989 1.42041 14.422 1.0456 14.8175C0.999325 14.8671 0.953793 14.9173 0.909755 14.9681C0.898859 14.9849 0.894497 15.0044 0.897323 15.0235C0.900149 15.0427 0.910011 15.0605 0.92543 15.0744C1.01052 15.1494 1.09561 15.2256 1.1807 15.3012L1.18817 15.3071C1.18989 15.3074 1.19167 15.3074 1.19339 15.3071H1.19787L1.20832 15.3117L1.21877 15.3149C1.23438 15.3188 1.25093 15.3188 1.26654 15.3149C1.27307 15.3132 1.27934 15.3108 1.2852 15.3078C1.30219 15.3001 1.31678 15.2889 1.32775 15.2752C1.85892 14.6523 2.62829 14.2165 3.49608 14.047Z" fill="#7CB928"/>
<path d="M19.209 9.38987C18.8742 9.32361 18.5273 9.31835 18.1901 9.37441C17.8528 9.43047 17.5324 9.54665 17.2489 9.71569C16.9391 9.90253 16.6811 10.1474 16.4936 10.4325C16.4828 10.4491 16.4785 10.4683 16.4813 10.4872C16.4841 10.5062 16.4939 10.5238 16.5092 10.5374L16.7727 10.7726C16.7814 10.7812 16.7921 10.7881 16.8041 10.7927C16.816 10.7973 16.829 10.7996 16.8421 10.7994C16.8602 10.8011 16.8784 10.7978 16.8943 10.7899C16.9101 10.7821 16.9226 10.7701 16.9302 10.7557C17.0889 10.4791 17.3319 10.246 17.6324 10.082C17.9329 9.91799 18.2793 9.82945 18.6337 9.82609C18.9881 9.82272 19.3367 9.90466 19.6412 10.0629C19.9457 10.2211 20.1944 10.4496 20.36 10.7231C20.3678 10.7345 20.3785 10.7442 20.3912 10.7514C20.404 10.7587 20.4184 10.7633 20.4335 10.765C20.4486 10.7667 20.4639 10.7654 20.4783 10.7612C20.4927 10.757 20.5059 10.75 20.5167 10.7407L20.7757 10.5022C20.791 10.4883 20.8008 10.4705 20.8037 10.4514C20.8065 10.4322 20.8022 10.4128 20.7914 10.396C20.618 10.1445 20.3887 9.92588 20.1169 9.75307C19.8451 9.58026 19.5364 9.45676 19.209 9.38987Z" fill="#7CB928"/>
<path d="M19.3562 8.36618C18.4953 8.21309 17.6001 8.35299 16.8534 8.75725C16.4548 8.97528 16.1107 9.26151 15.8421 9.59871C15.8307 9.61529 15.8261 9.63472 15.8289 9.65388C15.8318 9.67303 15.8419 9.69079 15.8577 9.7043C15.9428 9.78056 16.0287 9.85682 16.1138 9.93373C16.1279 9.94754 16.1472 9.95655 16.1682 9.95917C16.1893 9.96179 16.2107 9.95786 16.2287 9.94807C16.2459 9.94148 16.2604 9.93059 16.2705 9.91678C16.5293 9.57587 16.8799 9.29552 17.2915 9.10027C17.7031 8.90502 18.1632 8.80081 18.6316 8.79676C19.1 8.79271 19.5624 8.88894 19.9784 9.07703C20.3943 9.26512 20.7511 9.53935 21.0177 9.87572C21.0255 9.88716 21.0362 9.8969 21.049 9.90422C21.0617 9.91154 21.0762 9.91625 21.0914 9.91801C21.1065 9.91976 21.1219 9.91851 21.1364 9.91435C21.1509 9.91019 21.1642 9.90322 21.1752 9.89397L21.4274 9.66063C21.4428 9.64689 21.4526 9.62916 21.4555 9.61012C21.4583 9.59108 21.454 9.57175 21.4431 9.55504C20.9403 8.94652 20.1965 8.52282 19.3562 8.36618Z" fill="#7CB928"/>
<path d="M4.94604 14.4658C4.0852 14.3127 3.18992 14.4526 2.4433 14.8568C2.04461 15.0748 1.70057 15.361 1.4319 15.6981C1.42056 15.7147 1.41594 15.7341 1.41879 15.7533C1.42163 15.7724 1.43177 15.7902 1.44758 15.8037C1.53267 15.88 1.61851 15.9562 1.7036 16.0331C1.71777 16.0469 1.73706 16.0559 1.75808 16.0585C1.7791 16.0612 1.80051 16.0572 1.81855 16.0474C1.83572 16.0408 1.85026 16.03 1.86034 16.0162C2.11918 15.6753 2.46974 15.395 2.88135 15.1998C3.29296 15.0045 3.75308 14.9004 4.22148 14.8963C4.68988 14.8922 5.15228 14.9885 5.56824 15.1765C5.9842 15.3646 6.34104 15.6388 6.60756 15.9751C6.61542 15.9865 6.62612 15.9963 6.63888 16.0036C6.65165 16.0109 6.66613 16.0156 6.68127 16.0174C6.69641 16.0191 6.7118 16.0179 6.72631 16.0137C6.74082 16.0096 6.75406 16.0026 6.76506 15.9933L7.01735 15.76C7.0327 15.7463 7.04253 15.7286 7.04536 15.7095C7.04819 15.6905 7.04386 15.6712 7.03302 15.6545C6.53021 15.046 5.78643 14.6224 4.94604 14.4658Z" fill="#7CB928"/>
<path d="M21.9068 8.65898C21.8643 8.6088 21.8202 8.56056 21.7747 8.51298C21.3496 8.06275 20.7873 7.72674 20.1527 7.54378C19.6077 7.38883 19.0344 7.32385 18.4621 7.35216C17.8748 7.37733 17.2999 7.50888 16.774 7.73846C16.2481 7.96803 15.7825 8.29061 15.407 8.68571C15.3607 8.73459 15.3152 8.78478 15.2712 8.83627C15.2602 8.85295 15.2558 8.8723 15.2586 8.89137C15.2615 8.91044 15.2714 8.92817 15.2869 8.94186C15.3719 9.01746 15.4563 9.09307 15.5421 9.16868C15.5444 9.17101 15.5469 9.17319 15.5496 9.1752C15.551 9.17663 15.5528 9.17775 15.5548 9.17845H15.5593L15.5697 9.18302L15.5802 9.18628C15.5958 9.19019 15.6124 9.19019 15.628 9.18628H15.6317C15.6382 9.18478 15.6445 9.1826 15.6504 9.17976C15.667 9.17164 15.6815 9.16053 15.6929 9.14717C16.0316 8.74432 16.4731 8.41592 16.9825 8.18803C17.4918 7.96014 18.0549 7.83902 18.6272 7.83427C19.1995 7.82953 19.7652 7.94129 20.2794 8.1607C20.7936 8.38011 21.2422 8.70112 21.5896 9.09829C21.5975 9.10961 21.6081 9.11925 21.6208 9.1265C21.6335 9.13375 21.6479 9.13842 21.663 9.14017C21.678 9.14192 21.6933 9.14071 21.7077 9.13662C21.7221 9.13253 21.7353 9.12566 21.7463 9.11654L21.8852 8.98618C21.9337 8.94186 22.0143 8.88971 22.0135 8.82258C22.0128 8.75545 21.9441 8.70396 21.9068 8.65898Z" fill="#7CB928"/>
<path d="M18.6417 12.0896C18.5974 12.0897 18.5533 12.0945 18.5103 12.104L3.89176 5.03607C3.84884 4.9487 3.77761 4.87419 3.68682 4.82172C3.59603 4.76924 3.48966 4.74109 3.38078 4.74073C3.2719 4.74036 3.16528 4.7678 3.07403 4.81966C2.98279 4.87152 2.9109 4.94555 2.86722 5.03263C2.82354 5.1197 2.80997 5.21603 2.82818 5.30976C2.84639 5.40348 2.8956 5.49051 2.96973 5.56013C3.04386 5.62976 3.13969 5.67893 3.24543 5.70162C3.35116 5.7243 3.46218 5.71949 3.56482 5.68779L17.9595 12.6514L4.59936 18.3148C4.52805 18.27 4.44561 18.2404 4.35875 18.2287C4.2719 18.2169 4.18309 18.2233 4.09957 18.2472C4.01605 18.2711 3.9402 18.3119 3.87819 18.3663C3.81618 18.4207 3.76977 18.4871 3.74276 18.5601C3.71574 18.6332 3.70888 18.7107 3.72274 18.7865C3.7366 18.8623 3.77078 18.9342 3.82249 18.9962C3.87421 19.0583 3.94199 19.1088 4.02031 19.1436C4.09864 19.1784 4.18528 19.1966 4.27317 19.1966C4.29817 19.1966 4.32313 19.1948 4.34782 19.1914L4.35752 19.209L4.43589 19.1757C4.49201 19.1614 4.54518 19.1394 4.59339 19.1106L19.0231 12.9949L19.0007 12.9538C19.0887 12.8896 19.1519 12.8033 19.1818 12.7067C19.2116 12.6101 19.2067 12.5077 19.1677 12.4136C19.1286 12.3195 19.0573 12.2382 18.9635 12.1807C18.8697 12.1232 18.7578 12.0923 18.6432 12.0922L18.6417 12.0896Z" fill="#7CB928"/>
<path d="M3.94794 2.04415C3.61324 1.9779 3.26649 1.97264 2.92936 2.02871C2.59223 2.08478 2.27197 2.20097 1.9886 2.37001C1.6788 2.55688 1.42073 2.8018 1.23322 3.0869C1.22152 3.10385 1.2167 3.12374 1.21955 3.14337C1.22239 3.163 1.23273 3.18122 1.2489 3.19509C1.33598 3.27373 1.42381 3.35215 1.51238 3.43036C1.52104 3.43894 1.53173 3.44577 1.54372 3.45039C1.55571 3.455 1.5687 3.45728 1.5818 3.45708C1.59987 3.45879 1.6181 3.4555 1.63391 3.44766C1.64972 3.43982 1.6623 3.42784 1.66987 3.41341C1.82828 3.13654 2.07108 2.90317 2.37156 2.73898C2.67203 2.57479 3.01855 2.48614 3.373 2.48277C3.72745 2.4794 4.07609 2.56145 4.38059 2.71989C4.68509 2.87833 4.93365 3.10703 5.09892 3.38083C5.10684 3.39221 5.11759 3.4019 5.13038 3.40915C5.14318 3.41641 5.15768 3.42106 5.17281 3.42275C5.18794 3.42444 5.20332 3.42313 5.21779 3.41892C5.23227 3.41471 5.24547 3.4077 5.25641 3.39842L5.51542 3.15989C5.53073 3.14599 5.54052 3.12816 5.54334 3.10904C5.54617 3.08991 5.54187 3.0705 5.5311 3.05366C5.35804 2.80143 5.12874 2.58211 4.85679 2.4087C4.58484 2.23529 4.27579 2.11133 3.94794 2.04415Z" fill="#7CB928"/>
<path d="M0.969127 2.60066C0.986159 2.59389 1.00065 2.58304 1.01093 2.56939C1.26988 2.22868 1.62047 1.94853 2.03207 1.75343C2.44366 1.55832 2.90373 1.45419 3.37207 1.45014C3.8404 1.44609 4.30274 1.54224 4.71868 1.73019C5.13462 1.91814 5.49151 2.19217 5.75814 2.52833C5.76591 2.53975 5.77654 2.54949 5.78924 2.55681C5.80194 2.56413 5.81637 2.56884 5.83145 2.5706C5.84653 2.57235 5.86187 2.5711 5.87632 2.56694C5.89077 2.56279 5.90396 2.55582 5.91489 2.54658L6.16792 2.31329C6.18328 2.29955 6.19311 2.28183 6.19594 2.26279C6.19876 2.24376 6.19443 2.22443 6.1836 2.20773C5.67756 1.59065 4.92146 1.16487 4.06886 1.01685C3.21626 0.86883 2.33109 1.00967 1.59313 1.41077C1.19391 1.62858 0.84915 1.9145 0.579498 2.25139C0.568634 2.26813 0.564357 2.28752 0.567323 2.30659C0.570289 2.32565 0.580334 2.34335 0.595919 2.35695C0.681508 2.43341 0.767097 2.50987 0.852686 2.58633C0.866849 2.60058 0.886435 2.60988 0.907835 2.61251C0.929234 2.61515 0.951003 2.61094 0.969127 2.60066Z" fill="#7CB928"/>
<path d="M2.60249 0.569728C3.29015 0.435034 4.00763 0.475299 4.66988 0.685753C5.33214 0.896207 5.91141 1.26803 6.33903 1.75714C6.34698 1.76848 6.35773 1.77812 6.37049 1.78537C6.38325 1.79262 6.39771 1.79729 6.4128 1.79904C6.42789 1.80079 6.44324 1.79957 6.45772 1.79548C6.47221 1.79139 6.48547 1.78452 6.49653 1.77539L6.63536 1.64505C6.68388 1.60073 6.76374 1.54859 6.763 1.48147C6.76225 1.41434 6.68835 1.35634 6.64656 1.31137C6.60476 1.2664 6.55997 1.21296 6.51444 1.16539C6.09006 0.715846 5.52885 0.380139 4.89547 0.196951C4.35008 0.0424488 3.77653 -0.0220829 3.2041 0.0066518C2.61677 0.0316238 2.04182 0.163074 1.51585 0.392636C0.989874 0.622199 0.524393 0.944847 0.149026 1.34005C0.102748 1.38893 0.0572168 1.43911 0.0131784 1.48994C0.00225518 1.50678 -0.0020529 1.52629 0.000912304 1.54547C0.00387751 1.56465 0.013953 1.58246 0.0295995 1.59617C0.114691 1.67177 0.199035 1.74737 0.284873 1.82622L0.292337 1.83274L0.298308 1.836H0.302787L0.313237 1.84056H0.323686C0.339038 1.84449 0.355359 1.84449 0.37071 1.84056H0.375189C0.381409 1.83895 0.387415 1.83677 0.393103 1.83404C0.409914 1.82612 0.424457 1.81498 0.435648 1.80146C0.965747 1.17763 1.73461 0.740568 2.60249 0.569728Z" fill="#7CB928"/>
</svg>
