<svg width="21" height="20" viewBox="0 0 21 20" fill="none" xmlns="http://www.w3.org/2000/svg">
<path d="M11.5242 16.1782C11.5242 16.1783 11.524 16.1773 11.5236 16.1753C11.524 16.1772 11.5242 16.1782 11.5242 16.1782ZM10.874 4.13029C10.874 4.13032 10.8734 4.13115 10.8722 4.13269C10.8734 4.13103 10.874 4.13026 10.874 4.13029ZM9.47318 3.82175C9.4732 3.82173 9.47341 3.82268 9.47379 3.82469C9.47336 3.82279 9.47317 3.82178 9.47318 3.82175ZM10.1234 15.8697C10.1234 15.8697 10.124 15.8688 10.1251 15.8673C10.124 15.869 10.1234 15.8697 10.1234 15.8697ZM10.6949 16.6091L10.4798 17.5857C10.9482 17.6888 11.3103 17.4779 11.5005 17.3121C11.6722 17.1625 11.7904 16.9816 11.8643 16.8586C12.0105 16.615 12.17 16.2705 12.3376 15.9083L12.3599 15.8601L14.2579 11.7604C14.2677 11.7392 14.2774 11.7182 14.2872 11.6971C14.5578 11.1128 14.8063 10.5762 14.9385 10.1271C15.0804 9.64544 15.1652 9.01699 14.7857 8.42308C14.4062 7.82918 13.8003 7.64218 13.3036 7.56851C12.8405 7.49982 12.2492 7.4999 11.6052 7.49999C11.582 7.5 11.5588 7.5 11.5355 7.5H11.4987V4.77013C11.4987 4.7524 11.4987 4.7347 11.4987 4.71704C11.4988 4.3179 11.4988 3.9383 11.4684 3.6558C11.4531 3.51307 11.4218 3.2993 11.3289 3.09138C11.2259 2.86098 10.986 2.51749 10.5176 2.41432C10.0492 2.31116 9.68711 2.52206 9.49687 2.68788C9.3252 2.83752 9.20701 3.01837 9.13311 3.14144C8.98686 3.38504 8.82743 3.72953 8.6598 4.09176C8.65238 4.10779 8.64495 4.12385 8.6375 4.13994L6.73949 8.23963C6.72971 8.26077 6.71994 8.28185 6.71021 8.30287C6.43958 8.88721 6.19109 9.42375 6.05886 9.87288C5.91704 10.3546 5.83215 10.983 6.21166 11.5769C6.59117 12.1708 7.19713 12.3578 7.69382 12.4315C8.15694 12.5002 8.74823 12.5001 9.39219 12.5C9.41536 12.5 9.43859 12.5 9.46189 12.5H9.4987V15.2299C9.4987 15.2476 9.4987 15.2653 9.49869 15.283C9.49863 15.6821 9.49858 16.0617 9.52896 16.3442C9.54431 16.4869 9.57558 16.7007 9.66851 16.9086C9.77148 17.139 10.0114 17.4825 10.4798 17.5857L10.6949 16.6091Z" stroke="#1C7EE7" stroke-width="2"/>
</svg>
