<svg width="21" height="20" viewBox="0 0 21 20" fill="none" xmlns="http://www.w3.org/2000/svg">
<path d="M13.3644 14.7922L14.0596 14.0734L13.3644 14.7922ZM13.5561 14.9789L12.8298 15.6663L13.5561 14.9789ZM12.874 16.6654L12.9181 17.6644L12.874 16.6654ZM13.3644 5.20718L12.6692 4.48837L13.3644 5.20718ZM13.5561 5.02043L14.2824 5.70785L13.5561 5.02043ZM12.874 3.33398L12.8298 4.33301L12.874 3.33398ZM12.332 9.99967C12.332 8.4005 12.9932 6.95747 14.0596 5.92598L12.6692 4.48837C11.2293 5.88108 10.332 7.83647 10.332 9.99967H12.332ZM14.0596 14.0734C12.9932 13.0419 12.332 11.5989 12.332 9.99967H10.332C10.332 12.1629 11.2293 14.1183 12.6692 15.511L14.0596 14.0734ZM12.9987 15.6663C9.86908 15.6663 7.33203 13.1293 7.33203 9.99967H5.33203C5.33203 14.2339 8.76451 17.6663 12.9987 17.6663V15.6663ZM7.33203 9.99967C7.33203 6.87006 9.86908 4.33301 12.9987 4.33301V2.33301C8.76451 2.33301 5.33203 5.76549 5.33203 9.99967H7.33203ZM12.6692 15.511C12.7285 15.5683 12.7714 15.6098 12.8015 15.6391C12.8166 15.6537 12.8269 15.6639 12.8337 15.6706C12.8435 15.6803 12.839 15.676 12.8298 15.6663L14.2824 14.2915C14.2471 14.2543 14.1613 14.1717 14.0596 14.0734L12.6692 15.511ZM12.9987 17.6663C13.0106 17.6663 13.018 17.6663 13.0212 17.6663C13.0213 17.6663 13.0237 17.6663 13.026 17.6663C13.0265 17.6663 13.0274 17.6663 13.0285 17.6663C13.029 17.6663 13.0321 17.6663 13.0359 17.6662C13.0384 17.6662 13.0459 17.666 13.0509 17.6659C13.0662 17.6654 13.8882 17.1658 13.9157 16.2178C13.5713 15.8308 13.0655 15.6673 13.0515 15.6668C13.0467 15.6666 13.0396 15.6665 13.0372 15.6665C13.0334 15.6664 13.0305 15.6664 13.0299 15.6664C13.0288 15.6664 13.0279 15.6664 13.0275 15.6664C13.0265 15.6663 13.0257 15.6663 13.0254 15.6663C13.0235 15.6663 13.0208 15.6663 13.0191 15.6663C13.01 15.6663 12.9899 15.6663 12.9674 15.6662C12.9444 15.6662 12.9211 15.6661 12.9054 15.666C12.896 15.6659 12.8949 15.6658 12.8983 15.6659C12.8994 15.6659 12.9037 15.666 12.9097 15.6662C12.9127 15.6663 12.9183 15.6666 12.9254 15.6669C12.9291 15.6671 12.9343 15.6674 12.9406 15.6678C12.9465 15.6682 12.9564 15.669 12.9686 15.6701C12.9749 15.6707 12.9833 15.6716 12.9934 15.6728C13.0029 15.674 13.0174 15.6759 13.035 15.6788C13.0426 15.6801 13.0593 15.6831 13.0685 15.6849C13.0796 15.6872 13.1047 15.6928 13.1186 15.6962C13.1364 15.7009 13.1776 15.7132 13.201 15.721C13.233 15.7327 13.3103 15.7664 13.3549 15.7895C13.422 15.83 13.5834 15.9621 13.6689 16.0606C13.7776 16.2401 13.8722 16.6937 13.832 16.9473C13.7569 17.1324 13.5632 17.3887 13.4696 17.4677C13.4087 17.5096 13.3022 17.5685 13.2585 17.588C13.2282 17.6001 13.1749 17.6187 13.1522 17.6256C13.1351 17.6304 13.1043 17.6382 13.0908 17.6414C13.0612 17.648 13.0372 17.6519 13.0238 17.654C13.009 17.6562 12.9967 17.6578 12.9883 17.6588C12.9795 17.6598 12.972 17.6605 12.9664 17.661C12.9554 17.6621 12.9465 17.6627 12.941 17.6631C12.9303 17.6638 12.9219 17.6642 12.9181 17.6644L12.8298 15.6663C12.8254 15.6665 12.8164 15.667 12.8052 15.6677C12.7996 15.6681 12.7905 15.6688 12.7793 15.6698C12.7703 15.6707 12.7488 15.6728 12.7216 15.6769C12.7081 15.679 12.6841 15.6829 12.6545 15.6896C12.6409 15.6927 12.6101 15.7005 12.593 15.7054C12.5703 15.7123 12.517 15.7308 12.4866 15.743C12.443 15.7624 12.3365 15.8213 12.2755 15.8633C12.1819 15.9423 11.9882 16.1986 11.9131 16.3837C11.873 16.6372 11.9675 17.0909 12.0763 17.2704C12.1618 17.3689 12.3231 17.501 12.3903 17.5415C12.4349 17.5646 12.5122 17.5983 12.5442 17.6101C12.5676 17.6178 12.6088 17.6301 12.6266 17.6348C12.6643 17.6444 12.6948 17.6497 12.7103 17.6522C12.7423 17.6575 12.7675 17.66 12.7771 17.6609C12.799 17.6631 12.8162 17.664 12.8214 17.6642C12.829 17.6646 12.8352 17.6649 12.8389 17.665C12.8463 17.6653 12.8525 17.6654 12.8558 17.6655C12.8679 17.6657 12.8816 17.6658 12.8904 17.6659C12.9114 17.6661 12.9389 17.6662 12.9621 17.6662C12.9858 17.6663 13.0071 17.6663 13.0157 17.6663C13.0184 17.6663 13.0186 17.6663 13.0179 17.6663C13.0177 17.6663 13.017 17.6663 13.0161 17.6663C13.0157 17.6663 13.0149 17.6663 13.0138 17.6663C13.0133 17.6663 13.0103 17.6663 13.0066 17.6662C13.0042 17.6662 12.9971 17.666 12.9923 17.6659C12.9783 17.6654 12.4725 17.5019 12.1281 17.1149C12.1556 16.1668 12.9776 15.6673 12.9929 15.6668C12.9979 15.6666 13.0054 15.6665 13.0079 15.6664C13.0117 15.6664 13.0147 15.6664 13.0152 15.6664C13.0163 15.6664 13.0172 15.6663 13.0176 15.6663C13.0196 15.6663 13.0211 15.6663 13.0198 15.6663C13.0176 15.6663 13.0112 15.6663 12.9987 15.6663V17.6663ZM12.8298 15.6663H12.8298L12.9181 17.6644C14.6298 17.5888 15.4601 15.5358 14.2824 14.2915L12.8298 15.6663ZM14.0596 5.92598C14.1613 5.82763 14.2471 5.74509 14.2824 5.70785L12.8298 4.33301C12.839 4.3233 12.8435 4.31908 12.8337 4.32875C12.8269 4.33549 12.8166 4.34562 12.8015 4.36028C12.7714 4.38952 12.7285 4.43101 12.6692 4.48837L14.0596 5.92598ZM12.9987 4.33301C13.0112 4.33301 13.0176 4.33301 13.0198 4.33301C13.0211 4.33301 13.0196 4.33301 13.0176 4.333C13.0172 4.333 13.0163 4.333 13.0152 4.33299C13.0147 4.33299 13.0117 4.33297 13.0079 4.33291C13.0054 4.33288 12.9979 4.33272 12.9929 4.33259C12.9776 4.33203 12.1556 3.8325 12.1282 2.88443C12.4726 2.49741 12.9783 2.33396 12.9923 2.33345C12.9971 2.33332 13.0042 2.33317 13.0066 2.33313C13.0103 2.33307 13.0133 2.33305 13.0138 2.33305C13.0149 2.33304 13.0157 2.33303 13.0161 2.33303C13.017 2.33302 13.0177 2.33302 13.0179 2.33302C13.0186 2.33302 13.0184 2.33302 13.0157 2.33302C13.0071 2.33304 12.9858 2.33307 12.9621 2.33313C12.9389 2.33319 12.9114 2.33329 12.8904 2.33345C12.8816 2.33351 12.8679 2.33363 12.8558 2.33389C12.8525 2.33396 12.8463 2.3341 12.8389 2.33436C12.8352 2.33449 12.829 2.33473 12.8214 2.33512C12.8162 2.33539 12.799 2.3363 12.7771 2.33841C12.7675 2.33932 12.7423 2.34184 12.7103 2.3471C12.6948 2.34965 12.6643 2.35499 12.6266 2.36457C12.6088 2.36927 12.5676 2.3815 12.5442 2.38929C12.5122 2.40105 12.4349 2.43473 12.3903 2.45783C12.3232 2.4983 12.1618 2.63043 12.0763 2.72892C11.9676 2.90843 11.873 3.36206 11.9131 3.61559C11.9882 3.8007 12.1819 4.05705 12.2755 4.13606C12.3365 4.17801 12.443 4.2369 12.4866 4.25639C12.517 4.26852 12.5703 4.28708 12.593 4.29398C12.6101 4.29882 12.6409 4.30666 12.6545 4.30979C12.6841 4.31642 12.7081 4.32035 12.7216 4.32242C12.7488 4.32657 12.7703 4.32868 12.7793 4.32953C12.7905 4.33058 12.7996 4.33124 12.8052 4.33163C12.8164 4.33239 12.8254 4.33281 12.8298 4.33301L12.9181 2.33496C12.9219 2.33512 12.9303 2.33551 12.941 2.33625C12.9465 2.33662 12.9554 2.33727 12.9664 2.3383C12.972 2.33883 12.9795 2.33958 12.9883 2.3406C12.9967 2.34158 13.009 2.34311 13.0238 2.34537C13.0372 2.34743 13.0612 2.35135 13.0908 2.35797C13.1043 2.3611 13.1351 2.36894 13.1522 2.37377C13.1749 2.38067 13.2282 2.39923 13.2585 2.41136C13.3022 2.43085 13.4087 2.48972 13.4696 2.53167C13.5632 2.61068 13.7569 2.86702 13.8321 3.05214C13.8722 3.30566 13.7776 3.75928 13.6688 3.93879C13.5833 4.03728 13.422 4.1694 13.3549 4.20987C13.3103 4.23297 13.233 4.26665 13.2009 4.2784C13.1776 4.28619 13.1364 4.29842 13.1186 4.30311C13.1047 4.30653 13.0796 4.31218 13.0685 4.31447C13.0593 4.31625 13.0426 4.31928 13.035 4.32056C13.0174 4.32346 13.0029 4.32536 12.9934 4.32652C12.9833 4.32774 12.9749 4.32861 12.9686 4.32921C12.9564 4.33039 12.9465 4.33111 12.9406 4.33151C12.9343 4.33193 12.9291 4.33223 12.9254 4.33242C12.9183 4.33279 12.9127 4.333 12.9097 4.33311C12.9037 4.33332 12.8994 4.33341 12.8983 4.33343C12.8949 4.33351 12.896 4.33346 12.9054 4.33339C12.9211 4.33327 12.9444 4.33319 12.9674 4.33313C12.9899 4.33307 13.01 4.33304 13.0191 4.33302C13.0208 4.33302 13.0235 4.33301 13.0254 4.33301C13.0257 4.33301 13.0265 4.333 13.0275 4.333C13.0279 4.33299 13.0288 4.33299 13.0299 4.33298C13.0305 4.33298 13.0334 4.33295 13.0372 4.3329C13.0396 4.33286 13.0467 4.3327 13.0515 4.33257C13.0655 4.33206 13.5712 4.16861 13.9156 3.78159C13.8882 2.83352 13.0662 2.33399 13.0509 2.33343C13.0459 2.3333 13.0384 2.33315 13.0359 2.33311C13.0321 2.33306 13.029 2.33304 13.0285 2.33303C13.0274 2.33303 13.0265 2.33302 13.026 2.33302C13.0237 2.33301 13.0213 2.33301 13.0212 2.33301C13.018 2.33301 13.0106 2.33301 12.9987 2.33301V4.33301ZM14.2824 5.70785C15.4601 4.46354 14.6298 2.41057 12.9181 2.33496L12.8298 4.33301V4.33301L14.2824 5.70785Z" fill="#1C7EE7"/>
</svg>
