<svg width="34" height="34" viewBox="0 0 34 34" fill="none" xmlns="http://www.w3.org/2000/svg">
<circle cx="17" cy="17" r="17" transform="rotate(180 17 17)" fill=""/>
<path d="M21 17L21 13C21 10.7909 19.2091 9 17 9V9C14.7909 9 13 10.7909 13 13L13 17" stroke="black" stroke-linecap="round"/>
<path d="M25.3057 17.6678C25.1606 15.9269 25.088 15.0565 24.514 14.5282C23.9399 14 23.0664 14 21.3195 14L12.6805 14C10.9336 14 10.0601 14 9.48605 14.5282C8.91196 15.0565 8.83942 15.9269 8.69435 17.6678L8.18051 23.8339C8.09605 24.8475 8.05382 25.3542 8.35092 25.6771C8.64802 26 9.15655 26 10.1736 26L23.8264 26C24.8435 26 25.352 26 25.6491 25.6771C25.9462 25.3542 25.904 24.8474 25.8195 23.8339L25.3057 17.6678Z" stroke="black"/>
</svg>
