<svg width="21" height="20" viewBox="0 0 21 20" fill="none" xmlns="http://www.w3.org/2000/svg">
<path d="M3.83203 3.33301V2.33301H2.83203V3.33301H3.83203ZM9.79159 10.7068C10.1821 11.0973 10.8153 11.0973 11.2058 10.7068C11.5963 10.3163 11.5963 9.68309 11.2058 9.29257L9.79159 10.7068ZM4.83203 8.33301V3.33301H2.83203V8.33301H4.83203ZM3.83203 4.33301H8.83203V2.33301H3.83203V4.33301ZM3.12492 4.04011L9.79159 10.7068L11.2058 9.29257L4.53914 2.6259L3.12492 4.04011Z" fill="#1C7EE7"/>
<path d="M3.83203 16.667V17.667H2.83203V16.667H3.83203ZM9.79159 9.29322C10.1821 8.9027 10.8153 8.9027 11.2058 9.29322C11.5963 9.68374 11.5963 10.3169 11.2058 10.7074L9.79159 9.29322ZM4.83203 11.667V16.667H2.83203V11.667H4.83203ZM3.83203 15.667H8.83203V17.667H3.83203V15.667ZM3.12492 15.9599L9.79159 9.29322L11.2058 10.7074L4.53914 17.3741L3.12492 15.9599Z" fill="#1C7EE7"/>
<path d="M17.168 3.33301V2.33301H18.168V3.33301H17.168ZM11.2084 10.7068C10.8179 11.0973 10.1847 11.0973 9.7942 10.7068C9.40367 10.3163 9.40367 9.68309 9.7942 9.29257L11.2084 10.7068ZM16.168 8.33301V3.33301H18.168V8.33301H16.168ZM17.168 4.33301H12.168V2.33301H17.168V4.33301ZM17.8751 4.04011L11.2084 10.7068L9.7942 9.29257L16.4609 2.6259L17.8751 4.04011Z" fill="#1C7EE7"/>
<path d="M17.168 16.667V17.667H18.168V16.667H17.168ZM11.2084 9.29322C10.8179 8.9027 10.1847 8.9027 9.7942 9.29322C9.40367 9.68374 9.40367 10.3169 9.7942 10.7074L11.2084 9.29322ZM16.168 11.667V16.667H18.168V11.667H16.168ZM17.168 15.667H12.168V17.667H17.168V15.667ZM17.8751 15.9599L11.2084 9.29322L9.7942 10.7074L16.4609 17.3741L17.8751 15.9599Z" fill="#1C7EE7"/>
</svg>
