<svg width="21" height="20" viewBox="0 0 21 20" fill="none" xmlns="http://www.w3.org/2000/svg">
<path d="M18 13.333C18 11.3439 17.2098 9.43623 15.8033 8.02971C14.3968 6.62318 12.4891 5.83301 10.5 5.83301C8.51088 5.83301 6.60322 6.62318 5.1967 8.02971C3.79018 9.43623 3 11.3439 3 13.333L7.17088 13.333C7.17088 12.4501 7.52163 11.6033 8.14596 10.979C8.77029 10.3546 9.61706 10.0039 10.5 10.0039C11.3829 10.0039 12.2297 10.3546 12.854 10.979C13.4784 11.6033 13.8291 12.4501 13.8291 13.333H18Z" stroke="#1C7EE7" stroke-width="2"/>
<path d="M10.5 5.83301L10.5 9.99967" stroke="#1C7EE7" stroke-width="2"/>
<path d="M15.8047 8.0293L13.3047 10.5293" stroke="#1C7EE7" stroke-width="2"/>
<path d="M5.19531 8.0293L7.99875 10.8327" stroke="#1C7EE7" stroke-width="2"/>
</svg>
