<svg width="34" height="34" viewBox="0 0 34 34" fill="none" xmlns="http://www.w3.org/2000/svg">
<circle cx="17" cy="17" r="17" fill=""/>
<path d="M8.08168 15.0555C7.55298 16.0059 7.28862 16.4812 7.28862 17C7.28862 17.5188 7.55298 17.9941 8.08169 18.9445L9.43094 21.37L10.8569 23.7512C11.4156 24.6843 11.695 25.1509 12.1443 25.4103C12.5936 25.6697 13.1374 25.6784 14.2248 25.6957L17 25.74L19.7752 25.6957C20.8626 25.6784 21.4064 25.6697 21.8557 25.4103C22.305 25.1509 22.5844 24.6843 23.1431 23.7512L24.5691 21.37L25.9183 18.9445C26.447 17.9941 26.7114 17.5188 26.7114 17C26.7114 16.4812 26.447 16.0059 25.9183 15.0555L24.5691 12.63L23.1431 10.2488C22.5844 9.31567 22.305 8.84912 21.8557 8.5897C21.4064 8.33028 20.8626 8.32161 19.7752 8.30426L17 8.26L14.2248 8.30426C13.1374 8.32161 12.5936 8.33028 12.1443 8.5897C11.695 8.84912 11.4156 9.31567 10.8569 10.2488L9.43094 12.63L8.08168 15.0555Z" stroke="black"/>
<circle cx="3" cy="3" r="3" transform="matrix(1 0 0 -1 14 20)" stroke="black"/>
</svg>
