<svg width="20" height="21" viewBox="0 0 20 21" fill="none" xmlns="http://www.w3.org/2000/svg">
<path d="M2.5 8.80762C2.5 7.86481 2.5 7.3934 2.79289 7.10051C3.08579 6.80762 3.55719 6.80762 4.5 6.80762H15.5C16.4428 6.80762 16.9142 6.80762 17.2071 7.10051C17.5 7.3934 17.5 7.86481 17.5 8.80762V9.72428C17.5 9.95661 17.5 10.0728 17.4808 10.1694C17.4019 10.5661 17.0918 10.8762 16.6951 10.9551C16.5985 10.9743 16.4823 10.9743 16.25 10.9743V10.9743C16.0177 10.9743 15.9015 10.9743 15.8049 10.9935C15.4082 11.0724 15.0981 11.3825 15.0192 11.7792C15 11.8758 15 11.992 15 12.2243V14.8076C15 15.7504 15 16.2218 14.7071 16.5147C14.4142 16.8076 13.9428 16.8076 13 16.8076H7C6.05719 16.8076 5.58579 16.8076 5.29289 16.5147C5 16.2218 5 15.7504 5 14.8076V12.2243C5 11.992 5 11.8758 4.98079 11.7792C4.90188 11.3825 4.59178 11.0724 4.19509 10.9935C4.09849 10.9743 3.98233 10.9743 3.75 10.9743V10.9743C3.51767 10.9743 3.40151 10.9743 3.30491 10.9551C2.90822 10.8762 2.59812 10.5661 2.51921 10.1694C2.5 10.0728 2.5 9.95661 2.5 9.72428V8.80762Z" stroke="white"/>
<path d="M4.16602 10.9736H15.8327" stroke="white" stroke-linecap="round"/>
<path d="M10 5.97363L10 16.807" stroke="white" stroke-linecap="round"/>
<path d="M9.99935 5.97396L9.26722 5.24183C8.37863 4.35324 7.29535 3.68374 6.10318 3.28635V3.28635C5.15018 2.96868 4.16602 3.67802 4.16602 4.68258V4.83434C4.16602 5.51491 4.60151 6.11912 5.24715 6.33434L6.66602 6.80729" stroke="white" stroke-linecap="round"/>
<path d="M10.0007 5.97396L10.7328 5.24183C11.6214 4.35324 12.7046 3.68374 13.8968 3.28635V3.28635C14.8498 2.96868 15.834 3.67802 15.834 4.68258V4.83434C15.834 5.51491 15.3985 6.11912 14.7528 6.33434L13.334 6.80729" stroke="white" stroke-linecap="round"/>
</svg>
