<svg width="40" height="40" viewBox="0 0 40 40" fill="none" xmlns="http://www.w3.org/2000/svg">
<path d="M40 20C40 8.9543 31.0457 -1.35705e-06 20 -8.74228e-07C8.9543 -3.91405e-07 -1.35705e-06 8.9543 -8.74228e-07 20C-3.91405e-07 31.0457 8.9543 40 20 40C31.0457 40 40 31.0457 40 20Z" fill=""/>
<path d="M18.6067 32H9.88126C9.1171 32 8.38424 31.6938 7.8439 31.1487C7.30356 30.6037 7 29.8644 7 29.0936V9.90641C7 9.13559 7.30356 8.39633 7.8439 7.85127C8.38424 7.30621 9.1171 7 9.88126 7H18.6067C19.3708 7 20.1037 7.30621 20.644 7.85127C21.1844 8.39633 21.4879 9.13559 21.4879 9.90641V29.0791C21.4898 29.462 21.4167 29.8415 21.2728 30.1958C21.1288 30.5501 20.9169 30.8722 20.6491 31.1436C20.3814 31.415 20.0631 31.6304 19.7126 31.7774C19.3621 31.9243 18.9863 32 18.6067 32ZM9.88126 8.43867C9.49918 8.43867 9.13275 8.59178 8.86258 8.86431C8.59241 9.13684 8.44063 9.50647 8.44063 9.89188V29.0791C8.44063 29.4645 8.59241 29.8341 8.86258 30.1066C9.13275 30.3792 9.49918 30.5323 9.88126 30.5323H18.6067C18.9888 30.5323 19.3552 30.3792 19.6254 30.1066C19.8955 29.8341 20.0473 29.4645 20.0473 29.0791V9.90641C20.0473 9.521 19.8955 9.15137 19.6254 8.87884C19.3552 8.60631 18.9888 8.45321 18.6067 8.45321L9.88126 8.43867Z" fill="white"/>
<path d="M14.274 15.3025C13.763 15.3025 13.2635 15.1497 12.8386 14.8633C12.4138 14.5769 12.0826 14.1699 11.8871 13.6937C11.6915 13.2175 11.6404 12.6935 11.7401 12.188C11.8398 11.6825 12.0858 11.2181 12.4471 10.8536C12.8084 10.4892 13.2688 10.241 13.7699 10.1404C14.2711 10.0399 14.7906 10.0915 15.2626 10.2887C15.7347 10.486 16.1382 10.82 16.4221 11.2486C16.706 11.6771 16.8575 12.181 16.8575 12.6964C16.8575 13.0387 16.7907 13.3775 16.6608 13.6937C16.531 14.0099 16.3407 14.2972 16.1008 14.5392C15.8609 14.7812 15.5761 14.9732 15.2626 15.1041C14.9492 15.2351 14.6132 15.3025 14.274 15.3025ZM14.274 11.5435C14.0479 11.5435 13.8269 11.6112 13.639 11.7378C13.4511 11.8645 13.3046 12.0446 13.2181 12.2552C13.1316 12.4659 13.1089 12.6977 13.153 12.9213C13.1971 13.145 13.306 13.3504 13.4658 13.5116C13.6256 13.6729 13.8293 13.7827 14.051 13.8271C14.2727 13.8716 14.5025 13.8488 14.7113 13.7615C14.9202 13.6743 15.0987 13.5265 15.2242 13.3369C15.3498 13.1473 15.4169 12.9244 15.4169 12.6964C15.4194 12.5432 15.3918 12.3909 15.3355 12.2485C15.2793 12.1062 15.1956 11.9765 15.0893 11.867C14.9829 11.7575 14.8561 11.6703 14.7162 11.6107C14.5762 11.551 14.4259 11.5199 14.274 11.5193V11.5435Z" fill="white"/>
<path d="M14.5241 17.1238H14.0199C13.455 17.1238 12.9971 17.5857 12.9971 18.1556V18.6642C12.9971 19.234 13.455 19.696 14.0199 19.696H14.5241C15.089 19.696 15.547 19.234 15.547 18.6642V18.1556C15.547 17.5857 15.089 17.1238 14.5241 17.1238Z" fill="white"/>
<path d="M10.8503 17.1238H10.3461C9.78119 17.1238 9.32324 17.5857 9.32324 18.1556V18.6642C9.32324 19.234 9.78119 19.696 10.3461 19.696H10.8503C11.4152 19.696 11.8732 19.234 11.8732 18.6642V18.1556C11.8732 17.5857 11.4152 17.1238 10.8503 17.1238Z" fill="white"/>
<path d="M18.198 17.1238H17.6937C17.1288 17.1238 16.6709 17.5857 16.6709 18.1556V18.6642C16.6709 19.234 17.1288 19.696 17.6937 19.696H18.198C18.7629 19.696 19.2208 19.234 19.2208 18.6642V18.1556C19.2208 17.5857 18.7629 17.1238 18.198 17.1238Z" fill="white"/>
<path d="M14.5241 20.8296H14.0199C13.455 20.8296 12.9971 21.2915 12.9971 21.8614V22.37C12.9971 22.9398 13.455 23.4018 14.0199 23.4018H14.5241C15.089 23.4018 15.547 22.9398 15.547 22.37V21.8614C15.547 21.2915 15.089 20.8296 14.5241 20.8296Z" fill="white"/>
<path d="M10.8503 20.8296H10.3461C9.78119 20.8296 9.32324 21.2915 9.32324 21.8614V22.37C9.32324 22.9398 9.78119 23.4018 10.3461 23.4018H10.8503C11.4152 23.4018 11.8732 22.9398 11.8732 22.37V21.8614C11.8732 21.2915 11.4152 20.8296 10.8503 20.8296Z" fill="white"/>
<path d="M18.198 20.8296H17.6937C17.1288 20.8296 16.6709 21.2915 16.6709 21.8614V22.37C16.6709 22.9398 17.1288 23.4018 17.6937 23.4018H18.198C18.7629 23.4018 19.2208 22.9398 19.2208 22.37V21.8614C19.2208 21.2915 18.7629 20.8296 18.198 20.8296Z" fill="white"/>
<path d="M14.5241 24.5352H14.0199C13.455 24.5352 12.9971 24.9971 12.9971 25.5669V26.0804C12.9971 26.6502 13.455 27.1122 14.0199 27.1122H14.5241C15.089 27.1122 15.547 26.6502 15.547 26.0804V25.5669C15.547 24.9971 15.089 24.5352 14.5241 24.5352Z" fill="white"/>
<path d="M10.8503 24.5352H10.3461C9.78119 24.5352 9.32324 24.9971 9.32324 25.5669V26.0804C9.32324 26.6502 9.78119 27.1122 10.3461 27.1122H10.8503C11.4152 27.1122 11.8732 26.6502 11.8732 26.0804V25.5669C11.8732 24.9971 11.4152 24.5352 10.8503 24.5352Z" fill="white"/>
<path d="M18.198 24.5352H17.6937C17.1288 24.5352 16.6709 24.9971 16.6709 25.5669V26.0804C16.6709 26.6502 17.1288 27.1122 17.6937 27.1122H18.198C18.7629 27.1122 19.2208 26.6502 19.2208 26.0804V25.5669C19.2208 24.9971 18.7629 24.5352 18.198 24.5352Z" fill="white"/>
<path d="M28.3643 27.4514C28.1845 27.4473 28.0129 27.3746 27.8841 27.2479C27.7492 27.1117 27.6734 26.927 27.6734 26.7345C27.6734 26.5419 27.7492 26.3572 27.8841 26.221C29.6214 24.3754 30.58 21.9211 30.5576 19.3761C30.5352 16.8311 29.5336 14.3944 27.764 12.5802C27.6975 12.5122 27.6449 12.4316 27.6093 12.343C27.5736 12.2544 27.5556 12.1596 27.5563 12.0641C27.557 11.9685 27.5763 11.874 27.6132 11.7859C27.65 11.6979 27.7038 11.618 27.7712 11.5509C27.9075 11.4153 28.0916 11.34 28.2829 11.3413C28.3777 11.342 28.4714 11.3615 28.5587 11.3987C28.646 11.4359 28.7251 11.4901 28.7917 11.5581C30.8243 13.6417 31.9745 16.4405 31.9996 19.3635C32.0247 22.2865 30.9226 25.105 28.9261 27.2237C28.8547 27.3008 28.7673 27.3611 28.6703 27.4005C28.5732 27.4398 28.4687 27.4572 28.3643 27.4514ZM25.992 25.1359C25.8519 25.1347 25.7151 25.0925 25.5982 25.0144C25.4813 24.9364 25.3894 24.8258 25.3335 24.6962C25.2776 24.5665 25.2602 24.4233 25.2833 24.2838C25.3064 24.1444 25.3691 24.0147 25.4638 23.9104C26.6089 22.6872 27.2376 21.0628 27.2169 19.3805C27.1963 17.6982 26.5281 16.09 25.3534 14.8957C25.2829 14.8288 25.2266 14.7483 25.1877 14.659C25.1487 14.5697 25.128 14.4734 25.1268 14.3759C25.1256 14.2783 25.1438 14.1815 25.1805 14.0912C25.2171 14.001 25.2714 13.919 25.3401 13.8504C25.4088 13.7817 25.4906 13.7277 25.5804 13.6916C25.6702 13.6555 25.7664 13.638 25.8631 13.6402C25.9598 13.6423 26.055 13.6641 26.1432 13.7042C26.2313 13.7443 26.3106 13.8019 26.3762 13.8736C27.8134 15.3357 28.6312 17.3038 28.6572 19.3625C28.6832 21.4213 27.9152 23.4098 26.5155 24.9083C26.4477 24.9795 26.3664 25.0363 26.2765 25.0754C26.1867 25.1145 26.0899 25.1351 25.992 25.1359ZM23.9656 23.1644C23.8254 23.1644 23.6883 23.1232 23.571 23.0458C23.4537 22.9683 23.3614 22.8581 23.3053 22.7285C23.2492 22.5989 23.2319 22.4557 23.2553 22.3163C23.2788 22.1769 23.342 22.0474 23.4373 21.9437C24.0756 21.2498 24.4214 20.3327 24.4016 19.3863C24.3819 18.4399 23.9983 17.5383 23.3317 16.872C23.196 16.7359 23.1196 16.5509 23.1191 16.3579C23.1187 16.1648 23.1943 15.9795 23.3293 15.8427C23.4643 15.7059 23.6476 15.6287 23.839 15.6283C24.0304 15.6278 24.2141 15.7041 24.3497 15.8403C25.2801 16.7731 25.8151 18.0338 25.8419 19.3567C25.8688 20.6797 25.3855 21.9614 24.4938 22.9319C24.4265 23.0055 24.3448 23.0642 24.2539 23.1042C24.163 23.1442 24.0648 23.1647 23.9656 23.1644Z" fill="white"/>
</svg>
