<svg width="40" height="40" viewBox="0 0 40 40" fill="none" xmlns="http://www.w3.org/2000/svg">
<path d="M40 20C40 8.9543 31.0457 -1.35705e-06 20 -8.74228e-07C8.9543 -3.91405e-07 -1.35705e-06 8.9543 -8.74228e-07 20C-3.91405e-07 31.0457 8.9543 40 20 40C31.0457 40 40 31.0457 40 20Z" fill=""/>
<path d="M26.0639 21.2069H25.9267L11.9796 18.5353C11.891 18.5188 11.8068 18.4858 11.7317 18.4383C11.6567 18.3908 11.5925 18.3297 11.5427 18.2585C11.4929 18.1873 11.4586 18.1075 11.4417 18.0236C11.4248 17.9398 11.4257 17.8536 11.4444 17.7701L12.986 10.5249C13.0039 10.44 13.0396 10.3593 13.0908 10.2875C13.1421 10.2157 13.208 10.1543 13.2846 10.1068C13.3612 10.0594 13.4471 10.0268 13.5372 10.011C13.6273 9.99516 13.7198 9.99645 13.8093 10.0148L27.761 12.6734C27.8493 12.6904 27.9332 12.7237 28.0079 12.7713C28.0826 12.819 28.1466 12.8801 28.1963 12.9512C28.246 13.0222 28.2804 13.1018 28.2975 13.1855C28.3147 13.2691 28.3142 13.3551 28.2962 13.4385L26.7363 20.6881C26.7047 20.8346 26.6205 20.9662 26.4979 21.0608C26.3754 21.1553 26.2221 21.2069 26.0639 21.2069ZM12.9173 17.394L25.5241 19.7933L26.8004 13.819L14.1936 11.4154L12.9173 17.394Z" fill="white"/>
<path d="M28.781 19.7029C28.7354 19.7072 28.6894 19.7072 28.6438 19.7029L26.3566 19.2706C26.2685 19.2541 26.1847 19.2213 26.11 19.1741C26.0354 19.1268 25.9713 19.0661 25.9216 18.9954C25.8719 18.9247 25.8374 18.8454 25.8202 18.762C25.803 18.6787 25.8034 18.593 25.8214 18.5098L26.5442 15.1206C26.5804 14.9525 26.6857 14.8048 26.8369 14.7099C26.9114 14.6628 26.995 14.6301 27.083 14.6138C27.1709 14.5975 27.2614 14.5978 27.3492 14.6148L29.6364 15.0471C29.7247 15.0641 29.8086 15.0974 29.8833 15.1451C29.958 15.1927 30.022 15.2538 30.0717 15.3249C30.1214 15.396 30.1558 15.4756 30.173 15.5592C30.1901 15.6428 30.1896 15.7288 30.1716 15.8123L29.4534 19.1928C29.42 19.3377 29.335 19.4673 29.2126 19.5602C29.0902 19.653 28.9379 19.7034 28.781 19.7029ZM27.2852 18.1077L28.2412 18.2893L28.6987 16.1754L27.7381 15.9938L27.2852 18.1077Z" fill="white"/>
<path d="M31.2881 20.9608C31.1779 20.9627 31.0691 20.9374 30.9725 20.8873L28.4475 19.6423C28.316 19.5764 28.2105 19.4723 28.1462 19.3455C28.082 19.2187 28.0625 19.0757 28.0907 18.9376L28.8134 15.5528C28.8439 15.4159 28.9197 15.2918 29.03 15.1985C29.1402 15.1052 29.2791 15.0476 29.4264 15.034L32.2533 14.8049C32.3595 14.7958 32.4664 14.8102 32.5657 14.847C32.6649 14.8837 32.7537 14.9419 32.8251 15.0167C32.8969 15.0918 32.9488 15.1818 32.9767 15.2795C33.0045 15.3772 33.0074 15.4797 32.9852 15.5787L31.9605 20.442C31.9399 20.5407 31.8952 20.6334 31.8301 20.7129C31.765 20.7925 31.6813 20.8566 31.5854 20.9003C31.4917 20.9393 31.3905 20.9599 31.2881 20.9608ZM29.5544 18.7172L30.7987 19.3353L31.4757 16.1709L30.0713 16.2833L29.5544 18.7172Z" fill="white"/>
<path d="M8.68615 30.0001C8.50417 30.0001 8.32965 29.9317 8.20097 29.8101C8.07229 29.6885 8 29.5236 8 29.3516V21.8643C8 21.6923 8.07229 21.5274 8.20097 21.4057C8.32965 21.2841 8.50417 21.2158 8.68615 21.2158C9.18894 21.2158 9.6868 21.3094 10.1513 21.4912C10.6158 21.6731 11.0379 21.9396 11.3934 22.2756C11.749 22.6116 12.031 23.0105 12.2234 23.4495C12.4158 23.8885 12.5148 24.359 12.5148 24.8341V26.3774C12.5148 27.3375 12.1116 28.2582 11.3937 28.9375C10.6758 29.6167 9.702 29.9989 8.68615 30.0001ZM9.37229 22.6035V28.6081C9.88281 28.467 10.3312 28.1734 10.6504 27.7712C10.9695 27.3691 11.1422 26.8801 11.1425 26.3774V24.8341C11.1422 24.3315 10.9695 23.8424 10.6504 23.4403C10.3312 23.0382 9.88281 22.7446 9.37229 22.6035Z" fill="white"/>
<path d="M18.2237 28.0243C17.7169 28.0243 17.2214 27.8822 16.8001 27.616C16.3787 27.3498 16.0504 26.9715 15.8567 26.5289C15.6629 26.0863 15.6125 25.5993 15.7117 25.1296C15.8109 24.6599 16.0553 24.2285 16.414 23.8901C16.7727 23.5518 17.2296 23.3215 17.7268 23.2286C18.224 23.1357 18.7392 23.1842 19.2072 23.3681C19.6752 23.552 20.0749 23.863 20.3558 24.2617C20.6368 24.6603 20.7862 25.1288 20.7853 25.6078C20.7841 26.2491 20.5137 26.8637 20.0334 27.3168C19.5532 27.7699 18.9023 28.0243 18.2237 28.0243ZM18.2237 24.4838C17.9885 24.4838 17.7585 24.5497 17.563 24.6732C17.3674 24.7968 17.2149 24.9723 17.1249 25.1777C17.0349 25.383 17.0114 25.609 17.0572 25.8271C17.1031 26.0451 17.2164 26.2454 17.3827 26.4026C17.5491 26.5597 17.761 26.6668 17.9917 26.7102C18.2224 26.7535 18.4615 26.7313 18.6789 26.6462C18.8962 26.5611 19.0819 26.4171 19.2126 26.2322C19.3433 26.0474 19.413 25.8301 19.413 25.6078C19.4136 25.46 19.3833 25.3136 19.3237 25.177C19.2642 25.0404 19.1766 24.9162 19.066 24.8118C18.9555 24.7073 18.8241 24.6245 18.6796 24.5682C18.535 24.5119 18.3801 24.4833 18.2237 24.4838Z" fill="white"/>
<path d="M16.9291 27.5405H11.8287C11.6471 27.5394 11.4733 27.4707 11.3449 27.3493C11.2165 27.228 11.1438 27.0637 11.1426 26.8921V24.3242C11.1426 24.1522 11.2149 23.9873 11.3435 23.8657C11.4722 23.7441 11.6467 23.6758 11.8287 23.6758H16.9291C17.111 23.6758 17.2856 23.7441 17.4143 23.8657C17.5429 23.9873 17.6152 24.1522 17.6152 24.3242C17.6152 24.4962 17.5429 24.6611 17.4143 24.7827C17.2856 24.9043 17.111 24.9727 16.9291 24.9727H12.5149V26.2436H16.9291C17.111 26.2436 17.2856 26.3119 17.4143 26.4335C17.5429 26.5551 17.6152 26.7201 17.6152 26.8921C17.6152 27.064 17.5429 27.229 17.4143 27.3506C17.2856 27.4722 17.111 27.5405 16.9291 27.5405Z" fill="white"/>
<path d="M19.8244 25.3228H19.6917C19.603 25.3063 19.5186 25.2734 19.4434 25.2259C19.3682 25.1785 19.3037 25.1174 19.2535 25.0463C19.2033 24.9752 19.1685 24.8954 19.1511 24.8116C19.1337 24.7277 19.134 24.6414 19.152 24.5577L20.0668 20.1872L18.7494 19.9364L17.8346 24.2594C17.7992 24.4278 17.6946 24.5761 17.5436 24.6718C17.3927 24.7674 17.2078 24.8025 17.0295 24.7695C16.8578 24.7321 16.7076 24.6346 16.6091 24.4966C16.5106 24.3586 16.4712 24.1904 16.4989 24.0259L17.5555 19.0675C17.5719 18.981 17.6065 18.8985 17.6574 18.8249C17.7083 18.7513 17.7743 18.6882 17.8517 18.6394C17.929 18.5905 18.0159 18.557 18.1073 18.5406C18.1987 18.5243 18.2926 18.5256 18.3835 18.5444L21.0457 19.0502C21.2243 19.0847 21.3813 19.1844 21.4824 19.3277C21.5835 19.4711 21.6206 19.6464 21.5855 19.8154L20.4968 24.8214C20.4615 24.9646 20.3758 25.0923 20.2536 25.1834C20.1314 25.2746 19.98 25.3237 19.8244 25.3228Z" fill="white"/>
</svg>
