<svg width="40" height="40" viewBox="0 0 40 40" fill="none" xmlns="http://www.w3.org/2000/svg">
<path d="M40 20C40 8.9543 31.0457 -1.35705e-06 20 -8.74228e-07C8.9543 -3.91405e-07 -1.35705e-06 8.9543 -8.74228e-07 20C-3.91405e-07 31.0457 8.9543 40 20 40C31.0457 40 40 31.0457 40 20Z" fill=""/>
<path d="M32.2067 27.3053H8.79331C8.58291 27.3053 8.38113 27.2187 8.23236 27.0647C8.08358 26.9106 8 26.7017 8 26.4838V10.8215C8 10.6036 8.08358 10.3947 8.23236 10.2406C8.38113 10.0865 8.58291 10 8.79331 10H32.2067C32.4171 10 32.6189 10.0865 32.7676 10.2406C32.9164 10.3947 33 10.6036 33 10.8215V26.4838C33 26.7017 32.9164 26.9106 32.7676 27.0647C32.6189 27.2187 32.4171 27.3053 32.2067 27.3053ZM9.61307 25.6624H31.3869V11.6539H9.58663L9.61307 25.6624Z" fill="white"/>
<path d="M25.438 30.0001H15.5375C15.3271 30.0001 15.1253 29.9135 14.9765 29.7595C14.8277 29.6054 14.7441 29.3965 14.7441 29.1786C14.7441 28.9608 14.8277 28.7518 14.9765 28.5978C15.1253 28.4437 15.3271 28.3572 15.5375 28.3572H25.438C25.6484 28.3572 25.8502 28.4437 25.999 28.5978C26.1478 28.7518 26.2313 28.9608 26.2313 29.1786C26.2313 29.3965 26.1478 29.6054 25.999 29.7595C25.8502 29.9135 25.6484 30.0001 25.438 30.0001Z" fill="white"/>
</svg>
