<svg width="40" height="40" viewBox="0 0 40 40" fill="none" xmlns="http://www.w3.org/2000/svg">
<path d="M40 20C40 8.9543 31.0457 -1.35705e-06 20 -8.74228e-07C8.9543 -3.91405e-07 -1.35705e-06 8.9543 -8.74228e-07 20C-3.91405e-07 31.0457 8.9543 40 20 40C31.0457 40 40 31.0457 40 20Z" fill=""/>
<path d="M19.5 32C17.0277 32 14.611 31.2669 12.5554 29.8934C10.4998 28.5199 8.89761 26.5676 7.95151 24.2835C7.00542 21.9995 6.75787 19.4861 7.24019 17.0614C7.7225 14.6366 8.91301 12.4093 10.6612 10.6612C12.4093 8.91301 14.6366 7.7225 17.0614 7.24019C19.4861 6.75787 21.9995 7.00542 24.2835 7.95151C26.5676 8.89761 28.5199 10.4998 29.8934 12.5554C31.2669 14.611 32 17.0277 32 19.5C31.9961 22.814 30.6779 25.9912 28.3345 28.3345C25.9912 30.6779 22.814 31.9961 19.5 32ZM19.5 8.47464C17.3194 8.47464 15.1878 9.12127 13.3746 10.3327C11.5615 11.5442 10.1484 13.2662 9.3139 15.2808C8.47941 17.2954 8.26107 19.5122 8.68649 21.6509C9.11191 23.7897 10.162 25.7542 11.7039 27.2961C13.2458 28.838 15.2104 29.8881 17.3491 30.3135C19.4878 30.7389 21.7046 30.5206 23.7192 29.6861C25.7338 28.8516 27.4558 27.4385 28.6673 25.6254C29.8787 23.8123 30.5254 21.6806 30.5254 19.5C30.5228 16.5767 29.3603 13.7739 27.2932 11.7068C25.2261 9.63968 22.4233 8.47724 19.5 8.47464Z" fill="white"/>
<path d="M19.5 32C15.0466 32 11.5566 26.5094 11.5566 19.5C11.5566 12.4906 15.0466 7 19.5 7V8.47464C15.9314 8.47464 13.0313 13.4196 13.0313 19.5C13.0313 25.5804 15.9314 30.5254 19.5 30.5254V32Z" fill="white"/>
<path d="M19.5 32V30.5254C23.0686 30.5254 25.9687 25.5804 25.9687 19.5C25.9687 13.4196 23.0932 8.47464 19.5 8.47464V7C23.9534 7 27.4434 12.4906 27.4434 19.5C27.4434 26.5094 23.9534 32 19.5 32Z" fill="white"/>
<path d="M20.2373 7.74731H18.7627V31.2432H20.2373V7.74731Z" fill="white"/>
<path d="M31.2478 18.7627H7.75195V20.2373H31.2478V18.7627Z" fill="white"/>
<path d="M19.5196 26.0425C14.5747 26.0425 8.97109 25.1626 7.58984 23.1915L8.79905 22.346C9.56586 23.4225 13.7833 24.5678 19.5196 24.5678C25.256 24.5678 29.4833 23.4225 30.2452 22.3313L31.4495 23.1718C30.0731 25.1479 24.4695 26.0425 19.5196 26.0425Z" fill="white"/>
<path d="M8.77463 16.6686L7.56543 15.828C8.94667 13.8619 14.5552 12.9722 19.5001 12.9722C24.4451 12.9722 30.0536 13.852 31.4496 15.828L30.2208 16.6686C29.4834 15.5774 25.2365 14.4468 19.5001 14.4468C13.7638 14.4468 9.54144 15.5774 8.77463 16.6686Z" fill="white"/>
</svg>
