<svg width="24" height="24" viewBox="-6 -5.5 24 24" fill="none" xmlns="http://www.w3.org/2000/svg">
<path d="M3.19079 7.10163C3.16901 7.07753 3.12545 7.05343 3.10367 7.02933C3.03834 6.98113 2.973 6.95703 2.88589 6.95703C2.77699 6.95703 2.6681 6.95703 2.55921 6.95703C2.53743 6.95703 2.53743 6.95703 2.51565 6.95703C2.45031 6.95703 2.40676 6.95703 2.34142 7.00523C2.29786 7.02933 2.23253 7.05343 2.21075 7.10163C2.18897 7.12573 2.16719 7.17393 2.14541 7.19803C2.10186 7.27032 2.08008 7.34262 2.08008 7.43902C2.08008 7.55952 2.08008 7.68001 2.08008 7.80051C2.08008 7.82461 2.08008 7.82461 2.08008 7.84871C2.08008 7.92101 2.08008 7.96921 2.12364 8.0415C2.14541 8.0897 2.16719 8.162 2.21075 8.1861C2.23253 8.2102 2.27609 8.2343 2.29786 8.2584C2.3632 8.3066 2.42854 8.3307 2.51565 8.3307C2.62454 8.3307 2.73344 8.3307 2.84233 8.3307C2.86411 8.3307 2.86411 8.3307 2.88589 8.3307C2.92944 8.3307 2.95122 8.3307 2.99478 8.3066C2.99478 8.3066 2.99478 8.3066 3.01656 8.3066C3.06011 8.2825 3.10367 8.2825 3.12545 8.2584C3.14723 8.2343 3.19079 8.2102 3.21256 8.1861C3.23434 8.162 3.25612 8.1379 3.2779 8.0897C3.2779 8.0656 3.29968 8.0415 3.29968 8.0415C3.29968 8.0174 3.32146 7.9933 3.32146 7.96921C3.32146 7.92101 3.34324 7.89691 3.34324 7.84871C3.34324 7.72821 3.34324 7.60771 3.34324 7.48722C3.34324 7.46312 3.34324 7.46312 3.34324 7.43902C3.34324 7.36672 3.34324 7.31852 3.29968 7.24622C3.25612 7.19803 3.23434 7.12573 3.19079 7.10163Z" fill="#0A85DD"/>
<path d="M4.95446 7.10163C4.93268 7.07753 4.88912 7.05343 4.86734 7.02933C4.80201 6.98113 4.73667 6.95703 4.64956 6.95703C4.54066 6.95703 4.43177 6.95703 4.32288 6.95703C4.3011 6.95703 4.3011 6.95703 4.27932 6.95703C4.21399 6.95703 4.17043 6.95703 4.10509 7.00523C4.06154 7.02933 3.9962 7.05343 3.97442 7.10163C3.95264 7.12573 3.93086 7.17393 3.90909 7.19803C3.86553 7.27032 3.84375 7.34262 3.84375 7.43902C3.84375 7.55952 3.84375 7.68001 3.84375 7.80051C3.84375 7.82461 3.84375 7.82461 3.84375 7.84871C3.84375 7.92101 3.84375 7.96921 3.88731 8.0415C3.90909 8.0897 3.93086 8.162 3.97442 8.1861C3.9962 8.2102 4.03976 8.2343 4.06154 8.2584C4.12687 8.3066 4.19221 8.3307 4.27932 8.3307C4.38821 8.3307 4.49711 8.3307 4.606 8.3307C4.62778 8.3307 4.62778 8.3307 4.64956 8.3307C4.69311 8.3307 4.71489 8.3307 4.75845 8.3066C4.75845 8.3066 4.75845 8.3066 4.78023 8.3066C4.82379 8.2825 4.86734 8.2825 4.88912 8.2584C4.9109 8.2343 4.95446 8.2102 4.97624 8.1861C4.99802 8.162 5.01979 8.1379 5.04157 8.0897C5.04157 8.0656 5.06335 8.0415 5.06335 8.0415C5.06335 8.0174 5.08513 7.9933 5.08513 7.96921C5.08513 7.92101 5.10691 7.89691 5.10691 7.84871C5.10691 7.72821 5.10691 7.60771 5.10691 7.48722C5.10691 7.46312 5.10691 7.46312 5.10691 7.43902C5.10691 7.36672 5.10691 7.31852 5.06335 7.24622C5.01979 7.19803 4.99802 7.12573 4.95446 7.10163Z" fill="#0A85DD"/>
<path d="M8.06872 8.78791C8.04694 8.76381 8.00338 8.73971 7.9816 8.71561C7.91627 8.66741 7.85093 8.64331 7.76382 8.64331C7.65492 8.64331 7.54603 8.64331 7.43714 8.64331C7.41536 8.64331 7.41536 8.64331 7.39358 8.64331C7.32824 8.64331 7.28469 8.64331 7.21935 8.69151C7.17579 8.71561 7.11046 8.73971 7.08868 8.78791C7.0669 8.81201 7.04512 8.8602 7.02334 8.8843C6.97979 8.9566 6.95801 9.0289 6.95801 9.1253C6.95801 9.2458 6.95801 9.36629 6.95801 9.48679C6.95801 9.51089 6.95801 9.51089 6.95801 9.53499C6.95801 9.60729 6.95801 9.65548 7.00157 9.72778C7.02334 9.77598 7.04512 9.84828 7.08868 9.87238C7.11046 9.89648 7.15402 9.92058 7.17579 9.94468C7.24113 9.99288 7.30647 10.017 7.39358 10.017C7.50247 10.017 7.61137 10.017 7.72026 10.017C7.74204 10.017 7.74204 10.017 7.76382 10.017C7.80737 10.017 7.82915 10.017 7.87271 9.99288C7.87271 9.99288 7.87271 9.99288 7.89449 9.99288C7.93804 9.96878 7.9816 9.96878 8.00338 9.94468C8.02516 9.92058 8.06872 9.89648 8.09049 9.87238C8.11227 9.84828 8.13405 9.82418 8.15583 9.77598C8.15583 9.75188 8.17761 9.72778 8.17761 9.72778C8.17761 9.70368 8.19939 9.67958 8.19939 9.65548C8.19939 9.60729 8.22117 9.58319 8.22117 9.53499C8.22117 9.41449 8.22117 9.29399 8.22117 9.1735C8.22117 9.1494 8.22117 9.1494 8.22117 9.1253C8.22117 9.053 8.22117 9.0048 8.17761 8.9325C8.13405 8.8843 8.11227 8.83611 8.06872 8.78791Z" fill="#0A85DD"/>
<path d="M9.92003 8.78791C9.89825 8.76381 9.8547 8.73971 9.83292 8.71561C9.76758 8.66741 9.70225 8.64331 9.61513 8.64331C9.50624 8.64331 9.39735 8.64331 9.28846 8.64331C9.26668 8.64331 9.26668 8.64331 9.2449 8.64331C9.17956 8.64331 9.13601 8.64331 9.07067 8.69151C9.02711 8.71561 8.96178 8.73971 8.94 8.78791C8.91822 8.81201 8.89644 8.8602 8.87466 8.8843C8.8311 8.9566 8.80933 9.0289 8.80933 9.1253C8.80933 9.2458 8.80933 9.36629 8.80933 9.48679C8.80933 9.51089 8.80933 9.51089 8.80933 9.53499C8.80933 9.60729 8.80933 9.65548 8.85288 9.72778C8.87466 9.77598 8.89644 9.84828 8.94 9.87238C8.96178 9.89648 9.00533 9.92058 9.02711 9.94468C9.09245 9.99288 9.15778 10.017 9.2449 10.017C9.35379 10.017 9.46268 10.017 9.57158 10.017C9.59336 10.017 9.59336 10.017 9.61513 10.017C9.65869 10.017 9.68047 10.017 9.72403 9.99288C9.72403 9.99288 9.72403 9.99288 9.74581 9.99288C9.78936 9.96878 9.83292 9.96878 9.8547 9.94468C9.87648 9.92058 9.92003 9.89648 9.94181 9.87238C9.96359 9.84828 9.98537 9.82418 10.0071 9.77598C10.0071 9.75188 10.0289 9.72778 10.0289 9.72778C10.0289 9.70368 10.0507 9.67958 10.0507 9.65548C10.0507 9.60729 10.0725 9.58319 10.0725 9.53499C10.0725 9.41449 10.0725 9.29399 10.0725 9.1735C10.0725 9.1494 10.0725 9.1494 10.0725 9.1253C10.0725 9.053 10.0725 9.0048 10.0289 8.9325C9.98537 8.8843 9.96359 8.83611 9.92003 8.78791Z" fill="#0A85DD"/>
<path d="M9.92003 10.4996C9.89825 10.4755 9.8547 10.4514 9.83292 10.4273C9.76758 10.3791 9.70225 10.355 9.61513 10.355C9.50624 10.355 9.39735 10.355 9.28846 10.355C9.26668 10.355 9.26668 10.355 9.2449 10.355C9.17956 10.355 9.13601 10.355 9.07067 10.4032C9.02711 10.4273 8.96178 10.4514 8.94 10.4996C8.91822 10.5237 8.89644 10.5719 8.87466 10.596C8.8311 10.6683 8.80933 10.7406 8.80933 10.837C8.80933 10.9575 8.80933 11.078 8.80933 11.1985C8.80933 11.2226 8.80933 11.2226 8.80933 11.2467C8.80933 11.319 8.80933 11.3672 8.85288 11.4395C8.87466 11.4877 8.89644 11.5599 8.94 11.584C8.96178 11.6081 9.00533 11.6322 9.02711 11.6563C9.09245 11.7045 9.15778 11.7286 9.2449 11.7286C9.35379 11.7286 9.46268 11.7286 9.57158 11.7286C9.59336 11.7286 9.59336 11.7286 9.61513 11.7286C9.65869 11.7286 9.68047 11.7286 9.72403 11.7045C9.72403 11.7045 9.72403 11.7045 9.74581 11.7045C9.78936 11.6804 9.83292 11.6804 9.8547 11.6563C9.87648 11.6322 9.92003 11.6081 9.94181 11.584C9.96359 11.5599 9.98537 11.5359 10.0071 11.4877C10.0071 11.4636 10.0289 11.4395 10.0289 11.4395C10.0289 11.4154 10.0507 11.3913 10.0507 11.3672C10.0507 11.319 10.0725 11.2949 10.0725 11.2467C10.0725 11.1262 10.0725 11.0057 10.0725 10.8852C10.0725 10.8611 10.0725 10.8611 10.0725 10.837C10.0725 10.7647 10.0725 10.7165 10.0289 10.6442C9.98537 10.596 9.96359 10.5478 9.92003 10.4996Z" fill="#0A85DD"/>
<path d="M8.04699 10.4512C8.02521 10.4271 7.98165 10.403 7.95987 10.3789C7.89454 10.3307 7.8292 10.3066 7.74209 10.3066C7.63319 10.3066 7.5243 10.3066 7.41541 10.3066C7.39363 10.3066 7.39363 10.3066 7.37185 10.3066C7.30652 10.3066 7.26296 10.3066 7.19762 10.3548C7.15407 10.3789 7.08873 10.403 7.06695 10.4512C7.04517 10.4753 7.02339 10.5235 7.00162 10.5476C6.95806 10.6199 6.93628 10.6922 6.93628 10.7886C6.93628 10.9091 6.93628 11.0296 6.93628 11.1501C6.93628 11.1742 6.93628 11.1742 6.93628 11.1983C6.93628 11.2706 6.93628 11.3188 6.97984 11.3911C7.00162 11.4393 7.02339 11.5116 7.06695 11.5357C7.08873 11.5598 7.13229 11.5839 7.15407 11.608C7.2194 11.6562 7.28474 11.6803 7.37185 11.6803C7.48074 11.6803 7.58964 11.6803 7.69853 11.6803C7.72031 11.6803 7.72031 11.6803 7.74209 11.6803C7.78564 11.6803 7.80742 11.6803 7.85098 11.6562C7.85098 11.6562 7.85098 11.6562 7.87276 11.6562C7.91632 11.6321 7.95987 11.6321 7.98165 11.608C8.00343 11.5839 8.04699 11.5598 8.06877 11.5357C8.09054 11.5116 8.11232 11.4875 8.1341 11.4393C8.1341 11.4152 8.15588 11.3911 8.15588 11.3911C8.15588 11.367 8.17766 11.3429 8.17766 11.3188C8.17766 11.2706 8.19944 11.2465 8.19944 11.1983C8.19944 11.0778 8.19944 10.9573 8.19944 10.8368C8.19944 10.8127 8.19944 10.8127 8.19944 10.7886C8.19944 10.7163 8.19944 10.6681 8.15588 10.5958C8.11232 10.5476 8.09054 10.4994 8.04699 10.4512Z" fill="#0A85DD"/>
<path d="M7.1543 5.24518C7.17608 5.26928 7.21964 5.29338 7.24142 5.31748C7.30675 5.36568 7.37209 5.38978 7.4592 5.38978C7.5681 5.38978 7.67699 5.38978 7.78588 5.38978C7.80766 5.38978 7.80766 5.38978 7.82944 5.38978C7.873 5.38978 7.89478 5.38978 7.93833 5.36568C7.93833 5.36568 7.93833 5.36568 7.96011 5.36568C8.00367 5.34158 8.04723 5.34158 8.069 5.31748C8.09078 5.29338 8.13434 5.26928 8.15612 5.24518C8.1779 5.22108 8.19968 5.19698 8.22145 5.14878C8.22145 5.12468 8.24323 5.10059 8.24323 5.10059C8.24323 5.07649 8.26501 5.05239 8.26501 5.02829C8.26501 4.98009 8.28679 4.95599 8.28679 4.90779C8.28679 4.78729 8.28679 4.6668 8.28679 4.5463C8.28679 4.5222 8.28679 4.5222 8.28679 4.4981C8.28679 4.4258 8.28679 4.3776 8.24323 4.30531C8.22145 4.25711 8.19968 4.18481 8.15612 4.16071C8.13434 4.13661 8.09078 4.11251 8.069 4.08841C8.00367 4.04021 7.93833 4.01611 7.85122 4.01611C7.74232 4.01611 7.63343 4.01611 7.52454 4.01611C7.50276 4.01611 7.50276 4.01611 7.48098 4.01611C7.41565 4.01611 7.37209 4.01611 7.30675 4.06431C7.2632 4.08841 7.19786 4.11251 7.17608 4.16071C7.1543 4.18481 7.13253 4.23301 7.11075 4.25711C7.06719 4.32941 7.04541 4.4017 7.04541 4.4981C7.04541 4.6186 7.04541 4.73909 7.04541 4.85959C7.04541 4.88369 7.04541 4.88369 7.04541 4.90779C7.04541 4.98009 7.04541 5.02829 7.08897 5.10059C7.08897 5.14878 7.11075 5.19698 7.1543 5.24518Z" fill="#0A85DD"/>
<path d="M5.34669 5.24518C5.36846 5.26928 5.41202 5.29338 5.4338 5.31748C5.49914 5.36568 5.56447 5.38978 5.65159 5.38978C5.76048 5.38978 5.86937 5.38978 5.97827 5.38978C6.00004 5.38978 6.00004 5.38978 6.02182 5.38978C6.06538 5.38978 6.08716 5.38978 6.13072 5.36568C6.13072 5.36568 6.13072 5.36568 6.15249 5.36568C6.19605 5.34158 6.23961 5.34158 6.26139 5.31748C6.28317 5.29338 6.32672 5.26928 6.3485 5.24518C6.37028 5.22108 6.39206 5.19698 6.41384 5.14878C6.41384 5.12468 6.43561 5.10059 6.43561 5.10059C6.43561 5.07649 6.45739 5.05239 6.45739 5.02829C6.45739 4.98009 6.47917 4.95599 6.47917 4.90779C6.47917 4.78729 6.47917 4.6668 6.47917 4.5463C6.47917 4.5222 6.47917 4.5222 6.47917 4.4981C6.47917 4.4258 6.47917 4.3776 6.43561 4.30531C6.41384 4.25711 6.39206 4.18481 6.3485 4.16071C6.32672 4.13661 6.28317 4.11251 6.26139 4.08841C6.19605 4.04021 6.13072 4.01611 6.0436 4.01611C5.93471 4.01611 5.82581 4.01611 5.71692 4.01611C5.69514 4.01611 5.69514 4.01611 5.67336 4.01611C5.60803 4.01611 5.56447 4.01611 5.49914 4.06431C5.45558 4.08841 5.39024 4.11251 5.36846 4.16071C5.34669 4.18481 5.32491 4.23301 5.30313 4.25711C5.25957 4.32941 5.23779 4.4017 5.23779 4.4981C5.23779 4.6186 5.23779 4.73909 5.23779 4.85959C5.23779 4.88369 5.23779 4.88369 5.23779 4.90779C5.23779 4.98009 5.23779 5.02829 5.28135 5.10059C5.25957 5.14878 5.30313 5.22108 5.34669 5.24518Z" fill="#0A85DD"/>
<path d="M4.95446 8.78791C4.93268 8.76381 4.88912 8.73971 4.86734 8.71561C4.80201 8.66741 4.73667 8.64331 4.64956 8.64331C4.54066 8.64331 4.43177 8.64331 4.32288 8.64331C4.3011 8.64331 4.3011 8.64331 4.27932 8.64331C4.21399 8.64331 4.17043 8.64331 4.10509 8.69151C4.06154 8.71561 3.9962 8.73971 3.97442 8.78791C3.95264 8.81201 3.93086 8.8602 3.90909 8.8843C3.86553 8.9566 3.84375 9.0289 3.84375 9.1253C3.84375 9.2458 3.84375 9.36629 3.84375 9.48679C3.84375 9.51089 3.84375 9.51089 3.84375 9.53499C3.84375 9.60729 3.84375 9.65548 3.88731 9.72778C3.90909 9.77598 3.93086 9.84828 3.97442 9.87238C3.9962 9.89648 4.03976 9.92058 4.06154 9.94468C4.12687 9.99288 4.19221 10.017 4.27932 10.017C4.38821 10.017 4.49711 10.017 4.606 10.017C4.62778 10.017 4.62778 10.017 4.64956 10.017C4.69311 10.017 4.71489 10.017 4.75845 9.99288C4.75845 9.99288 4.75845 9.99288 4.78023 9.99288C4.82379 9.96878 4.86734 9.96878 4.88912 9.94468C4.9109 9.92058 4.95446 9.89648 4.97624 9.87238C4.99802 9.84828 5.01979 9.82418 5.04157 9.77598C5.04157 9.75188 5.06335 9.72778 5.06335 9.72778C5.06335 9.70368 5.08513 9.67958 5.08513 9.65548C5.08513 9.60729 5.10691 9.58319 5.10691 9.53499C5.10691 9.41449 5.10691 9.29399 5.10691 9.1735C5.10691 9.1494 5.10691 9.1494 5.10691 9.1253C5.10691 9.053 5.10691 9.0048 5.06335 8.9325C5.01979 8.8843 4.99802 8.83611 4.95446 8.78791Z" fill="#0A85DD"/>
<path d="M4.93273 10.4996C4.91095 10.4755 4.86739 10.4514 4.84562 10.4273C4.78028 10.3791 4.71494 10.355 4.62783 10.355C4.51894 10.355 4.41004 10.355 4.30115 10.355C4.27937 10.355 4.27937 10.355 4.25759 10.355C4.19226 10.355 4.1487 10.355 4.08336 10.4032C4.03981 10.4273 3.97447 10.4514 3.95269 10.4996C3.93091 10.5237 3.90914 10.5719 3.88736 10.596C3.8438 10.6683 3.82202 10.7406 3.82202 10.837C3.82202 10.9575 3.82202 11.078 3.82202 11.1985C3.82202 11.2226 3.82202 11.2226 3.82202 11.2467C3.82202 11.319 3.82202 11.3672 3.86558 11.4395C3.88736 11.4877 3.90914 11.5599 3.95269 11.584C3.97447 11.6081 4.01803 11.6322 4.03981 11.6563C4.10514 11.7045 4.17048 11.7286 4.25759 11.7286C4.36649 11.7286 4.47538 11.7286 4.58427 11.7286C4.60605 11.7286 4.60605 11.7286 4.62783 11.7286C4.67139 11.7286 4.69317 11.7286 4.73672 11.7045C4.73672 11.7045 4.73672 11.7045 4.7585 11.7045C4.80206 11.6804 4.84562 11.6804 4.86739 11.6563C4.88917 11.6322 4.93273 11.6081 4.95451 11.584C4.97629 11.5599 4.99806 11.5359 5.01984 11.4877C5.01984 11.4636 5.04162 11.4395 5.04162 11.4395C5.04162 11.4154 5.0634 11.3913 5.0634 11.3672C5.0634 11.319 5.08518 11.2949 5.08518 11.2467C5.08518 11.1262 5.08518 11.0057 5.08518 10.8852C5.08518 10.8611 5.08518 10.8611 5.08518 10.837C5.08518 10.7647 5.08518 10.7165 5.04162 10.6442C4.99807 10.596 4.97629 10.5478 4.93273 10.4996Z" fill="#0A85DD"/>
<path d="M3.19079 10.5235C3.16901 10.4994 3.12545 10.4753 3.10367 10.4512C3.03834 10.403 2.973 10.3789 2.88589 10.3789C2.77699 10.3789 2.6681 10.3789 2.55921 10.3789C2.53743 10.3789 2.53743 10.3789 2.51565 10.3789C2.45031 10.3789 2.40676 10.3789 2.34142 10.4271C2.29786 10.4512 2.23253 10.4753 2.21075 10.5235C2.18897 10.5476 2.16719 10.5958 2.14541 10.6199C2.10186 10.6922 2.08008 10.7645 2.08008 10.8609C2.08008 10.9814 2.08008 11.1019 2.08008 11.2224C2.08008 11.2465 2.08008 11.2465 2.08008 11.2706C2.08008 11.3429 2.08008 11.3911 2.12364 11.4634C2.14541 11.5116 2.16719 11.5839 2.21075 11.608C2.23253 11.6321 2.27609 11.6562 2.29786 11.6803C2.3632 11.7285 2.42854 11.7526 2.51565 11.7526C2.62454 11.7526 2.73344 11.7526 2.84233 11.7526C2.86411 11.7526 2.86411 11.7526 2.88589 11.7526C2.92944 11.7526 2.95122 11.7526 2.99478 11.7285C2.99478 11.7285 2.99478 11.7285 3.01656 11.7285C3.06011 11.7044 3.10367 11.7044 3.12545 11.6803C3.14723 11.6562 3.19079 11.6321 3.21256 11.608C3.23434 11.5839 3.25612 11.5598 3.2779 11.5116C3.2779 11.4875 3.29968 11.4634 3.29968 11.4634C3.29968 11.4393 3.32146 11.4152 3.32146 11.3911C3.32146 11.3429 3.34324 11.3188 3.34324 11.2706C3.34324 11.1501 3.34324 11.0296 3.34324 10.9091C3.34324 10.885 3.34324 10.885 3.34324 10.8609C3.34324 10.7886 3.34324 10.7404 3.29968 10.6681C3.25612 10.6199 3.23434 10.5476 3.19079 10.5235Z" fill="#0A85DD"/>
<path d="M3.19079 8.78791C3.16901 8.76381 3.12545 8.73971 3.10367 8.71561C3.03834 8.66741 2.973 8.64331 2.88589 8.64331C2.77699 8.64331 2.6681 8.64331 2.55921 8.64331C2.53743 8.64331 2.53743 8.64331 2.51565 8.64331C2.45031 8.64331 2.40676 8.64331 2.34142 8.69151C2.29786 8.71561 2.23253 8.73971 2.21075 8.78791C2.18897 8.81201 2.16719 8.8602 2.14541 8.8843C2.10186 8.9566 2.08008 9.0289 2.08008 9.1253C2.08008 9.2458 2.08008 9.36629 2.08008 9.48679C2.08008 9.51089 2.08008 9.51089 2.08008 9.53499C2.08008 9.60729 2.08008 9.65548 2.12364 9.72778C2.14541 9.77598 2.16719 9.84828 2.21075 9.87238C2.23253 9.89648 2.27609 9.92058 2.29786 9.94468C2.3632 9.99288 2.42854 10.017 2.51565 10.017C2.62454 10.017 2.73344 10.017 2.84233 10.017C2.86411 10.017 2.86411 10.017 2.88589 10.017C2.92944 10.017 2.95122 10.017 2.99478 9.99288C2.99478 9.99288 2.99478 9.99288 3.01656 9.99288C3.06011 9.96878 3.10367 9.96878 3.12545 9.94468C3.14723 9.92058 3.19079 9.89648 3.21256 9.87238C3.23434 9.84828 3.25612 9.82418 3.2779 9.77598C3.2779 9.75188 3.29968 9.72778 3.29968 9.72778C3.29968 9.70368 3.32146 9.67958 3.32146 9.65548C3.32146 9.60729 3.34324 9.58319 3.34324 9.53499C3.34324 9.41449 3.34324 9.29399 3.34324 9.1735C3.34324 9.1494 3.34324 9.1494 3.34324 9.1253C3.34324 9.053 3.34324 9.0048 3.29968 8.9325C3.25612 8.8843 3.23434 8.83611 3.19079 8.78791Z" fill="#0A85DD"/>
<path d="M11.5753 11.9452C11.51 11.9452 11.4664 11.9452 11.4011 11.9452C11.4011 10.933 11.4011 9.92086 11.4011 8.93278C11.4011 8.54719 11.4229 8.1375 11.4011 7.75191C11.3793 7.26993 11.118 6.83614 10.6824 6.71564C10.5299 6.66744 10.3775 6.69154 10.225 6.69154C10.029 6.69154 9.85481 6.69154 9.6588 6.69154C9.6588 5.96856 9.6588 5.24558 9.6588 4.5226C9.6588 4.13701 9.63702 3.79961 9.37568 3.48632C9.13612 3.19713 8.87477 2.93204 8.61343 2.64284C8.26497 2.25725 7.93829 1.89576 7.58984 1.51017C7.30671 1.19688 7.04537 0.811292 6.58802 0.931789C6.3049 1.00409 6.04356 1.38968 5.82577 1.63067C5.47731 2.01626 5.12886 2.40185 4.7804 2.78744C4.54083 3.05253 4.25771 3.31763 4.03993 3.60682C3.90926 3.75142 3.8657 3.94421 3.84392 4.16111C3.23412 3.87191 2.73321 4.64309 2.36298 5.05278C1.90563 5.55887 1.44828 6.06496 0.990926 6.57104C0.794918 6.78794 0.642468 7.00483 0.642468 7.31812C0.642468 7.46272 0.642468 7.63142 0.642468 7.77601C0.642468 9.14968 0.642468 10.5474 0.642468 11.9211V11.9452C0.577132 11.9452 0.490018 11.9452 0.424682 11.9452C-0.141561 11.9452 -0.141561 12.9092 0.424682 12.9092C1.68784 12.9092 2.92922 12.9092 4.19238 12.9092C6.19601 12.9092 8.19964 12.9092 10.1815 12.9092C10.6388 12.9092 11.118 12.9092 11.5753 12.9092C12.1416 12.9092 12.1416 11.9452 11.5753 11.9452ZM6.87114 1.84756C6.9147 1.77527 6.95826 1.82347 6.87114 1.84756V1.84756ZM4.84573 4.08881C4.97641 3.94421 5.0853 3.82371 5.21597 3.67912C5.54265 3.31763 5.86933 2.95614 6.19601 2.59465C6.32668 2.45005 6.47913 2.28135 6.6098 2.13676C6.65336 2.08856 6.71869 2.04036 6.76225 1.96806C6.82759 2.04036 6.89292 2.08856 6.93648 2.13676C7.24138 2.47415 7.56806 2.83564 7.87296 3.17303C8.1343 3.46222 8.41742 3.77552 8.67877 4.06471C8.70054 4.08881 8.7441 4.11291 8.76588 4.16111C8.78766 4.1852 8.78766 4.1852 8.78766 4.1852C8.80944 4.2575 8.78766 4.378 8.78766 4.4503C8.78766 5.19738 8.78766 5.94446 8.78766 6.69154C8.19964 6.69154 7.61162 6.69154 7.02359 6.69154C6.76225 6.69154 6.50091 6.69154 6.28312 6.76384C6.26134 6.73974 6.26134 6.71564 6.23956 6.69154C5.86933 6.25775 5.47731 5.84806 5.0853 5.41427C4.97641 5.29378 4.84573 5.14918 4.73684 5.02868C4.73684 4.88409 4.73684 4.73949 4.73684 4.59489C4.73684 4.4985 4.73684 4.378 4.73684 4.2816C4.73684 4.2816 4.73684 4.2816 4.73684 4.2575C4.7804 4.1852 4.82396 4.11291 4.84573 4.08881ZM5.58621 7.31812C5.56443 7.26993 5.60799 7.26993 5.58621 7.31812V7.31812ZM1.51361 7.34222C1.51361 7.29402 1.53539 7.31812 1.51361 7.34222V7.34222ZM1.81851 11.9452C1.70962 11.9452 1.6225 11.9452 1.51361 11.9452V11.9211C1.51361 10.7643 1.51361 9.60756 1.51361 8.4267C1.51361 8.1375 1.51361 7.87241 1.51361 7.58322C1.51361 7.51092 1.51361 7.43862 1.51361 7.36632V7.34222C1.6225 7.24583 1.7314 7.10123 1.81851 7.00483C2.05808 6.73974 2.27586 6.49875 2.51543 6.23365C2.73321 5.99266 2.97278 5.72757 3.19056 5.48657C3.27768 5.39017 3.36479 5.29378 3.45191 5.19738C3.47368 5.17328 3.51724 5.12508 3.5608 5.07688C3.58258 5.10098 3.60436 5.12508 3.62613 5.12508C3.82214 5.34198 4.01815 5.55887 4.23593 5.79986C4.67151 6.28185 5.0853 6.73974 5.52087 7.22173C5.54265 7.24583 5.56443 7.26993 5.58621 7.29402C5.58621 7.29402 5.58621 7.29402 5.58621 7.31812C5.56443 7.46272 5.56443 7.60732 5.58621 7.77601C5.56443 8.01701 5.58621 8.2821 5.58621 8.49899C5.58621 9.63166 5.58621 10.7643 5.58621 11.9211V11.9452C4.32305 11.9452 3.08167 11.9452 1.81851 11.9452ZM7.80762 11.9452C7.35027 11.9452 6.9147 11.9452 6.45735 11.9452V11.9211C6.45735 11.0053 6.45735 10.0896 6.45735 9.17378C6.45735 8.83638 6.45735 8.49899 6.45735 8.1857C6.45735 8.04111 6.45735 7.89651 6.45735 7.72781C6.50091 7.58322 6.65336 7.63142 6.80581 7.63142C7.8294 7.63142 8.85299 7.63142 9.87659 7.63142C10.0073 7.63142 10.4646 7.53502 10.5082 7.72781C10.5299 7.82421 10.5082 7.94471 10.5082 8.01701C10.5082 8.258 10.5082 8.47489 10.5082 8.71589C10.5082 9.80036 10.5082 10.8607 10.5082 11.9452C9.61524 11.9452 8.72232 11.9452 7.80762 11.9452Z" fill="#0A85DD"/>
</svg>
