<svg width="24" height="24" viewBox="-6 -6 24 24" fill="none" xmlns="http://www.w3.org/2000/svg">
<path fill-rule="evenodd" clip-rule="evenodd" d="M5.56073 0.0878241C5.69995 0.0298106 5.84928 0 6 0C6.15072 0 6.30005 0.0298106 6.43927 0.0878241C6.57829 0.145751 6.70458 0.230691 6.81063 0.337981C6.8108 0.338149 6.81098 0.338336 6.81115 0.338504L11.7039 5.28132C11.8541 5.43462 11.9534 5.63087 11.9872 5.84348C12.021 6.05611 11.9875 6.27371 11.8916 6.46622C11.7958 6.65865 11.6427 6.81605 11.4542 6.91771C11.3302 6.98459 11.1946 7.02533 11.0559 7.03843V10.9585C11.0559 11.2366 10.9443 11.5021 10.7474 11.6969C10.5507 11.8916 10.2851 12 10.0093 12H8.00464C7.72887 12 7.46327 11.8916 7.26657 11.6969C7.06968 11.5021 6.95803 11.2366 6.95803 10.9585V8.03186H5.04197V10.9585C5.04197 11.2366 4.93032 11.5021 4.73343 11.6969C4.53673 11.8916 4.27113 12 3.99536 12H1.99071C1.71494 12 1.44934 11.8916 1.25264 11.6969C1.05575 11.5021 0.944097 11.2366 0.944097 10.9585V7.03843C0.805358 7.02533 0.669803 6.98459 0.545787 6.91771C0.357315 6.81605 0.204225 6.65865 0.108403 6.46622C0.0125435 6.27371 -0.0209947 6.05611 0.0128039 5.84348C0.0465973 5.63087 0.145879 5.43462 0.296057 5.28132L0.298034 5.27931L5.18885 0.338504C5.18901 0.338343 5.18917 0.338182 5.18933 0.338022C5.18934 0.338008 5.18932 0.338035 5.18933 0.338022C5.29538 0.23074 5.42172 0.145748 5.56073 0.0878241ZM6 1.09091C5.99309 1.09091 5.98639 1.09228 5.98033 1.09481C5.97429 1.09732 5.96919 1.10086 5.96519 1.10492L1.17021 5.94891H2.03501V10.9091H3.95106V7.98242C3.95106 7.70438 4.06271 7.43887 4.2596 7.244C4.4563 7.04932 4.7219 6.94095 4.99768 6.94095H7.00232C7.2781 6.94095 7.5437 7.04932 7.7404 7.244C7.93729 7.43887 8.04894 7.70438 8.04894 7.98242V10.9091H9.96499V5.94891H10.8298L6.03481 1.10492C6.03081 1.10086 6.02571 1.09732 6.01967 1.09481C6.01361 1.09228 6.00691 1.09091 6 1.09091Z" fill="#0A85DD"/>
</svg>
