<svg width="24" height="24" viewBox="-5.5 -5 24 24" fill="none" xmlns="http://www.w3.org/2000/svg">
<path d="M2.4375 4.02083V4.02083C2.4375 3.42252 2.92252 2.9375 3.52083 2.9375L9.71131 2.9375C9.88225 2.9375 10.0208 3.07608 10.0208 3.24702V3.24702C10.0208 4.2727 9.18936 5.10417 8.16369 5.10417H8.125M2.4375 4.02083V4.02083C2.4375 4.61914 2.92252 5.10417 3.52083 5.10417L8.5625 5.10417C9.50531 5.10417 9.97671 5.10417 10.2696 5.39706C10.5625 5.68995 10.5625 6.16136 10.5625 7.10417V7.27083M2.4375 4.02083L2.4375 7.0625C2.4375 8.94812 2.4375 9.89093 3.02329 10.4767C3.60907 11.0625 4.55188 11.0625 6.4375 11.0625H8.9375C9.52116 11.0625 9.81299 11.0625 10.0339 10.9444C10.2083 10.8512 10.3512 10.7083 10.4444 10.5339C10.5625 10.313 10.5625 10.0212 10.5625 9.4375V9.4375M10.5625 9.4375H9.47917C9.40179 9.4375 9.3631 9.4375 9.33043 9.43536C8.82967 9.40254 8.4308 9.00366 8.39797 8.5029C8.39583 8.47024 8.39583 8.43155 8.39583 8.35417V8.35417C8.39583 8.27679 8.39583 8.2381 8.39797 8.20543C8.4308 7.70467 8.82967 7.3058 9.33043 7.27297C9.3631 7.27083 9.40179 7.27083 9.47917 7.27083H10.5625M10.5625 9.4375V7.27083" stroke="#0A85DD"/>
</svg>
