<svg width="70" height="70" viewBox="0 0 70 70" fill="none" xmlns="http://www.w3.org/2000/svg">
<path fill-rule="evenodd" clip-rule="evenodd" d="M0.494198 15.5547C1.51155 17.5241 3.76473 18.1989 5.52683 17.0619C14.4878 11.2795 24.6528 8.23529 35 8.23529C45.3472 8.23529 55.5122 11.2795 64.4732 17.0619C66.2353 18.1989 68.4884 17.5241 69.5058 15.5547C70.5231 13.5852 69.9194 11.0669 68.1573 9.92988C58.0762 3.4247 46.6406 -1.54787e-06 35 -1.5299e-06C23.3594 -1.51193e-06 11.9238 3.4247 1.84269 9.92988C0.0805884 11.0669 -0.523151 13.5853 0.494198 15.5547Z" fill="#1C7EE7"/>
<path fill-rule="evenodd" clip-rule="evenodd" d="M9.70513 33.3845C10.7225 35.354 12.9757 36.0288 14.7378 34.8917C20.8984 30.9163 27.8868 28.8234 35.0006 28.8234C42.1143 28.8234 49.1027 30.9163 55.2634 34.8917C57.0255 36.0287 59.2787 35.354 60.296 33.3845C61.3134 31.4151 60.7096 28.8968 58.9475 27.7597C51.6667 23.0615 43.4077 20.5881 35.0006 20.5881C26.5934 20.5881 18.3344 23.0615 11.0536 27.7597C9.29153 28.8968 8.68779 31.4151 9.70513 33.3845Z" fill="#1C7EE7"/>
<path fill-rule="evenodd" clip-rule="evenodd" d="M17.0723 51.7663C18.0897 53.7357 20.3429 54.4105 22.105 53.2734C26.0254 50.7436 30.4726 49.4118 34.9995 49.4118C39.5264 49.4118 43.9736 50.7436 47.894 53.2734C49.6561 54.4105 51.9093 53.7357 52.9266 51.7663C53.944 49.7968 53.3402 47.2785 51.5781 46.1415C46.5376 42.8889 40.8198 41.1765 34.9995 41.1765C29.1791 41.1765 23.4614 42.8889 18.4208 46.1415C16.6587 47.2785 16.055 49.7968 17.0723 51.7663Z" fill="#1C7EE7"/>
<ellipse cx="35.0006" cy="65.8823" rx="3.68415" ry="4.11765" fill="#1C7EE7"/>
</svg>
