<svg width="70" height="70" viewBox="0 0 70 70" fill="none" xmlns="http://www.w3.org/2000/svg">
<path d="M38.4177 8.75H26.2507C20.7509 8.75 18.0011 8.75 16.2925 10.4585C14.584 12.1671 14.584 14.9169 14.584 20.4167V49.5833C14.584 55.0831 14.584 57.8329 16.2925 59.5415C18.0011 61.25 20.7509 61.25 26.2507 61.25H43.7507C49.2504 61.25 52.0002 61.25 53.7088 59.5415C55.4173 57.8329 55.4173 55.0831 55.4173 49.5833V25.7496C55.4173 24.5574 55.4173 23.9613 55.1953 23.4253C54.9733 22.8893 54.5518 22.4678 53.7088 21.6248L42.5425 10.4585C41.6995 9.61554 41.278 9.19404 40.742 8.97202C40.206 8.75 39.6099 8.75 38.4177 8.75Z" stroke="#1C7EE7" stroke-width="2"/>
<path d="M26.25 37.9167L43.75 37.9167" stroke="#1C7EE7" stroke-width="2" stroke-linecap="round"/>
<path d="M26.25 49.5833L37.9167 49.5833" stroke="#1C7EE7" stroke-width="2" stroke-linecap="round"/>
<path d="M37.916 8.75V20.4167C37.916 23.1665 37.916 24.5415 38.7703 25.3957C39.6246 26.25 40.9995 26.25 43.7493 26.25H55.416" stroke="#1C7EE7" stroke-width="2"/>
</svg>
