<svg width="70" height="70" viewBox="0 0 70 70" fill="none" xmlns="http://www.w3.org/2000/svg">
<path d="M14.584 37.2156C14.584 33.2555 14.584 31.2754 15.3845 29.5349C16.185 27.7944 17.6884 26.5058 20.6951 23.9286L23.6118 21.4286C29.0465 16.7703 31.7638 14.4412 35.0007 14.4412C38.2375 14.4412 40.9548 16.7703 46.3895 21.4286L49.3062 23.9286C52.3129 26.5058 53.8163 27.7944 54.6168 29.5349C55.4173 31.2754 55.4173 33.2555 55.4173 37.2156V49.5834C55.4173 55.0831 55.4173 57.833 53.7088 59.5415C52.0002 61.2501 49.2504 61.2501 43.7507 61.2501H26.2507C20.7509 61.2501 18.0011 61.2501 16.2925 59.5415C14.584 57.833 14.584 55.0831 14.584 49.5834V37.2156Z" stroke="#1C7EE7" stroke-width="2"/>
<path d="M42.2923 61.25V44.75C42.2923 44.1977 41.8446 43.75 41.2923 43.75H28.709C28.1567 43.75 27.709 44.1977 27.709 44.75V61.25" stroke="#1C7EE7" stroke-width="2" stroke-linecap="round" stroke-linejoin="round"/>
</svg>
