<svg width="70" height="70" viewBox="0 0 70 70" fill="none" xmlns="http://www.w3.org/2000/svg">
<path d="M8.75002 18.9583V17.6667C8.75002 14.8382 8.75002 13.424 9.6287 12.5453C10.5074 11.6667 11.9216 11.6667 14.75 11.6667L57.3333 11.6667C57.8047 11.6667 58.0404 11.6667 58.1869 11.8131C58.3333 11.9596 58.3333 12.1953 58.3333 12.6667V20.25C58.3333 23.0784 58.3333 24.4926 57.4547 25.3713C56.576 26.25 55.1618 26.25 52.3333 26.25H43.75M8.75002 18.9583V20.25C8.75002 23.0784 8.75002 24.4926 9.6287 25.3713C10.5074 26.25 11.9216 26.25 14.75 26.25L59.25 26.25C60.1928 26.25 60.6642 26.25 60.9571 26.5429C61.25 26.8358 61.25 27.3072 61.25 28.25L61.25 37.9167M8.75002 18.9583L8.75002 57.25C8.75002 59.1356 8.75002 60.0784 9.33581 60.6642C9.92159 61.25 10.8644 61.25 12.75 61.25L59.25 61.25C60.1928 61.25 60.6642 61.25 60.9571 60.9571C61.25 60.6642 61.25 60.1928 61.25 59.25L61.25 49.5833M61.25 49.5833H45.75C44.8072 49.5833 44.3358 49.5833 44.0429 49.2904C43.75 48.9975 43.75 48.5261 43.75 47.5833V39.9167C43.75 38.9739 43.75 38.5025 44.0429 38.2096C44.3358 37.9167 44.8072 37.9167 45.75 37.9167H61.25M61.25 49.5833L61.25 37.9167" stroke="#1C7EE7" stroke-width="2"/>
</svg>
