<svg width="54" height="54" viewBox="0 0 54 54" fill="none" xmlns="http://www.w3.org/2000/svg">
<path d="M26.8101 53.6201C41.6168 53.6201 53.6201 41.6168 53.6201 26.8101C53.6201 12.0033 41.6168 0 26.8101 0C12.0033 0 0 12.0033 0 26.8101C0 41.6168 12.0033 53.6201 26.8101 53.6201Z" fill=""/>
<path d="M19.7998 35.0067C20.9793 34.4686 22.2157 34.0653 23.4856 33.8044C23.62 33.7751 23.7404 33.7513 23.8509 33.7307C24.6181 33.58 25.3953 33.4854 26.1763 33.4478V27.416H18.707C18.7547 30.1262 19.1352 32.7182 19.7998 35.0067Z" fill="white"/>
<path d="M34.459 17.3274C34.6097 17.2515 34.7604 17.1746 34.91 17.0933C35.0075 17.0412 35.1094 16.9849 35.2211 16.9209C36.1207 16.4106 36.97 15.8164 37.7578 15.1463C35.898 13.3884 33.6414 12.1054 31.1797 11.4062C31.9526 12.2236 32.667 13.2654 33.3001 14.5154C33.755 15.423 34.1423 16.3629 34.459 17.3274Z" fill="white"/>
<path d="M24.8188 10.9237C23.4421 11.6305 22.1715 13.0712 21.1265 15.1515C20.7523 15.9019 20.4281 16.6761 20.1562 17.4693C21.2833 18.0052 22.4685 18.4093 23.6881 18.6737C23.7965 18.6986 23.9125 18.7214 24.034 18.7452C24.7406 18.8841 25.456 18.9739 26.175 19.0141V10.8131C26.1342 10.811 26.0933 10.811 26.0525 10.8131C25.6405 10.8402 25.2275 10.8727 24.8188 10.9237Z" fill="white"/>
<path d="M23.6881 34.9478C22.4685 35.2122 21.2833 35.6163 20.1562 36.1522C20.4282 36.9452 20.752 37.7194 21.1254 38.47C22.1715 40.5481 23.4421 41.9888 24.8188 42.6978C25.2275 42.7488 25.6395 42.7845 26.0503 42.8062C26.0915 42.8062 26.0666 42.8062 26.175 42.8116V34.6074C25.456 34.6476 24.7406 34.7374 24.034 34.8763C23.9136 34.9001 23.7987 34.9229 23.6881 34.9478Z" fill="white"/>
<path d="M23.4839 19.8158C22.2131 19.5472 20.9767 19.1363 19.798 18.5908C19.1281 20.8977 18.7508 23.5136 18.7031 26.2237H26.1734V20.1725C25.3932 20.1346 24.6168 20.04 23.8503 19.8895C23.7419 19.8689 23.6183 19.8451 23.4839 19.8158Z" fill="white"/>
<path d="M18.8957 18.1395C18.6948 18.0318 18.4964 17.9202 18.3006 17.8045C18.1976 17.7449 18.0913 17.6809 17.9753 17.6116C17.0409 17.0343 16.1626 16.3709 15.3519 15.6299C12.5583 18.4644 10.9331 22.2459 10.7988 26.2234H17.7206C17.7791 23.2964 18.1781 20.5852 18.8957 18.1395Z" fill="white"/>
<path d="M19.2578 36.6143C19.1201 36.6901 18.9835 36.7671 18.848 36.8473C18.7461 36.908 18.6431 36.9698 18.5423 37.0327C17.7052 37.5533 16.9164 38.1479 16.1855 38.8095C17.9836 40.3999 20.1178 41.5635 22.4287 42.2135C21.6557 41.3961 20.9413 40.3532 20.3083 39.1033C19.9034 38.2978 19.5525 37.4663 19.2578 36.6143Z" fill="white"/>
<path d="M18.3008 35.8024C18.497 35.6874 18.6954 35.5649 18.8949 35.4576C18.1826 33.0304 17.7804 30.343 17.7262 27.416H10.8066C10.9505 31.3782 12.5661 35.1444 15.338 37.9792C16.154 37.2391 17.0378 36.5774 17.9777 36.0029C18.0883 35.9346 18.1978 35.8631 18.3008 35.8024Z" fill="white"/>
<path d="M18.8474 16.7725C18.9829 16.8527 19.1206 16.9297 19.2572 17.0056C19.5517 16.1521 19.9026 15.3191 20.3076 14.5122C20.8611 13.3806 21.5741 12.3343 22.4248 11.4053C20.1198 12.0621 17.9926 13.23 16.2012 14.8223C16.9263 15.478 17.7081 16.0682 18.5373 16.586C18.6457 16.65 18.7455 16.7118 18.8474 16.7725Z" fill="white"/>
<path d="M34.8047 35.1378C35.0128 35.2386 35.2199 35.3666 35.4237 35.4761C35.5419 35.5389 35.6492 35.5986 35.7489 35.6571C36.7604 36.2202 37.7133 36.8826 38.5935 37.6344C41.1782 34.8448 42.6708 31.2169 42.7975 27.416H35.8833C35.8302 30.2346 35.4595 32.7897 34.8047 35.1378Z" fill="white"/>
<path d="M29.9484 18.8062C31.1853 18.5938 32.3934 18.2387 33.5485 17.7481C33.2561 16.8563 32.8996 15.9868 32.4818 15.1464C31.4368 13.0682 30.1554 11.6275 28.7786 10.9185C28.3699 10.8676 27.9461 10.8307 27.5363 10.8101C27.4875 10.8101 27.3672 10.8101 27.3672 10.8047V19.0306C28.108 19.0247 28.8476 18.9686 29.5809 18.8626C29.7034 18.843 29.841 18.8246 29.9484 18.8062Z" fill="white"/>
<path d="M34.9071 36.526C34.7586 36.4458 34.6069 36.3678 34.4562 36.293C34.1393 37.2571 33.752 38.1966 33.2973 39.104C32.6642 40.3539 31.9498 41.3968 31.1758 42.2141C33.6439 41.52 35.9079 40.2403 37.7756 38.4839C36.9831 37.8079 36.1283 37.2086 35.2226 36.6941C35.1099 36.6344 35.008 36.5781 34.9071 36.526Z" fill="white"/>
<path d="M35.7519 17.9646C35.6435 18.0232 35.5351 18.0828 35.4267 18.1446C35.2218 18.253 35.0148 18.3614 34.8066 18.4611C35.4668 20.8266 35.8376 23.514 35.8842 26.2241H42.806C42.6663 22.4142 41.1686 18.7798 38.5835 15.9775C37.7073 16.7314 36.7588 17.3969 35.7519 17.9646Z" fill="white"/>
<path d="M33.8824 18.8711C32.6695 19.3736 31.4035 19.7373 30.1088 19.9552C30.0004 19.9736 29.8757 19.992 29.7337 20.0137C28.9496 20.1253 28.1591 20.1869 27.3672 20.198V26.2254H34.9069C34.8739 23.7408 34.5297 21.2701 33.8824 18.8711Z" fill="white"/>
<path d="M30.1229 33.6548C31.4143 33.8686 32.6773 34.2279 33.8878 34.7259C34.5292 32.3409 34.8715 29.8855 34.9069 27.416H27.3672V33.4239C28.1591 33.4338 28.9496 33.4946 29.7337 33.606C29.8757 33.6234 30.0156 33.6364 30.1229 33.6548Z" fill="white"/>
<path d="M33.542 35.8732C32.3864 35.3818 31.1775 35.0268 29.9397 34.8151C29.8313 34.7945 29.7044 34.7772 29.5819 34.7587C28.8485 34.6499 28.1086 34.5908 27.3672 34.582V42.8079H27.533C27.9461 42.7884 28.3678 42.7526 28.7765 42.6995C30.1532 41.9916 31.4335 40.5509 32.4786 38.4717C32.8955 37.6324 33.2509 36.7639 33.542 35.8732Z" fill="white"/>
</svg>
