<svg width="54" height="54" viewBox="0 0 54 54" fill="none" xmlns="http://www.w3.org/2000/svg">
<path d="M26.8101 53.6201C41.6168 53.6201 53.6201 41.6168 53.6201 26.8101C53.6201 12.0033 41.6168 0 26.8101 0C12.0033 0 0 12.0033 0 26.8101C0 41.6168 12.0033 53.6201 26.8101 53.6201Z" fill=""/>
<path d="M31.0387 10.0487C31.0387 10.117 31.0387 10.1853 31.0332 10.2525C31.0278 10.3197 31.0246 10.388 31.0181 10.4553C31.0083 10.555 30.9942 10.6547 30.9769 10.7523C30.9595 10.8499 30.9335 10.9691 30.9064 11.0678C30.8539 11.2655 30.7865 11.459 30.7048 11.6466C30.6928 11.6737 30.6809 11.6998 30.6679 11.7258C30.6245 11.819 30.5779 11.909 30.5281 11.9979L30.4825 12.077C30.2969 12.3892 30.0697 12.6748 29.8072 12.9258L29.7313 12.9963C29.6868 13.0364 29.6424 13.0744 29.5968 13.1123C29.5676 13.1372 29.5372 13.1611 29.5069 13.1849C29.4386 13.2381 29.3703 13.2933 29.2987 13.3367L29.2684 13.3573C29.1741 13.4202 29.0776 13.4798 28.9789 13.534C28.8803 13.5882 28.7968 13.6294 28.7036 13.6717L28.6862 13.6793C28.4997 13.7632 28.3068 13.8324 28.1095 13.8863L27.9827 13.9188C27.7802 13.9667 27.5743 13.9986 27.3669 14.0142C27.2997 14.0142 27.2314 14.0229 27.1631 14.0251H26.9582C26.8899 14.0251 26.8216 14.0197 26.7544 14.0142C26.547 13.9987 26.3411 13.9668 26.1387 13.9188L26.0118 13.8863C25.8144 13.8326 25.6216 13.7634 25.4351 13.6793L25.4178 13.6717C25.3343 13.6337 25.2519 13.5936 25.1717 13.5492C25.0623 13.4907 24.9559 13.4266 24.853 13.3573L24.8259 13.3345C24.7543 13.2868 24.6849 13.2359 24.6177 13.1828C24.5874 13.1589 24.557 13.1351 24.5277 13.1101C24.4985 13.0852 24.4367 13.0342 24.3933 12.9941C24.35 12.954 24.2979 12.9052 24.2513 12.8586C24.0165 12.6237 23.8118 12.3604 23.6421 12.0748C23.6258 12.0488 23.6106 12.0228 23.5965 11.9957C23.5467 11.9068 23.5001 11.8168 23.4567 11.7236C23.4437 11.6976 23.4318 11.6716 23.4209 11.6445C23.3384 11.4571 23.2706 11.2635 23.2182 11.0656C23.1911 10.9572 23.1672 10.8574 23.1477 10.7501C23.1282 10.6428 23.1163 10.5528 23.1065 10.4531C23.1 10.3859 23.0946 10.3187 23.0914 10.2504C23.0881 10.1821 23.0859 10.1149 23.0859 10.0466C23.0859 9.97827 23.0989 9.90888 23.1033 9.84167C23.1033 9.79939 23.1228 9.7582 23.1228 9.717C23.1228 9.69207 23.1163 9.66605 23.1228 9.64004C23.1293 9.61402 23.1228 9.59017 23.1228 9.56524C23.1326 9.49044 23.1401 9.41672 23.1532 9.34842C23.1727 9.24002 23.1943 9.13161 23.2214 9.03296C23.2717 8.8339 23.3369 8.63893 23.4166 8.44973C23.4231 8.43672 23.4285 8.42263 23.4339 8.40962L23.4524 8.37059C23.4957 8.27736 23.5423 8.18739 23.5922 8.09849C23.6074 8.07139 23.6215 8.04537 23.6377 8.01936C23.8234 7.70714 24.0506 7.42159 24.3131 7.17053L24.389 7.10007C24.4323 7.05996 24.4779 7.02202 24.5234 6.98407C24.5689 6.94613 24.583 6.93529 24.6134 6.91144C24.6806 6.85832 24.75 6.80303 24.8215 6.75967L24.8519 6.73907C25.0312 6.61896 25.2201 6.51381 25.4167 6.42469L25.434 6.41711C25.6205 6.33299 25.8133 6.26376 26.0107 6.21005L26.1376 6.17753C26.3401 6.13013 26.546 6.09824 26.7533 6.08213C26.8205 6.07671 26.8888 6.07346 26.9571 6.07129H27.162C27.2303 6.07129 27.2986 6.07129 27.3658 6.08213C27.5732 6.09834 27.779 6.13023 27.9816 6.17753L28.1084 6.21005C28.3058 6.26393 28.4986 6.33316 28.6851 6.41711L28.7025 6.42469C28.8991 6.51381 29.088 6.61896 29.2673 6.73907L29.2976 6.75967C29.3692 6.80737 29.4375 6.85832 29.5058 6.91144C29.5361 6.93529 29.5665 6.95914 29.5958 6.98407C29.6413 7.02202 29.6857 7.05996 29.7302 7.10007L29.805 7.16945C30.0686 7.4217 30.2965 7.70873 30.4825 8.02261L30.5281 8.10175C30.5779 8.19064 30.6245 8.28062 30.6679 8.37385C30.6809 8.39986 30.6928 8.42588 30.7048 8.45298C30.7865 8.64059 30.8539 8.83411 30.9064 9.03187C30.9335 9.14028 30.9573 9.24002 30.9769 9.34734C30.9964 9.45466 31.0083 9.54464 31.0181 9.64437C31.0181 9.67581 31.0235 9.70725 31.0267 9.73869L31.0332 9.84709C31.0365 9.91105 31.0387 9.97935 31.0387 10.0487Z" fill="white"/>
<path d="M23.0176 9.67969L23.0284 9.68619C23.0481 9.69802 23.0688 9.70817 23.0902 9.71655L23.0772 9.70896L23.0176 9.67969Z" fill="white"/>
<path d="M23.0215 9.67969L23.0811 9.70896L23.0323 9.68619L23.0215 9.67969Z" fill="white"/>
<path d="M33.6338 17.833V21.9525C33.6338 22.037 33.6338 22.0522 33.5579 22.0522H20.5611C20.4808 22.0522 20.4082 22.037 20.4082 21.9525V17.833C20.4082 17.7669 20.4082 17.7008 20.4082 17.6357C20.4513 16.6917 20.8251 15.793 21.4641 15.0968L21.5183 15.0383C21.8237 14.7187 22.182 14.4543 22.5774 14.2567L22.6501 14.222C22.7585 14.171 22.8669 14.1255 22.9839 14.0843L23.0609 14.0583C23.1628 14.0247 23.2669 13.9954 23.372 13.9705C23.5021 14.0955 23.6369 14.2126 23.7764 14.3217C24.1319 14.6004 24.5204 14.8342 24.9331 15.0177C25.0112 15.0524 25.0892 15.0849 25.1683 15.1153C25.4708 15.2329 25.7837 15.3218 26.1028 15.3808C26.776 15.5023 27.4662 15.4945 28.1365 15.3581C28.1795 15.3445 28.2239 15.3354 28.2688 15.331H28.4661C28.6374 15.331 28.8076 15.1966 28.9756 15.1304C29.0417 15.1044 29.1078 15.0448 29.1729 15.0155C29.4982 14.8676 29.8052 14.6825 30.0878 14.4637C30.1193 14.4637 30.1507 14.4355 30.1821 14.4117C30.3721 14.2737 30.5531 14.1238 30.7242 13.9629C32.3557 14.3423 33.5644 15.8362 33.6512 17.6314C33.6544 17.6964 33.6338 17.7669 33.6338 17.833Z" fill="white"/>
<path d="M19.6844 28.8122C19.6844 28.8805 19.6844 28.9488 19.679 29.0171C19.6736 29.0854 19.6703 29.1526 19.6638 29.2187C19.6541 29.3195 19.64 29.4182 19.6226 29.5168C19.6053 29.6155 19.5793 29.7336 19.5522 29.8323C19.4998 30.0298 19.4324 30.2229 19.3505 30.4101C19.3386 30.4372 19.3267 30.4632 19.3137 30.4903C19.2703 30.5825 19.2237 30.6735 19.1738 30.7624L19.1283 30.8416C18.9421 31.1534 18.715 31.4389 18.4529 31.6904L18.377 31.7608C18.3326 31.7999 18.2881 31.8389 18.2426 31.8768L18.1526 31.9495C18.0843 32.0015 18.016 32.0525 17.9445 32.1012L17.9141 32.1218C17.8195 32.1847 17.723 32.2433 17.6247 32.2975C17.5347 32.3473 17.4426 32.3929 17.3493 32.4362L17.332 32.4438C17.1452 32.5269 16.9524 32.5958 16.7553 32.6498L16.6284 32.6823C16.426 32.7305 16.2201 32.7628 16.0127 32.7788C15.9455 32.7788 15.8772 32.7875 15.8089 32.7885H15.604C15.5357 32.7885 15.4674 32.7885 15.4002 32.7788C15.1927 32.7628 14.9868 32.7305 14.7844 32.6823L14.6576 32.6498C14.4604 32.5958 14.2676 32.5269 14.0809 32.4438L14.0635 32.4362C13.9801 32.3983 13.8977 32.3571 13.8174 32.3137C13.7083 32.2545 13.6021 32.1905 13.4987 32.1218L13.4684 32.1012C13.3968 32.0525 13.3285 32.0015 13.2602 31.9495L13.1703 31.8768C13.1247 31.8389 13.0803 31.7999 13.0358 31.7608C12.9914 31.7218 12.9404 31.6709 12.8938 31.6253C12.659 31.3904 12.4543 31.1271 12.2846 30.8416C12.2683 30.8145 12.2531 30.7884 12.239 30.7624C12.1892 30.6735 12.1426 30.5825 12.0992 30.4903C12.0862 30.4632 12.0743 30.4372 12.0634 30.4101C11.9807 30.2231 11.9129 30.0299 11.8607 29.8323C11.8336 29.7239 11.8098 29.6231 11.7902 29.5168C11.7707 29.4106 11.7588 29.3195 11.749 29.2187C11.7425 29.1526 11.7371 29.0843 11.7339 29.0171C11.7306 28.9499 11.7339 28.8805 11.7339 28.8122C11.7339 28.7439 11.7339 28.6756 11.7339 28.6073C11.7339 28.5661 11.7393 28.5249 11.7393 28.4837C11.7393 28.4577 11.7469 28.4317 11.749 28.4067C11.7512 28.3818 11.7566 28.3569 11.7599 28.3309C11.7686 28.2571 11.7805 28.1823 11.7935 28.1086C11.813 28.0002 11.8358 27.8972 11.864 27.7932C11.9158 27.5955 11.9832 27.4023 12.0656 27.2154C12.0721 27.2013 12.0786 27.1883 12.084 27.1752C12.0894 27.1622 12.0959 27.1481 12.1025 27.1351C12.1458 27.043 12.1924 26.9519 12.2423 26.863C12.2564 26.837 12.2716 26.8099 12.2878 26.7839C12.4737 26.4718 12.7009 26.1863 12.9632 25.9351L13.0391 25.8646C13.0835 25.8256 13.128 25.7866 13.1735 25.7486C13.219 25.7107 13.2331 25.6998 13.2635 25.676C13.3318 25.6229 13.4001 25.5676 13.4716 25.5242L13.502 25.5036C13.6815 25.3839 13.8704 25.2788 14.0668 25.1892L14.0841 25.1816C14.2707 25.0981 14.4635 25.0292 14.6608 24.9757C14.7028 24.9641 14.745 24.9533 14.7877 24.9432C14.9901 24.895 15.196 24.8627 15.4034 24.8467C15.4706 24.8412 15.5389 24.838 15.6072 24.8369H15.8121C15.8804 24.8369 15.9487 24.8369 16.0159 24.8467C16.2234 24.8627 16.4293 24.895 16.6317 24.9432C16.6743 24.9525 16.7166 24.9634 16.7585 24.9757C16.9558 25.0292 17.1487 25.0981 17.3352 25.1816L17.3526 25.1892C17.5489 25.2788 17.7378 25.3839 17.9174 25.5036L17.9477 25.5242C18.0193 25.573 18.0876 25.6229 18.1559 25.676C18.1862 25.6998 18.2166 25.7237 18.2459 25.7486C18.2751 25.7735 18.3358 25.8256 18.3803 25.8646L18.4551 25.9351C18.7183 26.1858 18.9459 26.4714 19.1315 26.7839L19.1771 26.863C19.2269 26.9519 19.2736 27.043 19.3169 27.1351C19.3299 27.1622 19.3418 27.1883 19.3538 27.2154C19.4356 27.4025 19.503 27.5957 19.5554 27.7932C19.5825 27.9016 19.6064 28.0024 19.6259 28.1086C19.6454 28.2149 19.6573 28.3059 19.6671 28.4067C19.6671 28.4382 19.6736 28.4685 19.6757 28.5L19.6822 28.6084C19.6822 28.6756 19.6844 28.7439 19.6844 28.8122Z" fill="white"/>
<path d="M11.668 28.4453L11.6788 28.4507C11.6985 28.463 11.7191 28.4735 11.7406 28.4822L11.7276 28.4735L11.668 28.4453Z" fill="white"/>
<path d="M11.668 28.4453L11.7276 28.4735L11.6788 28.4507L11.668 28.4453Z" fill="white"/>
<path d="M22.3594 36.5969V40.7163C22.3594 40.8009 22.2846 40.8063 22.2044 40.8063H9.20751C9.12729 40.8063 9.02539 40.8009 9.02539 40.7163V36.5969C9.02539 36.5308 9.03732 36.4646 9.04057 36.3996C9.08522 35.4555 9.46052 34.5571 10.1008 33.8618L10.1582 33.8033C10.4646 33.4834 10.824 33.2189 11.2206 33.0216L11.2933 32.9859C11.4026 32.9348 11.5144 32.8892 11.6282 32.8493C11.6532 32.8395 11.6792 32.8308 11.7052 32.8233C11.8071 32.7886 11.9112 32.7604 12.0163 32.7355C12.1453 32.859 12.2808 32.9761 12.4207 33.0856C12.7772 33.3653 13.1672 33.5995 13.5817 33.7827C13.6598 33.8163 13.7378 33.8488 13.817 33.8802C14.4186 34.1129 15.0582 34.232 15.7032 34.2315C16.0676 34.2317 16.431 34.1932 16.7873 34.1166C16.8304 34.1021 16.8746 34.0916 16.9196 34.0851H17.1169C17.2881 34.0851 17.4583 33.9561 17.6264 33.8889C17.6925 33.8629 17.7586 33.8022 17.8237 33.7729C18.1493 33.6236 18.4567 33.4374 18.7397 33.2179C18.7752 33.2123 18.8081 33.1961 18.834 33.1712C19.0239 33.034 19.205 32.8848 19.3761 32.7246C21.0022 33.104 22.2564 34.599 22.341 36.3942C22.341 36.4592 22.3594 36.5329 22.3594 36.5969Z" fill="white"/>
<path d="M42.0716 28.7443C42.0716 28.8136 42.0716 28.8819 42.0716 28.9492C42.0716 29.0164 42.0629 29.0847 42.0564 29.1519C42.0456 29.2516 42.0315 29.3513 42.0141 29.4489C41.9968 29.5465 41.9719 29.6657 41.9448 29.7644C41.8901 29.9623 41.8205 30.1558 41.7366 30.3433L41.7008 30.4224C41.6575 30.5156 41.6109 30.6056 41.561 30.6945L41.5155 30.7736C41.3295 31.086 41.102 31.3715 40.839 31.6225C40.8141 31.6463 40.7891 31.6702 40.7631 31.6929C40.7198 31.733 40.6753 31.771 40.6298 31.8089C40.5843 31.8469 40.5702 31.8577 40.5387 31.8816C40.4715 31.9347 40.4021 31.99 40.3317 32.0333L40.3013 32.0539C40.207 32.1168 40.1105 32.1753 40.0108 32.2306C39.911 32.2859 39.8297 32.326 39.7365 32.3683L39.7192 32.3759C39.5323 32.46 39.3391 32.5292 39.1414 32.5829L39.0145 32.6155C38.812 32.6629 38.6062 32.6948 38.3988 32.7109C38.3316 32.7163 38.2644 32.7195 38.1961 32.7217H37.9901C37.9218 32.7217 37.8546 32.7217 37.7874 32.7109C37.58 32.6948 37.3741 32.6629 37.1716 32.6155L37.0448 32.5829C36.847 32.5292 36.6538 32.46 36.467 32.3759L36.4507 32.3683C36.3662 32.3304 36.2848 32.2892 36.2035 32.2458C36.0951 32.1873 35.9867 32.1233 35.8859 32.0539L35.8545 32.0333C35.784 31.9845 35.7146 31.9347 35.6474 31.8816L35.5564 31.8089C35.5108 31.771 35.4664 31.733 35.423 31.6929C35.3797 31.6528 35.3265 31.604 35.2799 31.5574C35.0451 31.3225 34.8404 31.0592 34.6707 30.7736L34.6251 30.6945C34.5753 30.6056 34.5287 30.5156 34.4853 30.4224L34.4495 30.3433C34.3673 30.1558 34.2999 29.9623 34.2479 29.7644C34.2197 29.656 34.1969 29.5551 34.1774 29.4489C34.1579 29.3427 34.146 29.2516 34.1362 29.1519C34.1286 29.0847 34.1243 29.0175 34.12 28.9492C34.1156 28.8809 34.12 28.8136 34.12 28.7443C34.12 28.6749 34.0907 28.6077 34.095 28.5405C34.095 28.4982 34.0723 28.457 34.0723 28.4158C34.0723 28.3898 34.107 28.3648 34.1102 28.3388C34.1135 28.3128 34.1308 28.289 34.1341 28.264C34.1427 28.1892 34.1612 28.1144 34.1742 28.0472C34.1937 27.9388 34.2208 27.8304 34.2479 27.7317C34.3009 27.5337 34.3694 27.3401 34.4528 27.1529C34.4582 27.1398 34.4647 27.1258 34.4712 27.1127C34.4777 27.0997 34.4831 27.0867 34.4896 27.0726C34.533 26.9805 34.5796 26.8894 34.6295 26.8016L34.675 26.7225C34.8606 26.41 35.0883 26.1244 35.3515 25.8737C35.3764 25.8498 35.4013 25.826 35.4273 25.8032C35.4707 25.7631 35.5152 25.7241 35.5607 25.6872L35.6518 25.6135C35.719 25.5614 35.7883 25.5051 35.8588 25.4628L35.8902 25.4422C36.0692 25.3215 36.2581 25.2163 36.455 25.1278L36.4713 25.1191C36.6584 25.0358 36.8515 24.967 37.0491 24.9132C37.0903 24.9012 37.1337 24.8904 37.1759 24.8807C37.3783 24.8324 37.5842 24.8001 37.7917 24.7842C37.8589 24.7842 37.9261 24.7766 37.9944 24.7744H38.2004C38.2687 24.7744 38.3359 24.7798 38.4031 24.7842C38.6106 24.8001 38.8165 24.8324 39.0189 24.8807C39.0622 24.89 39.1045 24.9009 39.1457 24.9132C39.3433 24.967 39.5364 25.0358 39.7235 25.1191L39.7409 25.1278C39.9376 25.2165 40.1266 25.3217 40.3056 25.4422L40.336 25.4628C40.4065 25.5105 40.4758 25.5614 40.5431 25.6135C40.5745 25.6373 40.6038 25.6623 40.6341 25.6872C40.6645 25.7121 40.7241 25.7631 40.7675 25.8032C40.7935 25.826 40.8184 25.8487 40.8423 25.8726C41.1059 26.1236 41.3339 26.4095 41.5198 26.7225L41.5653 26.8016C41.6152 26.8894 41.6618 26.9805 41.7052 27.0726L41.741 27.1529C41.8232 27.3404 41.891 27.5339 41.9437 27.7317C41.9708 27.8347 41.9946 27.9399 42.0131 28.0472C42.0315 28.1545 42.0445 28.2445 42.0553 28.3442C42.0553 28.3757 42.0608 28.4071 42.0629 28.4386C42.0651 28.47 42.0629 28.5101 42.0705 28.547C42.0694 28.6077 42.0716 28.676 42.0716 28.7443Z" fill="white"/>
<path d="M34.0566 28.377L34.0675 28.3824C34.0866 28.3948 34.107 28.4054 34.1282 28.4138C34.1244 28.4104 34.12 28.4079 34.1152 28.4062L34.0566 28.377Z" fill="white"/>
<path d="M34.0566 28.377L34.1152 28.4062C34.0997 28.3974 34.0838 28.3894 34.0675 28.3824L34.0566 28.377Z" fill="white"/>
<path d="M44.6911 36.5326V40.652C44.6911 40.7366 44.6716 40.8103 44.5903 40.8103H31.5945C31.5755 40.8088 31.5569 40.8035 31.54 40.7947C31.5231 40.7858 31.5081 40.7736 31.4961 40.7588C31.484 40.744 31.4751 40.7269 31.4698 40.7085C31.4646 40.6902 31.4631 40.671 31.4655 40.652V36.5326C31.4655 36.4664 31.4503 36.4003 31.4536 36.3342C31.4937 35.3915 31.8645 34.493 32.5008 33.7964C32.5192 33.7769 32.5333 33.7573 32.5517 33.7378C32.8554 33.4183 33.2118 33.1535 33.6055 32.9551L33.677 32.9204C33.7859 32.869 33.8974 32.823 34.0109 32.7828L34.0868 32.7568C34.1894 32.7228 34.2935 32.6935 34.399 32.6689C34.528 32.7936 34.6635 32.9096 34.8023 33.0202C35.1609 33.2988 35.5527 33.5318 35.9687 33.714C36.0457 33.7487 36.1248 33.7812 36.2029 33.8116C37.1464 34.189 38.1838 34.2647 39.1721 34.0284C39.2166 34.0197 39.2599 33.9763 39.3044 33.9763H39.5017C39.673 33.9763 39.8432 33.8679 40.0101 33.8007C40.0762 33.7747 40.1424 33.7574 40.2085 33.7281C40.5325 33.5944 40.8396 33.423 41.1235 33.2175C41.156 33.2175 41.1874 33.16 41.2189 33.1373C41.409 32.994 41.59 32.839 41.7609 32.6733C43.387 33.0527 44.6131 34.539 44.6976 36.3342C44.6998 36.4003 44.6911 36.4632 44.6911 36.5326Z" fill="white"/>
<path d="M26.9718 23.0361H26.7409C26.3727 23.0361 26.0742 23.3346 26.0742 23.7028V29.2153C26.0742 29.5835 26.3727 29.882 26.7409 29.882H26.9718C27.34 29.882 27.6385 29.5835 27.6385 29.2153V23.7028C27.6385 23.3346 27.34 23.0361 26.9718 23.0361Z" fill="white"/>
<path d="M26.305 28.5128L26.1814 28.668C25.9464 28.963 25.995 29.3927 26.2901 29.6277L30.5712 33.038C30.8663 33.273 31.296 33.2243 31.531 32.9293L31.6546 32.7741C31.8896 32.4791 31.8409 32.0494 31.5459 31.8144L27.2647 28.4041C26.9697 28.1691 26.54 28.2178 26.305 28.5128Z" fill="white"/>
<path d="M27.2484 28.6679L27.1247 28.5127C26.8897 28.2177 26.4601 28.169 26.165 28.404L21.8838 31.8143C21.5888 32.0493 21.5402 32.479 21.7752 32.7741L21.8988 32.9292C22.1338 33.2243 22.5635 33.2729 22.8585 33.0379L27.1397 29.6276C27.4347 29.3926 27.4834 28.9629 27.2484 28.6679Z" fill="white"/>
</svg>
