<svg width="54" height="54" viewBox="0 0 54 54" fill="none" xmlns="http://www.w3.org/2000/svg">
<path d="M26.8101 53.6201C41.6168 53.6201 53.6201 41.6168 53.6201 26.8101C53.6201 12.0033 41.6168 0 26.8101 0C12.0033 0 0 12.0033 0 26.8101C0 41.6168 12.0033 53.6201 26.8101 53.6201Z" fill=""/>
<path fill-rule="evenodd" clip-rule="evenodd" d="M15.3993 17.6553L15.6042 17.8374C15.6431 17.8717 15.6757 17.9124 15.7007 17.9577L15.9533 18.4087C15.9674 18.4348 15.9794 18.462 15.9891 18.49L16.2514 19.2835C16.2577 19.3011 16.2625 19.3193 16.2655 19.3377L16.5116 20.5476L16.7045 21.7173C16.7045 21.7346 16.7045 21.752 16.71 21.7693L16.749 22.5498C16.7513 22.6 16.7455 22.6501 16.7316 22.6984L16.6308 23.0626C16.611 23.1358 16.5738 23.2031 16.5224 23.2588C16.4508 23.3348 16.3557 23.3844 16.2525 23.3997L15.6725 23.4886H15.6411L14.8627 23.5537C14.8 23.5586 14.739 23.576 14.6831 23.6049C14.6273 23.6337 14.5778 23.6734 14.5375 23.7217L14.2502 24.0697C14.2078 24.1207 14.1767 24.1802 14.1592 24.2442L13.9066 25.1614C13.8946 25.2073 13.8892 25.2548 13.8903 25.3023L13.9413 26.8015C13.9413 26.8135 13.9413 26.8254 13.9413 26.8373L14.1689 28.8851C14.1711 28.903 14.1744 28.9207 14.1787 28.9382L14.621 30.8473C14.6263 30.8686 14.6328 30.8896 14.6405 30.9102L15.1446 32.211C15.1625 32.2583 15.1882 32.3022 15.2205 32.3411L15.6671 32.8832C15.7328 32.9614 15.8223 33.0162 15.9218 33.0393L16.3555 33.1379C16.4331 33.1564 16.5142 33.1542 16.5907 33.1314L17.3658 32.907C17.3909 32.8992 17.4167 32.8942 17.4428 32.8918L17.5176 32.8832C17.5879 32.8746 17.6593 32.8823 17.7262 32.9056C17.793 32.9289 17.8537 32.9672 17.9035 33.0176L18.0466 33.1618C18.074 33.1889 18.0976 33.2195 18.1171 33.2528L18.4651 33.8426C18.4836 33.8733 18.4985 33.906 18.5095 33.9401L18.8467 35.0177C18.8467 35.0285 18.8532 35.0383 18.8553 35.0491L19.1274 36.1874C19.1319 36.2045 19.1352 36.2219 19.1372 36.2394L19.2456 37.0937C19.2477 37.1186 19.2477 37.1436 19.2456 37.1685L19.2282 37.5891C19.2246 37.6882 19.1893 37.7836 19.1274 37.8612L19.045 37.9696C18.9697 38.0651 18.86 38.1273 18.7393 38.1431L17.7225 38.2677C17.6865 38.2717 17.6501 38.2717 17.6141 38.2677L16.2384 38.1593C16.0205 38.1329 15.8056 38.0857 15.5966 38.0184L15.2302 37.8558C15.1293 37.8156 15.0344 37.7616 14.9484 37.6953C14.8191 37.5984 14.6994 37.4895 14.5906 37.3701C14.5819 37.3614 14.5744 37.3517 14.5668 37.343L14.0139 36.6503C13.99 36.6221 13.8621 36.427 13.8459 36.3934L12.9472 34.6318C12.9374 34.6113 12.9287 34.5903 12.9211 34.5689L12.1027 32.0593C12.0977 32.0455 12.0937 32.0313 12.0908 32.017L11.4793 29.2895C11.4757 29.2741 11.4731 29.2586 11.4718 29.2429L11.1769 26.7766C11.1758 26.764 11.1758 26.7513 11.1769 26.7387L11.0934 24.5705C11.0913 24.5456 11.0913 24.5206 11.0934 24.4957L11.3276 22.5867C11.3297 22.5639 11.3341 22.5414 11.3406 22.5195L11.7688 20.9563C11.7688 20.9422 11.7775 20.9281 11.7829 20.914L12.249 19.6966C12.261 19.6663 12.2759 19.6372 12.2935 19.6098L12.8225 18.787C12.8466 18.7499 12.8758 18.7163 12.9092 18.6873L13.4003 18.2602C13.4381 18.2283 13.4805 18.2023 13.5261 18.1832L14.5115 17.768C14.5539 17.7497 14.5988 17.738 14.6448 17.7333L15.4037 17.6553H15.3993Z" fill="white"/>
<path fill-rule="evenodd" clip-rule="evenodd" d="M16.8796 17.2432L17.1333 17.3841C17.1594 17.3993 17.1825 17.4192 17.2016 17.4426L17.4704 17.783C17.4906 17.8073 17.5051 17.8359 17.5127 17.8665L17.6764 18.4671L17.9106 19.3018L18.1404 20.1149C18.1445 20.1283 18.147 20.1421 18.148 20.1561L18.2239 20.9572L18.2857 21.8472L18.3041 22.5985C18.3041 22.6234 18.3008 22.6481 18.2943 22.6722L18.1556 23.1286C18.1454 23.1623 18.1277 23.1933 18.1039 23.2192C18.0801 23.2451 18.0506 23.2652 18.0179 23.2782L17.6818 23.4115C17.6475 23.4253 17.6103 23.4305 17.5734 23.4267L17.2688 23.3931C17.2252 23.3888 17.1838 23.3722 17.1494 23.3451C17.115 23.318 17.0891 23.2816 17.0747 23.2402C17.0619 23.2056 17.0578 23.1684 17.0628 23.1318L17.104 22.8402C17.104 22.8294 17.104 22.8174 17.104 22.8066V22.2819L17.0769 21.6531C17.0774 21.6459 17.0774 21.6387 17.0769 21.6315L16.9869 20.9658L16.8948 20.2948C16.8953 20.2909 16.8953 20.2868 16.8948 20.2829L16.781 19.6856C16.781 19.678 16.781 19.6704 16.781 19.6639L16.6238 19.1305C16.6242 19.1248 16.6242 19.119 16.6238 19.1132L16.4406 18.6319C16.4376 18.6244 16.435 18.6168 16.433 18.6091L16.3246 18.1961C16.3183 18.17 16.3073 18.1454 16.2921 18.1234L16.0752 17.8123C16.0604 17.7907 16.049 17.7669 16.0416 17.7418L16.0145 17.6443C16.0028 17.6028 16.003 17.5588 16.0151 17.5174C16.0271 17.476 16.0506 17.4388 16.0828 17.4101L16.0926 17.4004C16.1194 17.3762 16.1512 17.3585 16.1858 17.3483L16.4828 17.2648C16.5011 17.2592 16.5201 17.2563 16.5392 17.2562L16.9002 17.2453L16.8796 17.2432Z" fill="white"/>
<path fill-rule="evenodd" clip-rule="evenodd" d="M20.8768 37.566L21.0069 37.2018C21.0112 37.1895 21.0145 37.1768 21.0166 37.1639L21.0838 36.7855C21.0871 36.7643 21.0871 36.7427 21.0838 36.7215L21.0296 36.186C21.0302 36.1777 21.0302 36.1694 21.0296 36.1611L20.9028 35.5627L20.7326 34.7681C20.7313 34.758 20.7288 34.7482 20.725 34.7388L20.4605 33.9951L20.454 33.9778L20.0865 33.1604C20.0799 33.1454 20.0715 33.1312 20.0616 33.1181L19.6095 32.51C19.5951 32.4902 19.5776 32.4729 19.5575 32.459L19.1585 32.175C19.1331 32.1568 19.1042 32.1439 19.0736 32.1372C19.0431 32.1305 19.0115 32.1301 18.9807 32.1359L18.6132 32.2042C18.5805 32.2106 18.5494 32.2239 18.5222 32.2433L18.3216 32.3885C18.2821 32.4159 18.2521 32.455 18.236 32.5003C18.2198 32.5457 18.2183 32.5949 18.2316 32.6411L18.2566 32.7289C18.2615 32.7471 18.2688 32.7646 18.2783 32.781L18.4582 33.0943L18.7466 33.5572C18.751 33.5645 18.755 33.5721 18.7585 33.5799L18.9905 34.071C18.9958 34.0834 19.0005 34.0961 19.0046 34.109L19.1531 34.6575L19.3157 35.2104L19.4675 35.747C19.468 35.7538 19.468 35.7607 19.4675 35.7676L19.5824 36.3714C19.5834 36.3797 19.5834 36.388 19.5824 36.3963L19.6203 36.8657L19.6583 37.3286C19.6615 37.3498 19.6615 37.3714 19.6583 37.3926L19.5867 37.7536C19.584 37.7745 19.584 37.7956 19.5867 37.8165V37.823C19.5901 37.8794 19.614 37.9326 19.654 37.9726C19.6939 38.0125 19.7471 38.0364 19.8035 38.0398L20.0084 38.0517C20.041 38.0539 20.0736 38.0487 20.1038 38.0365L20.5169 37.8804C20.5446 37.8694 20.5703 37.8536 20.5927 37.8338L20.8779 37.5693L20.8768 37.566Z" fill="white"/>
<path d="M41.3316 24.5826C41.181 23.017 40.7294 21.4953 40.0014 20.1011C39.2748 18.7056 38.2849 17.4639 37.0864 16.4445C35.7135 15.2798 34.1 14.4332 32.3614 13.9656C30.6228 13.498 28.8023 13.4209 27.0305 13.7399C25.2586 14.0588 23.5792 14.7659 22.1128 15.8104C20.6464 16.8549 19.4293 18.2109 18.5488 19.7813L18.7656 20.0902C18.7795 20.1085 18.7909 20.1285 18.7992 20.1499L18.9423 20.4675C20.0241 18.3693 21.7242 16.654 23.8127 15.5535C25.9011 14.453 28.2772 14.0205 30.6195 14.3144C32.9618 14.6083 35.1573 15.6145 36.9091 17.1968C38.6609 18.7792 39.8845 20.8614 40.4143 23.1618C40.9442 25.4622 40.7548 27.8699 39.8717 30.0591C38.9886 32.2484 37.4545 34.1136 35.4768 35.4026C33.4991 36.6915 31.1732 37.342 28.8138 37.266C26.4544 37.19 24.1752 36.3912 22.2845 34.9777L21.659 35.1241C21.6324 35.1305 21.6051 35.1338 21.5777 35.1338H21.3967C22.9396 36.4157 24.7752 37.2969 26.7404 37.6991C28.7056 38.1013 30.7398 38.0122 32.6623 37.4396C34.1641 36.9911 35.5661 36.2592 36.7926 35.2834C38.3785 34.0172 39.624 32.3758 40.4165 30.5075C41.2089 28.6392 41.5234 26.6029 41.3316 24.5826Z" fill="white"/>
<path d="M22.4395 29.884V28.53L23.6764 27.4113C25.7665 25.5412 26.7822 24.4669 26.8126 23.3482C26.8126 22.5676 26.341 21.9497 25.2374 21.9497C24.4125 21.9497 23.6915 22.3617 23.1907 22.7443L22.5533 21.1388C23.2742 20.5968 24.3962 20.1523 25.6884 20.1523C27.8565 20.1523 29.049 21.4185 29.049 23.1563C29.049 24.7607 27.8858 26.041 26.5015 27.2757L25.619 28.0118V28.0411H29.2257V29.884H22.4395Z" fill="white"/>
<path d="M34.566 29.8844V27.6024H30.3262V26.1454L33.947 20.3164H36.6853V25.9243H37.8333V27.6024H36.6853V29.8844H34.566ZM34.566 25.9243V23.8049C34.566 23.2304 34.5952 22.6417 34.6397 22.0238H34.5811C34.2722 22.6417 34.0218 23.2011 33.6987 23.8049L32.413 25.895V25.9243H34.566Z" fill="white"/>
<path d="M29.2154 14.8903L32.6844 14.1998L29.2414 13.3694L25.9643 11.9883L25.8949 12.0208L26.9226 13.8019L27.0874 14.086L26.9107 14.3646L25.8125 16.0904L25.8808 16.1381L29.2154 14.8903Z" fill="white"/>
<path d="M33.9069 35.5922L31.2715 37.5565L34.4879 36.8801L37.79 36.7283L37.8344 36.6719L36.2625 35.5879L36.011 35.4155L36.049 35.1109L36.281 33.2268L36.204 33.2148L33.9069 35.5922Z" fill="white"/>
</svg>
