<svg width="54" height="54" viewBox="0 0 54 54" fill="none" xmlns="http://www.w3.org/2000/svg">
<path d="M26.8101 53.6201C41.6168 53.6201 53.6201 41.6168 53.6201 26.8101C53.6201 12.0033 41.6168 0 26.8101 0C12.0033 0 0 12.0033 0 26.8101C0 41.6168 12.0033 53.6201 26.8101 53.6201Z" fill=""/>
<path d="M46.7031 23.05C46.6662 23.1855 46.6348 23.3221 46.5946 23.4565C46.4868 23.8015 46.2941 24.1139 46.0341 24.3651C45.7741 24.6162 45.4552 24.798 45.1067 24.8938C44.7582 24.9896 44.3912 24.9964 44.0393 24.9135C43.6875 24.8305 43.3622 24.6606 43.0931 24.4192C42.3722 23.7817 41.6838 23.1085 40.925 22.5166C36.7325 19.2604 31.5104 17.6174 26.2088 17.8866C21.2698 18.1587 16.8771 19.8552 13.0655 23.0218C12.5235 23.4684 12.0357 23.9693 11.5121 24.4311C11.2565 24.6569 10.9509 24.8188 10.6206 24.9035C10.2902 24.9883 9.94448 24.9934 9.61176 24.9184C9.27904 24.8435 8.96886 24.6907 8.7067 24.4725C8.44455 24.2544 8.23791 23.9771 8.10377 23.6636C8.02994 23.4625 7.96662 23.2577 7.91406 23.05V22.5654C7.93094 22.5233 7.94542 22.4802 7.95743 22.4364C8.03462 22.0027 8.24357 21.6034 8.55583 21.2927C13.0961 16.7404 19.1411 14.0006 25.5572 13.5872C25.8575 13.5677 26.1578 13.5395 26.4592 13.5156H28.1558C28.2342 13.5315 28.3135 13.5431 28.3932 13.5503C29.9863 13.6078 31.5706 13.8147 33.1251 14.1682C37.9938 15.2544 42.4544 17.6997 45.9887 21.2201C46.3442 21.5542 46.5807 21.9954 46.6619 22.4765C46.6714 22.5075 46.6845 22.5374 46.7009 22.5654L46.7031 23.05Z" fill="white"/>
<path d="M26.9538 21.1836C32.7438 21.2779 37.4248 23.1707 41.3177 26.9725C41.9389 27.5796 42.1589 28.3168 41.9183 29.1504C41.6852 29.9591 41.1291 30.473 40.3052 30.6551C39.5301 30.8274 38.8547 30.602 38.2899 30.048C37.5998 29.3668 36.8491 28.75 36.047 28.2051C34.1976 26.951 32.0983 26.1125 29.8938 25.7475C28.5518 25.5164 27.1848 25.4671 25.8296 25.6012C22.2392 25.9625 19.1316 27.3881 16.5067 29.8778C16.1413 30.2258 15.7652 30.5358 15.2567 30.6529C14.8072 30.7567 14.3362 30.7144 13.9124 30.5321C13.4885 30.3498 13.1339 30.037 12.9 29.6393C12.6638 29.2423 12.5636 28.7791 12.6145 28.3199C12.6653 27.8608 12.8645 27.4307 13.1818 27.095C14.2831 25.9653 15.5214 24.9776 16.8677 24.155C19.1652 22.723 21.738 21.7897 24.4193 21.4156C25.3765 21.2812 26.3424 21.2367 26.9538 21.1836Z" fill="white"/>
<path d="M27.5874 29.04C30.6228 29.0877 33.4912 30.2466 35.8718 32.5719C36.0764 32.7673 36.2405 33.0011 36.3547 33.2599C36.4689 33.5187 36.5311 33.7975 36.5375 34.0803C36.544 34.3631 36.4948 34.6444 36.3925 34.9082C36.2903 35.172 36.1371 35.413 35.9417 35.6176C35.7463 35.8222 35.5126 35.9863 35.2538 36.1005C34.995 36.2147 34.7162 36.2769 34.4334 36.2834C34.1505 36.2898 33.8692 36.2406 33.6054 36.1383C33.3417 36.0361 33.1006 35.8829 32.896 35.6875C31.7719 34.6035 30.4786 33.8446 28.9435 33.5422C26.3103 33.0251 23.9818 33.6614 21.9827 35.4566C21.6077 35.7938 21.238 36.1125 20.7285 36.2274C20.2822 36.3291 19.8153 36.2869 19.3945 36.107C18.9737 35.927 18.6206 35.6186 18.3858 35.2257C18.1463 34.8307 18.0422 34.3684 18.0891 33.9089C18.1361 33.4494 18.3316 33.0177 18.646 32.6793C19.5104 31.779 20.5159 31.0258 21.6228 30.4493C23.4018 29.5094 25.3 29.053 27.5874 29.04Z" fill="white"/>
<path d="M27.3095 41.3856C28.7177 41.3856 29.8592 40.244 29.8592 38.8359C29.8592 37.4277 28.7177 36.2861 27.3095 36.2861C25.9013 36.2861 24.7598 37.4277 24.7598 38.8359C24.7598 40.244 25.9013 41.3856 27.3095 41.3856Z" fill="white"/>
</svg>
