<svg width="46" height="46" viewBox="0 0 46 46" fill="none" xmlns="http://www.w3.org/2000/svg">
<path d="M0.0644531 22.9677C0.0644531 10.283 10.3475 0 23.0322 0C35.7169 0 45.9999 10.283 45.9999 22.9677C45.9999 35.6525 35.7169 45.9355 23.0322 45.9355C10.3475 45.9355 0.0644531 35.6525 0.0644531 22.9677Z" fill="#4C6C91"/>
<path d="M24.2336 30.5048C24.2336 30.5048 24.6758 30.4566 24.9023 30.2178C25.1096 29.9991 25.1024 29.5862 25.1024 29.5862C25.1024 29.5862 25.0748 27.6584 25.9867 27.3738C26.8853 27.0939 28.0393 29.2381 29.2639 30.0626C30.1889 30.686 30.8911 30.5495 30.8911 30.5495L34.1635 30.5048C34.1635 30.5048 35.8746 30.4013 35.0634 29.0805C34.9963 28.9722 34.5901 28.103 32.6309 26.3176C30.5783 24.4486 30.8539 24.7509 33.3247 21.5175C34.8297 19.5486 35.4312 18.3465 35.2431 17.8325C35.0646 17.3409 33.9574 17.4715 33.9574 17.4715L30.274 17.4938C30.274 17.4938 30.0008 17.4573 29.7983 17.5761C29.6006 17.6926 29.4724 17.9643 29.4724 17.9643C29.4724 17.9643 28.89 19.4874 28.1124 20.7836C26.472 23.5171 25.8165 23.6617 25.5481 23.4924C24.9238 23.096 25.0796 21.9022 25.0796 21.0541C25.0796 18.4042 25.4894 17.2997 24.2828 17.0139C23.8826 16.9186 23.5878 16.8563 22.5633 16.8457C21.2488 16.8328 20.1368 16.8504 19.5066 17.1527C19.0872 17.3538 18.7637 17.8031 18.9614 17.829C19.2046 17.8608 19.7558 17.9749 20.0482 18.3654C20.4256 18.8699 20.4124 20.0014 20.4124 20.0014C20.4124 20.0014 20.6293 23.1207 19.9056 23.5077C19.4095 23.7735 18.7289 23.2313 17.2659 20.7507C16.517 19.4804 15.9514 18.076 15.9514 18.076C15.9514 18.076 15.8423 17.8137 15.647 17.6726C15.411 17.502 15.0815 17.4491 15.0815 17.4491L11.5814 17.4715C11.5814 17.4715 11.0554 17.4856 10.8624 17.7102C10.6911 17.909 10.8493 18.3218 10.8493 18.3218C10.8493 18.3218 13.5896 24.6156 16.6931 27.7878C19.5389 30.6954 22.7694 30.5048 22.7694 30.5048H24.2336Z" fill="white"/>
</svg>
