<svg width="46" height="46" viewBox="0 0 46 46" fill="none" xmlns="http://www.w3.org/2000/svg">
<path d="M23 45.9355C35.6847 45.9355 45.9677 35.6525 45.9677 22.9677C45.9677 10.283 35.6847 0 23 0C10.3152 0 0.0322266 10.283 0.0322266 22.9677C0.0322266 35.6525 10.3152 45.9355 23 45.9355Z" fill="url(#paint0_linear_1501_6417)"/>
<path d="M18.7892 33.4948C18.0451 33.4948 18.1715 33.2139 17.9149 32.5054L15.7268 25.3041L32.5698 15.312" fill="#C8DAEA"/>
<path d="M18.7893 33.4946C19.3635 33.4946 19.6172 33.232 19.9377 32.9204L23.0001 29.9426L19.1801 27.6392" fill="#A9C9DD"/>
<path d="M19.1798 27.6396L28.4358 34.478C29.492 35.0608 30.2543 34.7591 30.5174 33.4974L34.2851 15.7427C34.6708 14.1962 33.6955 13.4948 32.6851 13.9535L10.5614 22.4843C9.05127 23.09 9.06008 23.9325 10.2862 24.308L15.9636 26.08L29.1074 17.7877C29.7279 17.4114 30.2974 17.6137 29.83 18.0285" fill="url(#paint1_linear_1501_6417)"/>
<defs>
<linearGradient id="paint0_linear_1501_6417" x1="17.2603" y1="1.91551" x2="5.77646" y2="28.7097" gradientUnits="userSpaceOnUse">
<stop stop-color="#37AEE2"/>
<stop offset="1" stop-color="#1E96C8"/>
</linearGradient>
<linearGradient id="paint1_linear_1501_6417" x1="20.1249" y1="24.3784" x2="22.5789" y2="32.3165" gradientUnits="userSpaceOnUse">
<stop stop-color="#EFF7FC"/>
<stop offset="1" stop-color="white"/>
</linearGradient>
</defs>
</svg>
