<svg width="46" height="46" viewBox="0 0 46 46" fill="none" xmlns="http://www.w3.org/2000/svg">
<path d="M22.9677 45.9355C35.6525 45.9355 45.9355 35.6525 45.9355 22.9677C45.9355 10.283 35.6525 0 22.9677 0C10.283 0 0 10.283 0 22.9677C0 35.6525 10.283 45.9355 22.9677 45.9355Z" fill="#25D366"/>
<path fill-rule="evenodd" clip-rule="evenodd" d="M23.7247 35.7458H23.7191C21.4334 35.745 19.1874 35.1716 17.1926 34.0835L9.95264 35.9827L11.8902 28.9056C10.695 26.8344 10.0661 24.4849 10.0671 22.0779C10.0701 14.5477 16.1968 8.42139 23.7246 8.42139C27.3781 8.42296 30.8072 9.84526 33.3857 12.4268C35.9642 15.0082 37.3834 18.4395 37.382 22.0886C37.379 29.617 31.2547 35.7428 23.7247 35.7458ZM17.528 31.611L17.9425 31.857C19.6854 32.8913 21.6832 33.4385 23.7201 33.4393H23.7247C29.9813 33.4393 35.0735 28.347 35.076 22.0878C35.0772 19.0547 33.8976 16.2027 31.7544 14.0571C29.6113 11.9114 26.7612 10.7292 23.7292 10.7281C17.4678 10.7281 12.3755 15.82 12.373 22.0786C12.3722 24.2235 12.9723 26.3124 14.1086 28.1197L14.3785 28.5492L13.2317 32.738L17.528 31.611ZM30.1378 25.029C30.3759 25.1441 30.5366 25.2217 30.6052 25.3363C30.6905 25.4786 30.6905 26.1618 30.4063 26.9591C30.1218 27.7562 28.7585 28.4837 28.1028 28.5816C27.5149 28.6695 26.7709 28.7062 25.9534 28.4464C25.4578 28.2892 24.8222 28.0792 24.008 27.7276C20.8089 26.3462 18.6469 23.2455 18.2383 22.6595C18.2097 22.6184 18.1897 22.5897 18.1785 22.5748L18.1757 22.5711C17.9951 22.3302 16.7851 20.7157 16.7851 19.0447C16.7851 17.4728 17.5572 16.6489 17.9126 16.2697C17.937 16.2437 17.9594 16.2198 17.9794 16.1979C18.2922 15.8562 18.6619 15.7708 18.8894 15.7708C19.1169 15.7708 19.3446 15.7729 19.5435 15.7829C19.568 15.7841 19.5935 15.784 19.6199 15.7838C19.8188 15.7827 20.0667 15.7812 20.3113 16.3687C20.4053 16.5948 20.543 16.93 20.6882 17.2835C20.9819 17.9984 21.3063 18.7882 21.3634 18.9025C21.4487 19.0733 21.5056 19.2726 21.3918 19.5004C21.3748 19.5346 21.359 19.5668 21.3439 19.5976C21.2585 19.772 21.1956 19.9003 21.0506 20.0696C20.9936 20.1362 20.9347 20.208 20.8757 20.2797C20.7583 20.4227 20.6409 20.5657 20.5387 20.6675C20.3679 20.8377 20.19 21.0223 20.3891 21.3639C20.5882 21.7056 21.273 22.823 22.2875 23.7279C23.378 24.7006 24.3258 25.1117 24.8062 25.3201C24.9 25.3608 24.976 25.3938 25.0318 25.4217C25.3729 25.5926 25.572 25.564 25.7711 25.3363C25.9701 25.1085 26.6241 24.3398 26.8516 23.9982C27.079 23.6567 27.3066 23.7136 27.6194 23.8274C27.9322 23.9414 29.61 24.7669 29.9512 24.9377C30.0178 24.971 30.0801 25.0011 30.1378 25.029Z" fill="#FDFDFD"/>
</svg>
