<svg width="34" height="34" viewBox="0 0 34 34" fill="none" xmlns="http://www.w3.org/2000/svg">
<circle cx="17" cy="17" r="17" transform="rotate(-180 17 17)" fill="white"/>
<path d="M8.30667 22.3294C7.94937 20.9959 7.90361 19.5981 8.17293 18.2442C8.44225 16.8902 9.01943 15.6164 9.85982 14.5211C10.7002 13.4259 11.7813 12.5387 13.0194 11.9281C14.2575 11.3176 15.6195 11 17 11C18.3805 11 19.7425 11.3176 20.9806 11.9281C22.2187 12.5387 23.2998 13.4259 24.1402 14.5211C24.9806 15.6164 25.5577 16.8902 25.8271 18.2442C26.0964 19.5982 26.0506 20.9959 25.6933 22.3294" stroke="black" stroke-linecap="round"/>
<path d="M16.2341 20.5823C15.7466 21.2916 16.0894 22.3738 16.9997 22.9994C17.9101 23.625 19.0432 23.5571 19.5307 22.8477C20.0502 22.0917 21.8436 17.8409 22.9326 15.2114C23.1377 14.7162 22.5321 14.3 22.1433 14.669C20.079 16.6283 16.7536 19.8263 16.2341 20.5823Z" stroke="black"/>
<path d="M17 11L17 13" stroke="black" stroke-linecap="round"/>
<path d="M23.3643 13.6357L21.95 15.05" stroke="black" stroke-linecap="round"/>
<path d="M10.6357 13.6357L12.05 15.05" stroke="black" stroke-linecap="round"/>
<path d="M8.30664 22.3291L10.2385 21.8115" stroke="black" stroke-linecap="round"/>
<path d="M25.6934 22.3291L23.7615 21.8115" stroke="black" stroke-linecap="round"/>
</svg>
