<svg width="34" height="34" viewBox="0 0 34 34" fill="none" xmlns="http://www.w3.org/2000/svg">
<circle cx="17" cy="17" r="17" fill="white"/>
<path d="M8.5 13C8.5 12.0431 8.50106 11.3756 8.56877 10.8721C8.63453 10.3829 8.75483 10.1238 8.93934 9.93934C9.12385 9.75483 9.3829 9.63453 9.87208 9.56876C10.3756 9.50106 11.0431 9.5 12 9.5L22 9.5C22.9569 9.5 23.6244 9.50106 24.1279 9.56876C24.6171 9.63453 24.8762 9.75483 25.0607 9.93934C25.2452 10.1238 25.3655 10.3829 25.4312 10.8721C25.4989 11.3756 25.5 12.0431 25.5 13L25.5 21.5L8.5 21.5L8.5 13Z" stroke="black"/>
<path d="M8.66667 21.5C8.02233 21.5 7.5 22.0223 7.5 22.6667C7.5 23.6792 8.32081 24.5 9.33333 24.5L24.6667 24.5C25.6792 24.5 26.5 23.6792 26.5 22.6667C26.5 22.0223 25.9777 21.5 25.3333 21.5L8.66667 21.5Z" stroke="black"/>
</svg>
