<svg width="48" height="48" viewBox="0 0 48 48" fill="none" xmlns="http://www.w3.org/2000/svg">
<path d="M21 21V18.5C21 17.1193 19.8807 16 18.5 16V16C17.1193 16 16 17.1193 16 18.5V18.5C16 19.8807 17.1193 21 18.5 21H21ZM21 21V27M21 21H27M27 21H29.5C30.8807 21 32 19.8807 32 18.5V18.5C32 17.1193 30.8807 16 29.5 16V16C28.1193 16 27 17.1193 27 18.5V21ZM27 21V27M21 27H18.5C17.1193 27 16 28.1193 16 29.5V29.5C16 30.8807 17.1193 32 18.5 32V32C19.8807 32 21 30.8807 21 29.5V27ZM21 27H27M27 27H29.5C30.8807 27 32 28.1193 32 29.5V29.5C32 30.8807 30.8807 32 29.5 32V32C28.1193 32 27 30.8807 27 29.5V27Z" stroke="#7B61FF" stroke-width="2"/>
</svg>
