<svg width="48" height="48" viewBox="0 0 48 48" fill="none" xmlns="http://www.w3.org/2000/svg">
<path fill-rule="evenodd" clip-rule="evenodd" d="M19.1004 25.5053C19.0343 25.0143 19 24.5116 19 24C19 23.4822 19.0351 22.9735 19.1028 22.4767H17.1662C17.0574 22.9671 17 23.4769 17 24C17 24.5168 17.056 25.0204 17.1622 25.5053H19.1004ZM19.5633 27.5053H17.9395C18.651 28.7327 19.7246 29.724 21.0141 30.3331C20.4015 29.4925 19.9083 28.5391 19.5633 27.5053ZM21.7425 27.5053L26.2575 27.5053C25.732 28.6714 24.9525 29.6704 24 30.4118C23.0475 29.6704 22.268 28.6714 21.7425 27.5053ZM26.8702 25.5053L21.1298 25.5053C21.0446 25.0182 21 24.5149 21 24C21 23.4787 21.0457 22.9694 21.133 22.4767L26.867 22.4767C26.9543 22.9694 27 23.4787 27 24C27 24.5149 26.9554 25.0182 26.8702 25.5053ZM28.4367 27.5053C28.0917 28.5391 27.5985 29.4924 26.9859 30.3331C28.2754 29.724 29.349 28.7327 30.0605 27.5053H28.4367ZM30.8378 25.5053H28.8996C28.9657 25.0143 29 24.5116 29 24C29 23.4822 28.9649 22.9735 28.8972 22.4767H30.8338C30.9426 22.9671 31 23.4769 31 24C31 24.5168 30.944 25.0204 30.8378 25.5053ZM24 17.5882C23.0524 18.3258 22.2761 19.3184 21.7507 20.4767L26.2493 20.4767C25.7239 19.3184 24.9476 18.3258 24 17.5882ZM28.4307 20.4767H30.05C29.3385 19.2576 28.2691 18.273 26.9859 17.6669C27.5949 18.5027 28.086 19.4498 28.4307 20.4767ZM17.95 20.4767H19.5693C19.914 19.4498 20.4051 18.5027 21.0141 17.6669C19.7309 18.273 18.6615 19.2576 17.95 20.4767ZM24 15C28.9706 15 33 19.0294 33 24C33 28.9706 28.9706 33 24 33C19.0294 33 15 28.9706 15 24C15 19.0294 19.0294 15 24 15Z" fill="#1C7EE7"/>
</svg>
