<svg width="48" height="48" viewBox="0 0 48 48" fill="none" xmlns="http://www.w3.org/2000/svg">
<path fill-rule="evenodd" clip-rule="evenodd" d="M19.7894 14.8861C19.4503 14.4502 18.822 14.3716 18.3861 14.7107C17.9501 15.0498 17.8716 15.678 18.2106 16.114L20.4554 19H17C15.8954 19 15 19.8955 15 21V31C15 32.1046 15.8954 33 17 33H31C32.1046 33 33 32.1046 33 31V21C33 19.8955 32.1046 19 31 19H27.2198L27.4806 17.6962C27.5889 17.1546 27.2377 16.6278 26.6961 16.5195C26.1546 16.4112 25.6277 16.7624 25.5194 17.3039L25.1802 19H22.9891L19.7894 14.8861ZM22.4911 21C22.4975 21.0001 22.5039 21.0001 22.5103 21H25.9815C25.9946 21.0003 26.0076 21.0003 26.0207 21H31V31H17L17 21H22.4911Z" fill="#7DB928"/>
</svg>
