<svg width="48" height="48" viewBox="0 0 48 48" fill="none" xmlns="http://www.w3.org/2000/svg">
<path fill-rule="evenodd" clip-rule="evenodd" d="M19.7954 26.256C18.7329 25.4628 17.856 24.58 17.3244 24C17.856 23.42 18.7329 22.5372 19.7954 21.744C21.1319 20.7462 22.6174 20 24.0001 20C25.3827 20 26.8682 20.7462 28.2047 21.744C29.2672 22.5372 30.1441 23.42 30.6757 24C30.1441 24.58 29.2672 25.4628 28.2047 26.256C26.8682 27.2538 25.3827 28 24.0001 28C22.6174 28 21.1319 27.2538 19.7954 26.256ZM24.0001 18C21.9641 18 20.046 19.0611 18.599 20.1413C17.1263 21.2406 15.9912 22.4742 15.4989 23.0423C15.0206 23.5941 15.0206 24.4059 15.4989 24.9577C15.9912 25.5258 17.1263 26.7594 18.599 27.8587C20.046 28.9389 21.9641 30 24.0001 30C26.036 30 27.9541 28.9389 29.4012 27.8587C30.8738 26.7594 32.0089 25.5258 32.5013 24.9577C32.9795 24.4059 32.9795 23.5941 32.5013 23.0423C32.0089 22.4742 30.8738 21.2406 29.4012 20.1413C27.9541 19.0611 26.036 18 24.0001 18ZM24.0001 26C25.1046 26 26.0001 25.1046 26.0001 24C26.0001 22.8954 25.1046 22 24.0001 22C22.8955 22 22.0001 22.8954 22.0001 24C22.0001 25.1046 22.8955 26 24.0001 26Z" fill="#FFCC00"/>
</svg>
