<svg width="34" height="34" viewBox="0 0 34 34" fill="none" xmlns="http://www.w3.org/2000/svg">
<circle cx="17" cy="17" r="17" fill=""/>
<path d="M17 19L16.6464 19.3536L17 19.7071L17.3536 19.3536L17 19ZM17.5 10C17.5 9.72386 17.2761 9.5 17 9.5C16.7239 9.5 16.5 9.72386 16.5 10L17.5 10ZM11.6464 14.3536L16.6464 19.3536L17.3536 18.6464L12.3536 13.6464L11.6464 14.3536ZM17.3536 19.3536L22.3536 14.3536L21.6464 13.6464L16.6464 18.6464L17.3536 19.3536ZM17.5 19L17.5 10L16.5 10L16.5 19L17.5 19Z" fill="black"/>
<path d="M10 21L10 22C10 23.1046 10.8954 24 12 24L22 24C23.1046 24 24 23.1046 24 22V21" stroke="black"/>
</svg>
