<svg width="34" height="34" viewBox="0 0 34 34" fill="none" xmlns="http://www.w3.org/2000/svg">
<circle cx="17" cy="17" r="17" fill=""/>
<path d="M25.6933 22.3294C26.0506 20.9959 26.0964 19.5982 25.8271 18.2442C25.5577 16.8902 24.9806 15.6164 24.1402 14.5211C23.2998 13.4259 22.2187 12.5387 20.9806 11.9281C19.7425 11.3176 18.3805 11 17 11C15.6195 11 14.2575 11.3176 13.0194 11.9281C11.7813 12.5387 10.7002 13.4259 9.85982 14.5211C9.01943 15.6164 8.44225 16.8902 8.17293 18.2442C7.90361 19.5982 7.94937 20.9959 8.30667 22.3294" stroke="black" stroke-linecap="round"/>
<path d="M17.7659 20.5823C18.2534 21.2916 17.9106 22.3738 17.0003 22.9994C16.0899 23.625 14.9568 23.5571 14.4693 22.8477C13.9498 22.0917 12.1564 17.8409 11.0674 15.2114C10.8623 14.7162 11.4679 14.3 11.8567 14.669C13.921 16.6283 17.2464 19.8263 17.7659 20.5823Z" stroke="black"/>
<path d="M17 11V13" stroke="black" stroke-linecap="round"/>
<path d="M10.6357 13.6357L12.05 15.05" stroke="black" stroke-linecap="round"/>
<path d="M23.3643 13.6357L21.95 15.05" stroke="black" stroke-linecap="round"/>
<path d="M25.6934 22.3291L23.7615 21.8115" stroke="black" stroke-linecap="round"/>
<path d="M8.30664 22.3291L10.2385 21.8115" stroke="black" stroke-linecap="round"/>
</svg>
