<svg width="34" height="34" viewBox="0 0 34 34" fill="none" xmlns="http://www.w3.org/2000/svg">
<circle cx="17" cy="17" r="17" fill=""/>
<path d="M8.5 12.5C8.5 11.0999 8.5 10.3998 8.77248 9.86502C9.01217 9.39462 9.39462 9.01217 9.86502 8.77248C10.3998 8.5 11.0999 8.5 12.5 8.5H21.5C22.9001 8.5 23.6002 8.5 24.135 8.77248C24.6054 9.01217 24.9878 9.39462 25.2275 9.86502C25.5 10.3998 25.5 11.0999 25.5 12.5V21.5C25.5 22.9001 25.5 23.6002 25.2275 24.135C24.9878 24.6054 24.6054 24.9878 24.135 25.2275C23.6002 25.5 22.9001 25.5 21.5 25.5H12.5C11.0999 25.5 10.3998 25.5 9.86502 25.2275C9.39462 24.9878 9.01217 24.6054 8.77248 24.135C8.5 23.6002 8.5 22.9001 8.5 21.5V12.5Z" stroke="black"/>
<path d="M8.5 13.5H11.2639C12.2343 13.5 12.7194 13.5 13.13 13.6972C13.2572 13.7583 13.3775 13.8327 13.4891 13.9192C13.8491 14.1982 14.0661 14.6321 14.5 15.5V15.5C14.9339 16.3679 15.1509 16.8018 15.5109 17.0808C15.6225 17.1673 15.7428 17.2417 15.87 17.3028C16.2806 17.5 16.7657 17.5 17.7361 17.5H22.5C23.4319 17.5 23.8978 17.5 24.2654 17.3478C24.7554 17.1448 25.1448 16.7554 25.3478 16.2654C25.5 15.8978 25.5 15.4319 25.5 14.5V14.5" stroke="black"/>
<path d="M12 21H20" stroke="black" stroke-linecap="round"/>
</svg>
