<svg width="176" height="55" viewBox="0 0 176 55" fill="none" xmlns="http://www.w3.org/2000/svg">
<path d="M66.2167 31.5689H72.5517C77.4711 31.5689 79.8776 29.4278 79.8776 24.8623C79.8776 19.5537 76.9933 18.5981 72.6048 18.5981H70.3044V13.7141H77.8604L78.3558 10.6174H66.2167V31.5689ZM70.3044 28.4722V21.6948H72.5517C74.9406 21.6948 75.6307 22.7212 75.6307 24.9862C75.6307 27.2512 74.9406 28.5253 72.4632 28.5253L70.3044 28.4722ZM86.7081 31.5689L92.8131 21.4471L93.344 19.996H93.5209L93.2024 22.1018V31.5335H96.9185V15.6075H93.5563L87.4513 25.5348L86.8497 27.0743H86.7081L87.0267 24.9331V15.6429H83.3637V31.5689H86.7081ZM107.377 31.5689V18.5981H111.836V15.6429H99.095V18.5981H103.537V31.5689H107.377ZM114.083 38.1163H117.905V30.7372C119.141 31.5646 120.616 31.9568 122.099 31.8521C126.435 31.8521 127.833 28.5961 127.833 23.8714C127.833 19.1467 126.859 15.6252 121.958 15.6252C120.297 15.6849 118.717 16.3524 117.516 17.501L117.091 15.9261H114.119V38.0455L114.083 38.1163ZM121.498 29.2685C120.242 29.2857 119.01 28.9284 117.958 28.2422V19.5537C118.992 18.7935 120.218 18.3397 121.498 18.2442C123.267 18.2442 123.78 20.2969 123.78 23.9068C123.78 27.5167 123.214 29.2154 121.498 29.2154V29.2685ZM137.424 15.2713C132.115 15.2713 129.991 18.8104 129.991 23.6944C129.991 28.5784 132.274 31.8521 137.264 31.8521C139.347 31.9088 141.417 31.5165 143.334 30.7019L142.679 28.1006C141.007 28.835 139.196 29.1973 137.371 29.1623C135.318 29.1623 134.256 27.6759 134.097 24.8977V24.243H143.794C143.794 18.4565 142.502 15.3952 137.477 15.3952L137.424 15.2713ZM137.317 17.8195C139.476 17.8195 140.007 19.589 140.007 21.9249H134.115C134.115 19.9253 134.875 17.8195 137.353 17.8195H137.317ZM153.951 13.9972C155.046 14.127 156.151 13.8563 157.061 13.2351C157.972 12.6138 158.627 11.684 158.906 10.6174L156.977 9.55566C156.749 10.126 156.334 10.6023 155.801 10.9075C155.268 11.2126 154.647 11.3287 154.04 11.2367C153.437 11.33 152.82 11.214 152.292 10.9082C151.764 10.6024 151.357 10.1251 151.138 9.55566L149.209 10.6174C149.476 11.6484 150.098 12.5522 150.965 13.1703C151.832 13.7884 152.89 14.0812 153.951 13.9972ZM150.412 31.5689L156.535 21.4471L157.066 19.996H157.243L156.924 22.1018V31.5335H160.622V15.6075H157.225L151.102 25.5348L150.518 27.0743H150.412L150.748 24.9331V15.6429H147.032V31.5689H150.412ZM175.911 16.6162C174.458 15.7449 172.793 15.2917 171.098 15.3067C165.931 15.3067 163.861 18.8458 163.861 23.6767C163.861 28.5076 165.931 31.8521 171.098 31.8521C172.804 31.8925 174.484 31.431 175.929 30.5249L175.186 27.9413C173.994 28.7111 172.606 29.1226 171.187 29.1269C169.205 29.1269 168.072 27.2335 168.072 23.6767C168.072 20.1199 168.957 18.0672 171.187 18.0672C172.575 18.136 173.919 18.576 175.08 19.3413L176 16.6162H175.911ZM70.9768 53.7769V44.9291H74.1266V43.6727H66.2167V44.9291H69.3488V53.7769H70.9768ZM80.09 43.3896C76.9225 43.3896 75.613 45.69 75.613 48.7867C75.613 51.8834 76.9579 54.0069 80.1077 54.0069C81.4052 54.0614 82.6971 53.8066 83.8768 53.2637L83.4345 52.0427C82.4107 52.5871 81.2671 52.8669 80.1077 52.8567C78.8336 52.8567 77.3826 51.9719 77.3826 49.3176V48.8221H84.0361C84.0361 45.0529 83.2398 43.3719 80.09 43.3719V43.3896ZM82.4258 47.7781H77.3826C77.3826 46.0085 78.1435 44.3982 80.09 44.3982C82.0365 44.3982 82.4258 45.69 82.4258 47.7781ZM94.0695 53.7061V43.5665H87.7168C87.8574 46.3379 87.6373 49.1157 87.062 51.8303C86.7789 52.8213 85.9649 52.8036 85.2925 52.8036L85.4871 53.9538C86.8851 53.9538 87.876 53.9538 88.5839 52.1843C89.1896 49.756 89.4341 47.2517 89.3094 44.7521H92.5123V53.7415L94.0695 53.7061ZM101.148 43.3188C97.9802 43.3188 96.6707 45.6192 96.6707 48.7159C96.6707 51.8126 98.0156 53.9361 101.165 53.9361C102.463 53.9906 103.755 53.7359 104.935 53.1929L104.404 51.9896C103.38 52.534 102.236 52.8138 101.077 52.8036C99.8028 52.8036 98.3518 51.9188 98.3518 49.2645V48.769H105.005C105.005 44.9999 104.209 43.3188 101.059 43.3188H101.148ZM103.448 47.7781H98.4049C98.4049 46.0085 99.1658 44.3982 101.112 44.3982C103.059 44.3982 103.448 45.69 103.448 47.7781ZM109.323 53.7061V48.9283H109.978C110.353 48.902 110.727 48.9958 111.045 49.1963C111.363 49.3967 111.609 49.6934 111.747 50.0431L112.384 51.8126C112.809 52.9275 113.251 53.5822 114.048 53.8653C114.479 53.9537 114.918 53.9952 115.357 53.9892L115.499 52.8744C115.228 52.9043 114.954 52.8466 114.719 52.7096C114.483 52.5727 114.297 52.3637 114.189 52.1135L113.411 50.22C112.862 48.946 112.721 48.539 112.048 48.4505C112.738 48.3266 113.092 47.8135 113.535 46.6809L113.995 45.5661C114.076 45.2798 114.255 45.031 114.501 44.8629C114.746 44.6948 115.043 44.6181 115.34 44.646L115.216 43.5665C114.759 43.5482 114.303 43.6142 113.871 43.7612C113.501 43.927 113.172 44.1712 112.907 44.4767C112.641 44.7822 112.444 45.1419 112.331 45.5307L111.889 46.6455C111.743 47.0217 111.48 47.3414 111.14 47.5578C110.799 47.7743 110.398 47.8762 109.995 47.8488H109.358V43.5665H107.73V53.7238L109.323 53.7061ZM116.914 48.7159C116.914 51.8126 117.958 53.9361 121.374 53.9361C124.789 53.9361 125.868 51.8126 125.868 48.7159C125.868 45.6192 124.789 43.3188 121.374 43.3188C117.958 43.3188 116.914 45.6192 116.914 48.7159ZM118.684 48.7159C118.684 46.4155 119.091 44.3805 121.409 44.3805C123.727 44.3805 124.152 46.0616 124.152 48.7159C124.152 51.3703 123.727 52.8744 121.409 52.8744C119.091 52.8744 118.684 51.0163 118.684 48.7159ZM137.459 45.8316L137.636 53.7238H139.405L138.981 43.5665H136.574L134.026 51.6711L133.884 52.7505L133.761 51.6711L131.124 43.5665H128.7L128.328 53.7238H129.761L129.921 45.8316V44.7344L132.823 53.7238H134.592L137.424 44.7344V45.8316H137.459Z" fill="white"/>
<path fill-rule="evenodd" clip-rule="evenodd" d="M26.9857 5.80997e-06C32.323 5.80997e-06 37.5404 1.58269 41.9782 4.54792C46.416 7.51315 49.8748 11.7277 51.9173 16.6587C53.9598 21.5897 54.4942 27.0157 53.4529 32.2504C52.4117 37.4851 49.8415 42.2935 46.0675 46.0675C42.2935 49.8415 37.4851 52.4117 32.2504 53.4529C27.0157 54.4942 21.5897 53.9598 16.6587 51.9173C11.7277 49.8748 7.51315 46.416 4.54792 41.9782C1.58269 37.5404 5.80997e-06 32.323 5.80997e-06 26.9857C-0.00232072 23.4413 0.694098 19.9311 2.04943 16.656C3.40477 13.3809 5.39243 10.4051 7.89875 7.89875C10.4051 5.39243 13.3809 3.40477 16.656 2.04943C19.9311 0.694098 23.4413 -0.00232072 26.9857 5.80997e-06Z" fill="url(#paint0_linear_1501_6427)"/>
<path opacity="0.4" fill-rule="evenodd" clip-rule="evenodd" d="M26.7203 0.778542C31.437 0.781034 36.0619 2.08177 40.0884 4.53823C44.1148 6.99468 47.3875 10.5121 49.5476 14.7049C39.762 14.2626 13.6964 19.465 5.96346 41.1952C2.76091 36.8616 1.03629 31.6133 1.04409 26.2247C1.07687 19.4462 3.7999 12.958 8.61464 8.18645C13.4294 3.41485 19.9418 0.750316 26.7203 0.778542Z" fill="white"/>
<path fill-rule="evenodd" clip-rule="evenodd" d="M16.8638 9.46719C20.3289 7.47616 24.3062 6.55628 28.2937 6.82365C32.2811 7.09102 36.1 8.53366 39.2683 10.9695C42.4366 13.4053 44.8123 16.7251 46.0955 20.5099C47.3787 24.2947 47.512 28.3748 46.4784 32.2353C45.4448 36.0957 43.2908 39.5634 40.2882 42.2008C37.2855 44.8381 33.5689 46.5268 29.6074 47.0538C25.6459 47.5807 21.617 46.9223 18.0294 45.1616C14.4418 43.4008 11.4561 40.6168 9.44936 37.1607C8.11172 34.8571 7.24232 32.3119 6.89107 29.6713C6.53983 27.0306 6.71366 24.3467 7.4026 21.7734C8.09154 19.2002 9.282 16.7884 10.9056 14.6765C12.5293 12.5647 14.5541 10.7943 16.8638 9.46719ZM16.1737 38.3817L26.791 32.2237L29.056 36.1521L20.2083 41.213C23.236 42.6312 26.6371 43.0467 29.9172 42.3991C33.1973 41.7515 36.1853 40.0746 38.4469 37.6122C40.7085 35.1497 42.1256 32.0301 42.4924 28.7069C42.8592 25.3837 42.1565 22.0301 40.4864 19.1337C38.8163 16.2373 36.2659 13.9491 33.2059 12.6018C30.146 11.2545 26.7361 10.9182 23.472 11.642C20.2079 12.3658 17.2597 14.1118 15.0561 16.6262C12.8524 19.1406 11.5082 22.2924 11.2189 25.6232L22.3494 19.1997L24.7737 23.1282L11.7144 30.6488C11.8793 31.3798 12.1042 32.0959 12.3868 32.7899L21.2346 27.6936L23.4996 31.6043L14.6519 36.7183C15.1217 37.306 15.6301 37.8616 16.1737 38.3817Z" fill="white"/>
<defs>
<linearGradient id="paint0_linear_1501_6427" x1="-6.13027" y1="27.4324" x2="47.9962" y2="27.4324" gradientUnits="userSpaceOnUse">
<stop stop-color="#234093"/>
<stop offset="1" stop-color="#4585C6"/>
</linearGradient>
</defs>
</svg>
