<svg width="640" height="196" viewBox="0 0 640 196" fill="none" xmlns="http://www.w3.org/2000/svg">
<g clip-path="url(#clip0_52_43)">
<path d="M240.885 114.682H263.931C281.827 114.682 290.581 106.903 290.581 90.3183C290.581 71.0332 280.089 67.5619 264.124 67.5619H255.755V49.8197H283.243L285.045 38.5701H240.885V114.682ZM255.755 103.432V78.8115H263.931C272.621 78.8115 275.132 82.54 275.132 90.7682C275.132 98.9965 272.621 103.625 263.609 103.625L255.755 103.432ZM315.43 114.682L337.638 77.9116L339.57 72.6403H340.213L339.055 80.29V114.553H352.573V56.698H340.342L318.133 92.761L315.945 98.3537H315.43L316.588 90.5754V56.8266H303.263V114.682H315.43ZM390.618 114.682V67.5619H406.84V56.8266H360.491V67.5619H376.649V114.682H390.618ZM415.015 138.467H428.92V111.66C433.413 114.666 438.781 116.091 444.176 115.71C459.948 115.71 465.033 103.882 465.033 86.7184C465.033 69.5547 461.428 56.7623 443.661 56.7623C437.604 56.9872 431.836 59.4099 427.439 63.5764L425.959 57.8552H415.144V138.209L415.015 138.467ZM441.988 106.325C437.42 106.387 432.938 105.089 429.113 102.596V71.0332C432.872 68.2718 437.334 66.6232 441.988 66.2763C448.425 66.2763 450.292 73.7331 450.292 86.847C450.292 99.9608 448.232 106.132 441.988 106.132V106.325ZM499.924 55.4767C480.612 55.4767 472.887 68.3333 472.887 86.0756C472.887 103.818 481.191 115.71 499.344 115.71C506.921 115.932 514.455 114.507 521.424 111.532L519.107 102.082C513.025 104.75 506.436 106.066 499.795 105.939C492.328 105.939 488.465 100.539 487.886 90.4468V88.0683H523.162C523.162 67.0477 518.463 55.9266 500.181 55.9266L499.924 55.4767ZM499.537 64.7335C507.391 64.7335 509.322 71.1618 509.322 79.6472H487.886C487.886 72.3832 490.654 64.7335 499.666 64.7335H499.537ZM560.048 50.8483C564.031 51.3198 568.05 50.3363 571.363 48.0795C574.676 45.8227 577.059 42.445 578.073 38.5701L571.056 34.7131C570.225 36.7849 568.717 38.5154 566.778 39.624C564.838 40.7325 562.58 41.154 560.37 40.8201C558.177 41.1587 555.933 40.7376 554.013 39.6266C552.092 38.5156 550.61 36.7817 549.813 34.7131L542.796 38.5701C543.768 42.3153 546.03 45.5989 549.185 47.8443C552.34 50.0897 556.186 51.1533 560.048 50.8483ZM547.174 114.682L569.447 77.9116L571.378 72.6403H572.022L570.863 80.29V114.553H584.317V56.698H571.957L549.684 92.761L547.56 98.3537H547.174L548.397 90.5754V56.8266H534.878V114.682H547.174ZM639.936 60.3622C634.649 57.1969 628.59 55.5508 622.426 55.6052C603.629 55.6052 596.097 68.4619 596.097 86.0113C596.097 103.561 603.629 115.71 622.426 115.71C628.631 115.857 634.742 114.181 640 110.889L637.296 101.504C632.96 104.3 627.91 105.795 622.748 105.811C615.538 105.811 611.418 98.9322 611.418 86.0113C611.418 73.0903 614.637 65.6334 622.748 65.6334C627.798 65.8832 632.689 67.4816 636.91 70.2618L640.258 60.3622H639.936ZM258.202 195.357V163.216H269.66V158.651H240.885V163.216H252.279V195.357H258.202ZM291.354 157.623C279.831 157.623 275.067 165.98 275.067 177.229C275.067 188.479 279.895 196.193 291.418 196.193C296.138 196.391 300.838 195.466 305.13 193.493L303.52 189.058C299.796 191.035 295.636 192.052 291.418 192.015C286.783 192.015 281.505 188.8 281.505 179.158V177.358H305.709C305.709 163.666 302.812 157.559 291.354 157.559V157.623ZM299.851 173.565H281.505C281.505 167.137 284.273 161.287 291.354 161.287C298.435 161.287 299.851 165.98 299.851 173.565ZM342.209 195.1V158.266H319.099C319.61 168.333 318.81 178.425 316.717 188.286C315.687 191.886 312.726 191.822 310.28 191.822L310.988 196C316.073 196 319.678 196 322.253 189.572C324.404 180.742 325.271 171.649 324.828 162.573H336.544V195.229L342.209 195.1ZM367.958 157.366C356.435 157.366 351.672 165.723 351.672 176.972C351.672 188.222 356.564 195.936 368.023 195.936C372.743 196.134 377.442 195.208 381.734 193.236L379.803 188.865C376.079 190.842 371.919 191.859 367.701 191.822C363.066 191.822 357.787 188.608 357.787 178.965V177.165H381.992C381.992 163.473 379.095 157.366 367.636 157.366H367.958ZM376.327 173.565H357.98C357.98 167.137 360.748 161.287 367.829 161.287C374.91 161.287 376.327 165.98 376.327 173.565ZM397.699 195.1V177.744H400.08C401.445 177.648 402.805 177.989 403.962 178.717C405.12 179.445 406.015 180.523 406.518 181.794L408.835 188.222C410.38 192.272 411.99 194.65 414.886 195.679C416.453 196 418.051 196.15 419.65 196.129L420.165 192.079C419.179 192.188 418.185 191.978 417.327 191.48C416.47 190.983 415.795 190.224 415.401 189.315L412.505 182.436C410.573 177.808 410.058 176.329 407.612 176.008C410.123 175.558 411.41 173.694 413.02 169.58L414.693 165.53C414.989 164.49 415.641 163.586 416.534 162.975C417.428 162.365 418.508 162.086 419.586 162.187L419.135 158.266C417.475 158.199 415.816 158.439 414.243 158.973C412.899 159.575 411.702 160.462 410.735 161.572C409.768 162.682 409.054 163.989 408.642 165.401L407.033 169.451C406.501 170.818 405.546 171.979 404.307 172.765C403.068 173.551 401.61 173.922 400.145 173.822H397.827V158.266H391.905V195.164L397.699 195.1ZM425.315 176.972C425.315 188.222 429.113 195.936 441.537 195.936C453.961 195.936 457.888 188.222 457.888 176.972C457.888 165.723 453.961 157.366 441.537 157.366C429.113 157.366 425.315 165.723 425.315 176.972ZM431.752 176.972C431.752 168.615 433.233 161.223 441.666 161.223C450.099 161.223 451.644 167.33 451.644 176.972C451.644 186.615 450.099 192.079 441.666 192.079C433.233 192.079 431.752 185.329 431.752 176.972ZM500.052 166.494L500.696 195.164H507.133L505.588 158.266H496.834L487.564 187.708L487.049 191.629L486.598 187.708L477.007 158.266H468.188L466.836 195.164H472.05L472.629 166.494V162.508L483.186 195.164H489.624L499.924 162.508V166.494H500.052Z" fill="white"/>
<path fill-rule="evenodd" clip-rule="evenodd" d="M98.1694 2.11061e-05C117.585 2.11061e-05 136.566 5.74951 152.709 16.5214C168.853 27.2933 181.436 42.6039 188.866 60.5169C196.296 78.4299 198.24 98.1409 194.452 117.157C190.665 136.174 181.315 153.641 167.586 167.351C153.856 181.061 136.364 190.398 117.321 194.181C98.2783 197.963 78.5397 196.022 60.6016 188.602C42.6635 181.182 27.3315 168.617 16.5445 152.496C5.75756 136.375 2.11357e-05 117.421 2.11357e-05 98.0322C-0.00844238 85.156 2.52501 72.4045 7.45548 60.5069C12.386 48.6093 19.6167 37.7989 28.7343 28.6941C37.8518 19.5893 48.6773 12.3686 60.5916 7.44506C72.5059 2.52148 85.2752 -0.00843058 98.1694 2.11061e-05Z" fill="url(#paint0_linear_52_43)"/>
<path fill-rule="evenodd" clip-rule="evenodd" d="M61.3479 34.3915C73.9534 27.1586 88.4221 23.8169 102.928 24.7882C117.433 25.7595 131.326 31.0002 142.852 39.8489C154.377 48.6977 163.02 60.7577 167.688 74.5069C172.356 88.256 172.841 103.078 169.081 117.102C165.321 131.126 157.485 143.723 146.562 153.304C135.639 162.885 122.118 169.02 107.707 170.934C93.2956 172.848 78.6394 170.456 65.5881 164.06C52.5369 157.664 41.6757 147.55 34.3754 134.995C29.5093 126.626 26.3466 117.38 25.0688 107.788C23.791 98.195 24.4234 88.4448 26.9297 79.0969C29.4359 69.749 33.7666 60.9876 39.6731 53.3157C45.5796 45.6439 52.9455 39.2127 61.3479 34.3915ZM58.8373 139.431L97.4613 117.06L105.701 131.331L73.5144 149.716C84.5287 154.868 96.9015 156.377 108.834 154.025C120.766 151.672 131.636 145.58 139.863 136.635C148.091 127.69 153.246 116.357 154.58 104.284C155.915 92.212 153.358 80.0293 147.283 69.5075C141.207 58.9856 131.929 50.6732 120.798 45.7787C109.666 40.8842 97.2618 39.6628 85.3874 42.292C73.5131 44.9212 62.7881 51.2641 54.7717 60.3983C46.7553 69.5326 41.8653 80.9821 40.8128 93.0822L81.3036 69.7473L90.1228 84.0183L42.6152 111.339C43.2166 114.078 44.0346 116.764 45.0614 119.374L77.2481 100.86L85.4879 115.067L53.3012 133.645C55.0103 135.78 56.8597 137.798 58.8373 139.688V139.431Z" fill="white"/>
<path opacity="0.4" fill-rule="evenodd" clip-rule="evenodd" d="M97.9119 4.04992C115.098 4.01023 131.962 8.70613 146.647 17.6208C161.332 26.5354 173.27 39.3232 181.147 54.5767C145.355 52.9696 50.5331 71.5475 22.402 151.002C10.7123 135.206 4.43628 116.066 4.50619 96.4251C4.56523 84.2351 7.02808 72.1761 11.7541 60.9366C16.4802 49.697 23.3769 39.4971 32.0504 30.9193C40.724 22.3414 51.0045 15.5536 62.3051 10.9433C73.6056 6.33307 85.7049 3.99069 97.9119 4.04992Z" fill="white"/>
</g>
<defs>
<linearGradient id="paint0_linear_52_43" x1="-21.8824" y1="101.025" x2="175.051" y2="101.025" gradientUnits="userSpaceOnUse">
<stop stop-color="#72981F"/>
<stop offset="1" stop-color="#B6C60E"/>
</linearGradient>
<clipPath id="clip0_52_43">
<rect width="640" height="196" fill="white"/>
</clipPath>
</defs>
</svg>
