<svg width="138" height="42" viewBox="0 0 138 42" fill="none" xmlns="http://www.w3.org/2000/svg">
<g clip-path="url(#clip0_1501_8999)">
<path d="M51.9408 24.5746H56.91C60.7688 24.5746 62.6565 22.9078 62.6565 19.3539C62.6565 15.2214 60.394 14.4775 56.9517 14.4775H55.1472V10.6756H61.0742L61.4628 8.26498H51.9408V24.5746ZM55.1472 22.164V16.8881H56.91C58.7839 16.8881 59.3252 17.6871 59.3252 19.4503C59.3252 21.2135 58.7839 22.2053 56.8406 22.2053L55.1472 22.164ZM68.0144 24.5746L72.8032 16.6953L73.2196 15.5657H73.3584L73.1086 17.205V24.547H76.0235V12.1495H73.3862L68.5974 19.8773L68.1255 21.0757H68.0144L68.2643 19.409V12.1771H65.391V24.5746H68.0144ZM84.2269 24.5746V14.4775H87.7248V12.1771H77.7308V14.4775H81.2148V24.5746H84.2269ZM89.4876 29.6713H92.4858V23.9272C93.4547 24.5712 94.6122 24.8766 95.7754 24.795C99.1762 24.795 100.273 22.2604 100.273 18.5825C100.273 14.9045 99.5093 12.1633 95.6644 12.1633C94.362 12.2098 93.1221 12.7294 92.1804 13.6235L91.8473 12.3975H89.5153V29.6162L89.4876 29.6713ZM95.3035 22.7838C94.3187 22.7972 93.3522 22.5191 92.5274 21.9849V15.2214C93.338 14.6296 94.3 14.2763 95.3035 14.202C96.6916 14.202 97.0941 15.7999 97.0941 18.61C97.0941 21.4201 96.6499 22.7425 95.3035 22.7425V22.7838ZM107.796 11.8878C103.632 11.8878 101.966 14.6428 101.966 18.4447C101.966 22.2466 103.757 24.795 107.671 24.795C109.304 24.8391 110.928 24.5338 112.432 23.8996L111.918 21.8747C110.607 22.4464 109.186 22.7284 107.754 22.7012C106.144 22.7012 105.311 21.5441 105.186 19.3814V18.8717H112.793C112.793 14.3673 111.78 11.9842 107.838 11.9842L107.796 11.8878ZM107.713 13.8714C109.406 13.8714 109.823 15.2489 109.823 17.0672H105.2C105.2 15.5106 105.797 13.8714 107.74 13.8714H107.713ZM120.76 10.896C121.619 10.997 122.486 10.7863 123.2 10.3027C123.914 9.8191 124.428 9.0953 124.647 8.26498L123.134 7.43848C122.955 7.88242 122.63 8.25326 122.211 8.4908C121.793 8.72834 121.306 8.81866 120.83 8.7471C120.357 8.81968 119.873 8.72943 119.459 8.49136C119.045 8.25329 118.725 7.88175 118.553 7.43848L117.04 8.26498C117.25 9.06752 117.738 9.77115 118.418 10.2523C119.098 10.7335 119.928 10.9614 120.76 10.896ZM117.984 24.5746L122.787 16.6953L123.203 15.5657H123.342L123.092 17.205V24.547H125.993V12.1495H123.328L118.526 19.8773L118.068 21.0757H117.984L118.248 19.409V12.1771H115.333V24.5746H117.984ZM137.986 12.9347C136.846 12.2564 135.54 11.9037 134.211 11.9154C130.157 11.9154 128.533 14.6704 128.533 18.4309C128.533 22.1915 130.157 24.795 134.211 24.795C135.548 24.8265 136.866 24.4673 138 23.7619L137.417 21.7507C136.482 22.3499 135.393 22.6702 134.28 22.6736C132.725 22.6736 131.837 21.1997 131.837 18.4309C131.837 15.6622 132.531 14.0643 134.28 14.0643C135.369 14.1178 136.424 14.4603 137.334 15.0561L138.055 12.9347H137.986ZM55.6747 41.8622V34.9747H58.1454V33.9967H51.9408V34.9747H54.3976V41.8622H55.6747ZM62.8231 33.7763C60.3385 33.7763 59.3113 35.567 59.3113 37.9777C59.3113 40.3883 60.3663 42.0413 62.837 42.0413C63.8548 42.0837 64.8682 41.8854 65.7935 41.4628L65.4465 40.5123C64.6435 40.9361 63.7465 41.1539 62.837 41.1459C61.8376 41.1459 60.6994 40.4572 60.6994 38.3909V38.0052H65.9185C65.9185 35.0711 65.2938 33.7625 62.8231 33.7625V33.7763ZM64.6553 37.1925H60.6994C60.6994 35.815 61.2963 34.5615 62.8231 34.5615C64.35 34.5615 64.6553 35.567 64.6553 37.1925ZM73.7887 41.8071V33.914H68.8056C68.9159 36.0714 68.7433 38.2338 68.292 40.347C68.07 41.1184 67.4314 41.1046 66.904 41.1046L67.0567 42C68.1532 42 68.9305 42 69.4858 40.6225C69.9609 38.7322 70.1527 36.7828 70.0549 34.837H72.5672V41.8347L73.7887 41.8071ZM79.3409 33.7212C76.8563 33.7212 75.8292 35.5119 75.8292 37.9226C75.8292 40.3332 76.8841 41.9862 79.3548 41.9862C80.3726 42.0286 81.386 41.8303 82.3113 41.4076L81.8949 40.471C81.0919 40.8948 80.1949 41.1126 79.2854 41.1046C78.286 41.1046 77.1478 40.4159 77.1478 38.3496V37.9639H82.3669C82.3669 35.0298 81.7423 33.7212 79.2715 33.7212H79.3409ZM81.1454 37.1925H77.1894C77.1894 35.815 77.7863 34.5615 79.3132 34.5615C80.84 34.5615 81.1454 35.567 81.1454 37.1925ZM85.7537 41.8071V38.0879H86.2673C86.5616 38.0674 86.8547 38.1405 87.1043 38.2965C87.3539 38.4526 87.5469 38.6834 87.6553 38.9557L88.155 40.3332C88.4882 41.201 88.8352 41.7107 89.4598 41.9311C89.7977 41.9999 90.1421 42.0322 90.487 42.0275L90.598 41.1597C90.3855 41.183 90.171 41.1381 89.9861 41.0314C89.8012 40.9248 89.6557 40.7622 89.5709 40.5674L88.9601 39.0934C88.5298 38.1016 88.4188 37.7848 87.8913 37.7159C88.4327 37.6195 88.7103 37.22 89.0573 36.3384L89.4182 35.4706C89.482 35.2477 89.6225 35.0541 89.8152 34.9232C90.0079 34.7924 90.2406 34.7326 90.4731 34.7543L90.3759 33.914C90.0179 33.8998 89.6603 33.9511 89.321 34.0656C89.0312 34.1947 88.7731 34.3847 88.5646 34.6226C88.3561 34.8604 88.2022 35.1404 88.1134 35.4431L87.7664 36.3109C87.6517 36.6037 87.4458 36.8525 87.1786 37.021C86.9114 37.1896 86.597 37.2689 86.2812 37.2476H85.7815V33.914H84.5045V41.8209L85.7537 41.8071ZM91.7085 37.9226C91.7085 40.3332 92.5274 41.9862 95.2063 41.9862C97.8853 41.9862 98.732 40.3332 98.732 37.9226C98.732 35.5119 97.8853 33.7212 95.2063 33.7212C92.5274 33.7212 91.7085 35.5119 91.7085 37.9226ZM93.0965 37.9226C93.0965 36.1318 93.4158 34.5477 95.2341 34.5477C97.0524 34.5477 97.3856 35.8563 97.3856 37.9226C97.3856 39.9888 97.0524 41.1597 95.2341 41.1597C93.4158 41.1597 93.0965 39.7133 93.0965 37.9226ZM107.824 35.6772L107.963 41.8209H109.351L109.017 33.914H107.13L105.131 40.223L105.02 41.0633L104.923 40.223L102.854 33.914H100.953L100.661 41.8209H101.786L101.911 35.6772V34.8232L104.187 41.8209H105.575L107.796 34.8232V35.6772H107.824Z" fill="#005D9F"/>
<path fill-rule="evenodd" clip-rule="evenodd" d="M21.1678 4.52274e-06C25.3544 4.52274e-06 29.4469 1.23204 32.928 3.5403C36.409 5.84857 39.1221 9.1294 40.7243 12.9679C42.3264 16.8064 42.7456 21.0302 41.9288 25.1051C41.1121 29.1801 39.096 32.9231 36.1357 35.861C33.1753 38.7989 29.4036 40.7996 25.2974 41.6101C21.1913 42.4207 16.9351 42.0047 13.0672 40.4147C9.19932 38.8248 5.89336 36.1323 3.56742 32.6777C1.24147 29.2231 4.55738e-06 25.1617 4.55738e-06 21.0069C-0.00182039 18.2477 0.544455 15.5153 1.60759 12.9658C2.67072 10.4163 4.22986 8.09977 6.19583 6.14874C8.1618 4.19771 10.496 2.65042 13.0651 1.59537C15.6341 0.540317 18.3875 -0.00180655 21.1678 4.52274e-06Z" fill="url(#paint0_linear_1501_8999)"/>
<path opacity="0.4" fill-rule="evenodd" clip-rule="evenodd" d="M20.9596 0.605642C24.6594 0.607581 28.2872 1.62013 31.4456 3.53235C34.604 5.44456 37.171 8.18265 38.8655 11.4466C31.1895 11.1022 10.7436 15.1521 4.67777 32.0678C2.16567 28.6943 0.812867 24.6088 0.81899 20.4141C0.844702 15.1374 2.98067 10.0867 6.75738 6.37228C10.5341 2.65786 15.6425 0.583669 20.9596 0.605642Z" fill="white"/>
<path fill-rule="evenodd" clip-rule="evenodd" d="M13.2282 7.3695C15.9462 5.81959 19.066 5.10352 22.1938 5.31165C25.3216 5.51979 28.3172 6.6428 30.8024 8.53895C33.2876 10.4351 35.1511 13.0194 36.1577 15.9657C37.1643 18.9119 37.2688 22.088 36.458 25.0932C35.6473 28.0983 33.9577 30.7978 31.6024 32.8508C29.2471 34.9038 26.3318 36.2184 23.2243 36.6286C20.1169 37.0388 16.9566 36.5262 14.1425 35.1556C11.3283 33.785 8.98636 31.6177 7.41223 28.9274C6.36297 27.1341 5.68101 25.1528 5.40549 23.0972C5.12997 21.0417 5.26633 18.9524 5.80674 16.9492C6.34714 14.9461 7.28095 13.0687 8.55454 11.4247C9.82812 9.78072 11.4164 8.40261 13.2282 7.3695ZM12.6868 29.8779L21.0151 25.0842L22.7918 28.1422L15.8516 32.0819C18.2265 33.1859 20.8944 33.5093 23.4673 33.0052C26.0403 32.5011 28.3841 31.1957 30.1581 29.2788C31.9321 27.3619 33.0437 24.9335 33.3314 22.3466C33.6191 19.7596 33.0679 17.149 31.7579 14.8944C30.4478 12.6397 28.4473 10.8584 26.047 9.80962C23.6468 8.7608 20.9721 8.49906 18.4117 9.06247C15.8513 9.62588 13.5387 10.9851 11.8102 12.9424C10.0816 14.8997 9.02723 17.3532 8.80028 19.9461L17.5311 14.9458L19.4327 18.0038L9.18894 23.8582C9.31827 24.4272 9.49469 24.9847 9.71639 25.525L16.6566 21.5578L18.4334 24.602L11.4931 28.583C11.8616 29.0404 12.2604 29.473 12.6868 29.8779Z" fill="white"/>
</g>
<defs>
<linearGradient id="paint0_linear_1501_8999" x1="-5.50209" y1="21.9517" x2="36.9616" y2="21.9517" gradientUnits="userSpaceOnUse">
<stop stop-color="#234093"/>
<stop offset="1" stop-color="#4585C6"/>
</linearGradient>
<clipPath id="clip0_1501_8999">
<rect width="138" height="42" fill="white"/>
</clipPath>
</defs>
</svg>
