<svg width="186" height="64" viewBox="0 0 186 64" fill="none" xmlns="http://www.w3.org/2000/svg">
<g clip-path="url(#clip0_857_6349)">
<path fill-rule="evenodd" clip-rule="evenodd" d="M0 18.6525H5.65138L18.7751 35.8402V18.6525H24.879V46.5366H19.6856L6.10392 28.7976V46.5366H0V18.6525ZM27.6104 40.3209C27.6104 35.6564 31.1661 33.462 36.268 33.462C38.0479 33.4368 39.8168 33.7466 41.483 34.3755V34.0133C41.483 31.5433 39.9314 30.0785 36.9252 30.0785C34.8899 30.0675 32.8736 30.4721 30.9991 31.2676L29.4529 26.6031C32.0538 25.4484 34.8676 24.8554 37.7118 24.8628C40.9927 24.8628 43.4548 25.7762 44.9094 27.2409C46.5256 28.7922 47.1882 31.1703 47.1882 34.0998V46.5312H41.3752V44.2503C40.5637 45.1549 39.5641 45.8696 38.447 46.344C37.3299 46.8185 36.1226 47.041 34.9104 46.996C30.8914 47.023 27.6104 44.6178 27.6104 40.3209ZM41.5584 39.0399V37.959C40.3497 37.4099 39.0386 37.1243 37.7118 37.1212C35.1582 37.1212 33.5204 38.1265 33.5204 40.1371C33.5204 41.7586 34.8888 42.6991 36.8013 42.6991C39.6243 42.791 41.5422 41.2343 41.5422 39.0399H41.5584ZM50.4853 17.4634H56.5946V33.008L63.7006 25.2357H70.9898L62.8817 33.6458L71.2645 46.6177H64.3417L58.7819 37.8346L56.6862 40.029V46.515H50.5769L50.4853 17.4418V17.4634ZM72.175 17.4634H78.2843V28.2733C79.6473 26.4464 81.4737 24.7979 84.5714 24.7979C89.1292 24.7979 91.8606 27.8139 91.8606 32.754V46.5366H85.6597V34.6457C85.6597 31.8135 84.2913 30.2569 82.0124 30.2569C79.7335 30.2569 78.1873 31.7216 78.1873 34.6457V46.5366H72.0834L72.1912 17.4634H72.175ZM95.3408 25.1438H101.445V46.5366H95.3247V25.1438H95.3408ZM105.092 25.1438H111.196V28.1598C112.564 26.3329 114.385 24.6844 117.483 24.6844C118.704 24.6122 119.919 24.8926 120.986 25.4923C122.052 26.0919 122.925 26.9858 123.501 28.0679C124.334 27.0061 125.399 26.1494 126.612 25.563C127.826 24.9766 129.157 24.6761 130.504 24.6844C134.971 24.6844 137.707 27.4301 137.707 32.5486V46.4447H131.593V34.5538C131.593 31.7216 130.316 30.165 128.042 30.165C125.769 30.165 124.395 31.6298 124.395 34.5538V46.4447H118.291V34.5538C118.291 31.7216 117.014 30.165 114.735 30.165C112.457 30.165 111.088 31.6298 111.088 34.5538V46.4447H104.984L105.054 25.1438H105.092ZM139.997 35.9537C139.997 29.8299 144.916 24.7979 151.569 24.7979C158.223 24.7979 163.125 29.7272 163.125 35.9321C163.125 42.0559 158.206 47.0879 151.553 47.0879C144.808 47.0879 139.981 42.1478 139.981 35.9321L139.997 35.9537ZM157.129 35.9537C157.157 34.4467 156.604 32.9871 155.585 31.8794C154.566 30.7717 153.16 30.1013 151.661 30.0083H151.478C148.013 30.0083 145.918 32.6621 145.918 35.9537C145.887 37.4614 146.439 38.9225 147.459 40.0309C148.478 41.1392 149.885 41.8087 151.386 41.8992H151.569C155.033 41.8073 157.129 39.1588 157.129 35.9537ZM163.594 25.1438H170.059L174.907 39.4994L179.756 25.1438H186.043L177.617 46.7204H172.149L163.594 25.1438ZM102.899 16.2743C104.268 12.707 104.176 8.86951 102.899 4.75635L109.634 13.0746C108.824 14.0826 107.798 14.894 106.632 15.4481C105.466 16.0022 104.19 16.2846 102.899 16.2743ZM101.989 12.3449C101.273 13.5465 100.258 14.5406 99.0431 15.2295C97.8285 15.9184 96.456 16.2785 95.0607 16.2743C96.5207 11.8855 96.3375 7.221 95.0607 2.22143L101.989 12.3449ZM87.8631 14.9014L88.5904 17.5553L89.6679 17.8309L90.8531 19.9334H103.783C105.156 19.4603 106.404 18.6782 107.43 17.6472L112.818 15.269L107.258 16.8905H102.975L102.608 17.0742L102.425 3.08622V3.36187H101.068C100.769 3.27008 100.45 3.27008 100.152 3.36187C99.8824 3.63752 100.691 4.09154 99.974 4.09154C99.7908 4.09154 98.9666 3.99965 98.8965 4.27531C98.8965 4.55096 99.3491 4.73473 98.8965 4.8158C98.5853 4.83909 98.2779 4.89895 97.9807 4.99416C98.2791 4.98655 98.5707 5.08409 98.8049 5.26982C98.6979 5.34378 98.5677 5.37642 98.4386 5.3617C98.2554 5.45359 98.1638 5.54547 97.9807 5.63735H99.3491C99.3908 5.6576 99.4364 5.6689 99.4827 5.67052C99.5291 5.67213 99.5753 5.66404 99.6184 5.64675C99.6615 5.62946 99.7005 5.60335 99.733 5.5701C99.7654 5.53684 99.7906 5.49716 99.807 5.45359C99.8196 5.26868 99.7883 5.08341 99.7154 4.91309C99.6238 4.64284 99.9902 4.73473 100.168 4.73473C100.346 4.73473 100.534 4.82661 100.809 4.82661C100.993 4.84017 101.178 4.80864 101.348 4.73473C101.439 4.55096 101.348 4.36719 101.348 4.19423C101.745 4.17886 102.143 4.2097 102.533 4.28612L102.441 17.258H95.1415L94.7751 -0.0378418V0.183761H93.229C92.8753 0.0945283 92.5051 0.0945283 92.1515 0.183761C91.7851 0.459413 92.7872 1.00531 91.8767 1.00531C91.602 1.00531 90.6915 0.821545 90.6915 1.18908C90.6915 1.46473 91.1494 1.72958 90.6915 1.82687C90.3508 1.84341 90.0139 1.9052 89.6894 2.01063C90.043 2.00324 90.3911 2.099 90.6915 2.28629C90.5083 2.37817 90.4167 2.37817 90.239 2.47005L89.7002 2.7403C90.2164 2.78634 90.7356 2.78634 91.2518 2.7403C91.3482 2.77875 91.455 2.78196 91.5535 2.74934C91.652 2.71673 91.7359 2.65039 91.7905 2.56194C91.7905 2.37817 91.7905 2.10252 91.6074 2.02144C91.5158 1.65391 91.8821 1.83768 92.0653 1.83768C92.2485 1.83768 92.5178 1.92956 92.7926 1.92956C93.0103 1.94435 93.2288 1.91305 93.4337 1.83768C93.4789 1.73749 93.5023 1.62877 93.5023 1.51878C93.5023 1.4088 93.4789 1.30008 93.4337 1.19989C93.8896 1.13872 94.3531 1.16996 94.7967 1.29178L94.7051 16.9229L94.3442 16.6526H92.9758L91.3595 14.9122L87.8631 14.9014ZM101.989 18.1012H102.625V18.6417H102.086L101.994 18.1012H101.989ZM100.911 18.1012H101.45V18.6417H100.911V18.1012ZM99.8339 18.1012H100.373V18.6417H99.8339V18.1012ZM98.6487 18.1012H99.1874V18.6417H98.6487V18.1012ZM97.5712 18.1012H98.1099V18.6417H97.5712V18.1012ZM96.386 18.1012H96.9247V18.6417H96.386V18.1012ZM95.3085 18.1012H95.8472V18.6417H95.3085V18.1012Z" fill="white"/>
<path fill-rule="evenodd" clip-rule="evenodd" d="M7.10643 55.2224H5.28549L2.37091 58.4221V55.2224H0.819336V61.9894H2.37091V60.3679L3.44839 59.1788L5.54409 62.0164H7.38119L4.55819 58.0816L7.10643 55.2494V55.2224ZM11.0285 60.8273C10.4744 60.8217 9.94459 60.5984 9.55278 60.2053C9.16097 59.8122 8.93837 59.2807 8.93276 58.7248V58.6329C8.91301 58.3625 8.94697 58.0908 9.03267 57.8336C9.11838 57.5765 9.25412 57.3389 9.43203 57.1348C9.60993 56.9307 9.82647 56.764 10.0691 56.6445C10.3117 56.525 10.5755 56.455 10.8453 56.4385H11.0285C11.3049 56.4341 11.5794 56.4855 11.8356 56.5896C12.0918 56.6937 12.3246 56.8485 12.5201 57.0446C12.7155 57.2407 12.8698 57.4742 12.9735 57.7313C13.0773 57.9883 13.1285 58.2637 13.1242 58.541V58.6329C13.1472 59.1751 12.9614 59.7054 12.6054 60.1139C12.2493 60.5224 11.7503 60.7779 11.2116 60.8273H11.0285ZM11.0285 55.0657C10.5499 55.0141 10.0658 55.0617 9.60636 55.2056C9.14689 55.3495 8.7218 55.5866 8.35749 55.9022C7.99317 56.2178 7.69739 56.6052 7.48851 57.0403C7.27964 57.4753 7.16212 57.9488 7.14325 58.4314C7.12438 58.9139 7.20456 59.3952 7.37883 59.8453C7.55309 60.2955 7.81771 60.7049 8.15626 61.0482C8.49482 61.3914 8.90008 61.6612 9.3469 61.8408C9.79372 62.0204 10.2726 62.1059 10.7537 62.0921H10.9369C11.8269 62.0665 12.674 61.7028 13.3069 61.0745C13.9398 60.4462 14.3113 59.6002 14.3462 58.7076C14.3811 57.8151 14.0768 56.9425 13.4949 56.2664C12.913 55.5903 12.0969 55.1611 11.2116 55.0657H11.0285ZM22.8807 55.2494H21.3238L19.2281 58.3573L17.1324 55.2494H15.5862V62.0164H17.1324V57.5087L19.2281 60.5355L21.3238 57.5195V62.0002H22.8754V55.2224L22.8807 55.2494ZM30.2561 55.2224H24.2438V61.9894H25.7899V56.5034H28.7045V61.9083H30.2561V55.2224ZM37.6368 55.2224H32.535C32.535 60.3409 31.9962 60.8003 31.2581 60.8003C31.1016 60.8151 30.9441 60.7832 30.8056 60.7084L30.7086 61.9894C31.0058 62.0656 31.3127 62.0966 31.6191 62.0813C33.0737 62.0813 34.0758 61.4381 34.0758 56.5953H36.1768V62.0002H37.7123L37.6207 55.2332L37.6368 55.2224ZM40.0827 58.0654C40.1074 57.6213 40.3007 57.2035 40.6228 56.8979C40.9449 56.5923 41.3714 56.422 41.8148 56.422C42.2581 56.422 42.6846 56.5923 43.0068 56.8979C43.3289 57.2035 43.5221 57.6213 43.5468 58.0654H40.0989H40.0827ZM41.8282 55.0494C40.9459 55.1383 40.1298 55.5586 39.5435 56.226C38.9573 56.8935 38.6444 57.7587 38.6676 58.648C38.6907 59.5373 39.0483 60.3849 39.6685 61.0207C40.2887 61.6565 41.1257 62.0334 42.0114 62.0759C42.5347 62.0859 43.0534 61.9757 43.5278 61.7536C44.0022 61.5316 44.4196 61.2037 44.7482 60.7949L43.8323 59.995C43.6097 60.2563 43.3315 60.4642 43.0183 60.6036C42.7051 60.7429 42.3647 60.8102 42.0222 60.8003C41.5437 60.8075 41.0804 60.6325 40.7255 60.3106C40.3705 59.9886 40.1505 59.5436 40.1096 59.0653H45.1199V58.6059C45.1199 56.6871 44.0425 55.0386 41.839 55.0386L41.8282 55.0494ZM52.3229 55.2224H50.4858L47.5712 58.4221V55.2224H46.0196V61.9894H47.5712V60.3679L48.6487 59.1788L50.7444 62.0164H52.5815L49.7585 58.0816L52.3121 55.2494L52.3229 55.2224ZM56.1372 55.0657C55.2135 55.0774 54.3295 55.4446 53.6679 56.0913C53.0062 56.738 52.6173 57.615 52.5815 58.541V58.6329C52.5793 59.1057 52.6735 59.5738 52.8584 60.0087C53.0433 60.4435 53.3149 60.8357 53.6566 61.1613C53.9982 61.4868 54.4027 61.7388 54.845 61.9017C55.2874 62.0645 55.7583 62.1349 56.2288 62.1083C56.7373 62.108 57.2392 61.9926 57.6971 61.7708C58.1551 61.5491 58.5574 61.2266 58.874 60.8273L57.9581 59.9139C57.7479 60.1701 57.4839 60.3766 57.185 60.5186C56.886 60.6606 56.5595 60.7347 56.2288 60.7354C55.9592 60.7305 55.6933 60.6721 55.4464 60.5636C55.1995 60.4551 54.9764 60.2986 54.7901 60.1031C54.6037 59.9076 54.4579 59.6771 54.3608 59.4247C54.2638 59.1724 54.2175 58.9033 54.2246 58.6329V58.541C54.2016 57.9989 54.3874 57.4686 54.7434 57.0601C55.0995 56.6516 55.5985 56.3961 56.1372 56.3466C56.4695 56.3377 56.7992 56.4075 57.0996 56.5502C57.4001 56.693 57.6628 56.9046 57.8665 57.1682L58.874 56.1629C58.5223 55.7955 58.0957 55.5087 57.6234 55.3222C57.151 55.1356 56.644 55.0536 56.1372 55.0819V55.0657ZM65.2526 60.9354C65.1086 60.9641 64.9602 60.9628 64.8166 60.9318C64.6731 60.9008 64.5373 60.8407 64.4177 60.7552C64.2982 60.6696 64.1973 60.5605 64.1213 60.4344C64.0453 60.3083 63.9958 60.168 63.9758 60.022V59.9301C63.9758 59.2869 64.5146 58.8491 65.522 58.8491C66.0518 58.8432 66.578 58.9367 67.0736 59.1248V59.4545C67.0144 59.886 66.7927 60.2783 66.4539 60.5508C66.1152 60.8232 65.6853 60.9551 65.2526 60.9192V60.9354ZM65.522 55.0657C64.6436 55.0588 63.7742 55.2432 62.9738 55.6061L63.4263 56.8871C64.028 56.6051 64.6805 56.4488 65.3442 56.4277C65.7002 56.3674 66.0657 56.4457 66.366 56.6466C66.6664 56.8475 66.879 57.1559 66.9604 57.5087V57.8762C66.339 57.6948 65.6952 57.602 65.0479 57.6006C63.4964 57.6006 62.3111 58.3302 62.3111 59.795C62.3093 60.0794 62.3654 60.3613 62.4758 60.6233C62.5863 60.8852 62.7489 61.1219 62.9536 61.3187C63.1583 61.5155 63.4009 61.6683 63.6665 61.7678C63.9322 61.8674 64.2152 61.9115 64.4984 61.8975H64.6816C65.0965 61.8958 65.5062 61.8052 65.8834 61.6318C66.2607 61.4585 66.5966 61.2063 66.8689 60.8922V61.7137H68.4204V57.6925C68.512 56.1358 67.51 55.0386 65.5005 55.0386L65.522 55.0657ZM75.7096 55.2224H69.7188V61.9894H71.265V56.5844H74.1796V61.9894H75.7311V55.2224H75.7096ZM79.47 60.8922C79.3259 60.9208 79.1776 60.9196 79.034 60.8886C78.8904 60.8576 78.7547 60.7975 78.6351 60.7119C78.5155 60.6264 78.4146 60.5172 78.3386 60.3911C78.2626 60.2651 78.2131 60.1247 78.1932 59.9788V59.8869C78.1932 59.2437 78.7319 58.8059 79.7394 58.8059C80.2691 58.7999 80.7954 58.8934 81.2909 59.0815V59.4545C81.2682 59.671 81.2029 59.8808 81.0988 60.0718C80.9948 60.2629 80.854 60.4314 80.6847 60.5676C80.5154 60.7037 80.3209 60.8049 80.1124 60.8653C79.9039 60.9256 79.6856 60.944 79.47 60.9192V60.8922ZM79.7394 55.0657C78.861 55.0588 77.9916 55.2432 77.1911 55.6061L77.6437 56.8871C78.2436 56.6057 78.8943 56.4494 79.5562 56.4277C79.9161 56.3612 80.2877 56.4364 80.5937 56.6378C80.8998 56.8391 81.1167 57.151 81.1993 57.5087V57.8762C80.5779 57.6948 79.9341 57.602 79.2868 57.6006C77.7352 57.6006 76.55 58.3302 76.55 59.795C76.5482 60.0794 76.6043 60.3613 76.7147 60.6233C76.8252 60.8852 76.9878 61.1219 77.1925 61.3187C77.3972 61.5155 77.6398 61.6683 77.9054 61.7678C78.1711 61.8674 78.4541 61.9115 78.7373 61.8975H78.9205C79.3354 61.8958 79.7451 61.8052 80.1223 61.6318C80.4995 61.4585 80.8355 61.2063 81.1078 60.8922V61.7137H82.6593V57.6925C82.7455 56.1358 81.7435 55.0386 79.7394 55.0386V55.0657ZM87.4864 60.7084C86.9329 60.6694 86.4146 60.4213 86.0362 60.014C85.6578 59.6068 85.4474 59.0708 85.4474 58.514C85.4474 57.9573 85.6578 57.4212 86.0362 57.014C86.4146 56.6067 86.9329 56.3586 87.4864 56.3196C87.7764 56.3493 88.0573 56.4377 88.3122 56.5794C88.5671 56.7211 88.7907 56.9132 88.9695 57.1441C89.1482 57.375 89.2785 57.6399 89.3523 57.9227C89.4261 58.2056 89.442 58.5005 89.399 58.7897C89.3346 59.2759 89.1124 59.7272 88.7667 60.0741C88.421 60.4209 87.9711 60.6438 87.4864 60.7084ZM87.8528 55.0386C87.3941 55.0317 86.9417 55.1465 86.5415 55.3714C86.1413 55.5964 85.8075 55.9235 85.5739 56.3196V55.2386H84.0439V64.0162H85.5955V60.9084C85.8563 61.2714 86.1984 61.5681 86.5941 61.7746C86.9898 61.9811 87.4283 62.0917 87.8743 62.0975C88.3393 62.0531 88.7904 61.9147 89.2006 61.6907C89.6107 61.4666 89.9714 61.1616 90.2609 60.7939C90.5504 60.4262 90.7626 60.0035 90.8848 59.5513C91.0071 59.0991 91.0368 58.6267 90.9721 58.1627C90.8859 57.3681 90.5319 56.6269 89.9685 56.0617C89.4052 55.4965 88.6664 55.1413 87.8743 55.0548L87.8528 55.0386ZM97.1676 55.2386H91.2415V56.6115H93.4287V62.0164H94.9749V56.6115H97.1622V55.2386H97.1676ZM100.077 60.9084C99.9331 60.9362 99.7853 60.9344 99.6424 60.903C99.4994 60.8716 99.3643 60.8113 99.2454 60.7259C99.1264 60.6404 99.026 60.5315 98.9504 60.4058C98.8747 60.2802 98.8254 60.1404 98.8054 59.995V59.9031C98.8054 59.2599 99.3441 58.8221 100.352 58.8221C100.881 58.8162 101.408 58.9096 101.903 59.0977V59.4545C101.884 59.6729 101.821 59.8852 101.718 60.0784C101.614 60.2717 101.473 60.4419 101.302 60.5789C101.132 60.7158 100.935 60.8165 100.724 60.875C100.514 60.9335 100.293 60.9486 100.077 60.9192V60.9084ZM100.443 55.0657C99.5631 55.0593 98.692 55.2437 97.8895 55.6061L98.3474 56.8871C98.947 56.6045 99.5979 56.4482 100.26 56.4277C100.62 56.3612 100.991 56.4364 101.298 56.6378C101.604 56.8391 101.82 57.151 101.903 57.5087V57.8762C101.282 57.6951 100.638 57.6023 99.9906 57.6006C98.439 57.6006 97.2538 58.3302 97.2538 59.795C97.252 60.0794 97.308 60.3613 97.4185 60.6233C97.529 60.8852 97.6915 61.1219 97.8963 61.3187C98.101 61.5155 98.3436 61.6683 98.6092 61.7678C98.8748 61.8674 99.1579 61.9115 99.4411 61.8975H99.6243C100.039 61.8951 100.449 61.8042 100.826 61.6309C101.203 61.4576 101.539 61.2058 101.812 60.8922V61.7137H103.358V57.6925C103.358 56.1358 102.447 55.0386 100.443 55.0386V55.0657ZM111.929 55.2224H110.378L108.287 58.3302L106.191 55.2224H104.64V61.9894H106.191V57.5087L108.287 60.5355L110.383 57.5195V62.0002H111.934V55.2224H111.929ZM114.391 58.0546C114.416 57.6105 114.609 57.1927 114.931 56.8871C115.253 56.5814 115.68 56.4111 116.123 56.4111C116.567 56.4111 116.993 56.5814 117.315 56.8871C117.637 57.1927 117.831 57.6105 117.855 58.0546H114.391ZM116.217 55.0386C115.335 55.127 114.519 55.5468 113.932 56.2137C113.346 56.8807 113.032 57.7455 113.055 58.6346C113.077 59.5238 113.434 60.3716 114.054 61.0078C114.673 61.644 115.51 62.0217 116.395 62.0651C116.919 62.0751 117.437 61.9649 117.912 61.7428C118.386 61.5208 118.803 61.1929 119.132 60.7841L118.2 59.995C117.977 60.2608 117.697 60.4727 117.38 60.6149C117.064 60.7571 116.72 60.8261 116.374 60.8165C115.895 60.8237 115.432 60.6487 115.077 60.3268C114.722 60.0048 114.502 59.5598 114.461 59.0815H119.477V58.6221C119.385 56.7952 118.292 55.0548 116.196 55.0548L116.217 55.0386ZM126.4 55.2386H124.853V57.9843H121.842V55.2386H120.296V62.0056H121.842V59.2599H124.853V62.0056H126.4V55.2224V55.2386ZM132.961 55.2224H127.035V56.5953H129.217V62.0002H130.769V56.5953H132.956V55.2224H132.961ZM136.787 60.8003C136.232 60.7947 135.702 60.5716 135.309 60.1786C134.916 59.7857 134.692 59.2541 134.685 58.6978V58.6059C134.666 58.3352 134.701 58.0634 134.787 57.8062C134.874 57.549 135.01 57.3115 135.188 57.1075C135.367 56.9034 135.584 56.7369 135.826 56.6174C136.069 56.4979 136.333 56.428 136.603 56.4115H136.787C137.063 56.4071 137.337 56.4585 137.594 56.5626C137.85 56.6667 138.083 56.8214 138.278 57.0175C138.474 57.2137 138.628 57.4472 138.732 57.7043C138.835 57.9613 138.887 58.2367 138.882 58.514V58.6059C138.904 59.1486 138.717 59.6789 138.36 60.0872C138.003 60.4956 137.503 60.7509 136.964 60.8003H136.787ZM136.787 55.0386C136.32 55.0503 135.86 55.1542 135.433 55.3443C135.006 55.5344 134.62 55.807 134.298 56.1465C133.976 56.486 133.724 56.8859 133.556 57.3232C133.388 57.7604 133.308 58.2266 133.32 58.6951C133.331 59.1635 133.435 59.6251 133.624 60.0534C133.814 60.4817 134.086 60.8684 134.424 61.1914C134.762 61.5144 135.161 61.7673 135.597 61.9357C136.033 62.1042 136.497 62.1849 136.964 62.1732C137.893 62.1533 138.776 61.7682 139.424 61.1009C140.072 60.4336 140.433 59.5375 140.428 58.6059C140.407 57.6515 140.014 56.7434 139.333 56.0765C138.652 55.4096 137.738 55.037 136.787 55.0386ZM142.799 60.7084V58.9734H144.415C145.239 58.9734 145.692 59.3356 145.692 59.795C145.689 59.9218 145.66 60.0467 145.607 60.1621C145.554 60.2775 145.479 60.3809 145.385 60.4663C145.292 60.5516 145.182 60.6171 145.062 60.6587C144.943 60.7003 144.816 60.7172 144.69 60.7084H142.777H142.799ZM142.777 57.9681V56.3466H144.394C144.611 56.2981 144.839 56.3379 145.028 56.4574C145.217 56.5769 145.351 56.7663 145.401 56.9844V57.1682C145.381 57.3966 145.275 57.6088 145.105 57.7622C144.935 57.9155 144.714 57.9988 144.485 57.9951H142.756L142.777 57.9681ZM144.76 55.2494H141.296V62.0164H144.922C146.473 62.0164 147.384 61.2867 147.384 60.1895C147.388 59.7864 147.254 59.3939 147.005 59.0774C146.756 58.7608 146.407 58.5391 146.015 58.4492C146.334 58.3361 146.609 58.1257 146.803 57.8474C146.996 57.5691 147.097 57.2371 147.093 56.8979C147.001 55.8926 146.182 55.1575 144.814 55.2764" fill="white"/>
</g>
<defs>
<clipPath id="clip0_857_6349">
<rect width="186" height="64" fill="white"/>
</clipPath>
</defs>
</svg>
